<svg width="17" height="17" viewBox="0 0 17 17" fill="none" xmlns="http://www.w3.org/2000/svg">
<path d="M8.09612 0C5.30483 0 3.02157 2.19869 3.02157 4.88467C3.02157 6.52703 3.87777 7.98141 5.17943 8.86625C2.14943 10.0351 0.00026385 12.8868 0.00026385 16.2134C-0.0239262 17.2622 1.62333 17.2622 1.59914 16.2134C1.59914 12.6824 4.55781 9.83687 8.22728 9.83687C9.50818 9.83687 10.6972 10.1882 11.7092 10.7909C12.619 11.3278 13.4559 10.0147 12.5461 9.47778C12.0905 9.20651 11.5967 8.99495 11.0878 8.81213C12.3443 7.92275 13.166 6.49438 13.166 4.88467C13.166 2.19869 10.8874 0 8.09612 0ZM8.09612 1.54009C10.0233 1.54009 11.5671 3.03018 11.5671 4.88467C11.5671 6.73917 10.0233 8.22314 8.09612 8.22314C6.16892 8.22314 4.62044 6.73917 4.62044 4.88467C4.62044 3.03018 6.16892 1.54009 8.09612 1.54009ZM13.0005 14.6298V16.1684C13.0236 17.1715 14.5762 17.1715 14.5993 16.1684V14.6298H16.1998C17.2667 14.6298 17.2667 13.0898 16.1998 13.0898H14.5993V11.5512C14.6045 11.1199 14.2403 10.7687 13.7921 10.7729C13.35 10.7758 12.9953 11.1258 13.0005 11.5512V13.0898H11.3633C10.2581 13.1389 10.3346 14.6789 11.4016 14.6298H13.0005Z" fill="#1B608C"/>
</svg>
