<svg width="232" height="222" viewBox="0 0 232 222" fill="none" xmlns="http://www.w3.org/2000/svg">
<path d="M227.469 50.6533H177.932V4.537C177.932 2.03122 175.903 0 173.401 0H58.5995C56.0973 0 54.0682 2.03122 54.0682 4.537V50.6533H4.53125C2.02909 50.6533 0 52.6846 0 55.1904V217.463C0 219.969 2.02909 222 4.53125 222H227.469C229.971 222 232 219.969 232 217.463V55.1904C232 52.6846 229.971 50.6533 227.469 50.6533ZM177.932 81.9954H195.353V99.4733H177.932V81.9954ZM177.932 127.533H195.353V145.011H177.932V127.533ZM54.0682 145.011H36.6469V127.533H54.0682V145.011ZM54.0682 99.4733H36.6469V81.9954H54.0682V99.4733ZM9.0625 59.7274H54.0682V72.9214H32.1157C29.6135 72.9214 27.5844 74.9526 27.5844 77.4584V104.01C27.5844 106.516 29.6135 108.547 32.1157 108.547H54.0682V118.459H32.1157C29.6135 118.459 27.5844 120.49 27.5844 122.996V149.548C27.5844 152.054 29.6135 154.085 32.1157 154.085H54.0682V169.35H32.1157C29.6135 169.35 27.5844 171.381 27.5844 173.887V212.926H9.0625V59.7274ZM36.6469 178.424H54.0682V212.926H36.6469V178.424ZM63.1307 9.074H168.869V212.926H139.843V178.424H141.58C144.082 178.424 146.111 176.393 146.111 173.887C146.111 171.382 144.082 169.35 141.58 169.35H90.4202C87.918 169.35 85.8889 171.382 85.8889 173.887C85.8889 176.393 87.918 178.424 90.4202 178.424H92.157V212.926H63.1307V9.074ZM101.22 212.926V178.424H130.78V212.926H101.22ZM177.932 212.926V178.424H195.353V212.926H177.932ZM222.938 212.926H204.416V173.887C204.416 171.382 202.386 169.35 199.884 169.35H177.932V154.085H199.884C202.386 154.085 204.416 152.054 204.416 149.548V122.996C204.416 120.49 202.386 118.459 199.884 118.459H177.932V108.547H199.884C202.386 108.547 204.416 106.516 204.416 104.01V77.4584C204.416 74.9526 202.386 72.9214 199.884 72.9214H177.932V59.7274H222.938V212.926Z" fill="#0C4777"/>
<path d="M109.569 149.548V122.996C109.569 120.49 107.54 118.459 105.038 118.459H78.5538C76.0516 118.459 74.0225 120.49 74.0225 122.996V149.548C74.0225 152.054 76.0516 154.085 78.5538 154.085H105.038C107.54 154.085 109.569 152.054 109.569 149.548ZM100.507 145.011H83.085V127.533H100.506L100.507 145.011Z" fill="#0C4777"/>
<path d="M126.962 154.085H153.446C155.948 154.085 157.977 152.054 157.977 149.548V122.996C157.977 120.49 155.948 118.459 153.446 118.459H126.962C124.46 118.459 122.431 120.49 122.431 122.996V149.548C122.431 152.054 124.46 154.085 126.962 154.085ZM131.493 127.533H148.915V145.011H131.493V127.533Z" fill="#0C4777"/>
<path d="M78.5538 108.547H105.038C107.54 108.547 109.569 106.516 109.569 104.01V77.4584C109.569 74.9526 107.54 72.9214 105.038 72.9214H78.5538C76.0516 72.9214 74.0225 74.9526 74.0225 77.4584V104.01C74.0225 106.516 76.0516 108.547 78.5538 108.547ZM83.085 81.9954H100.506V99.4733H83.085V81.9954Z" fill="#0C4777"/>
<path d="M126.962 108.547H153.446C155.948 108.547 157.977 106.516 157.977 104.01V77.4584C157.977 74.9526 155.948 72.9214 153.446 72.9214H126.962C124.46 72.9214 122.431 74.9526 122.431 77.4584V104.01C122.431 106.516 124.46 108.547 126.962 108.547ZM131.493 81.9954H148.915V99.4733H131.493V81.9954Z" fill="#0C4777"/>
<path d="M78.5538 63.0099H105.038C107.54 63.0099 109.569 60.9787 109.569 58.4729V31.921C109.569 29.4152 107.54 27.384 105.038 27.384H78.5538C76.0516 27.384 74.0225 29.4152 74.0225 31.921V58.4729C74.0225 60.9787 76.0516 63.0099 78.5538 63.0099ZM83.085 36.458H100.506V53.9359H83.085V36.458Z" fill="#0C4777"/>
<path d="M126.962 63.0099H153.446C155.948 63.0099 157.977 60.9787 157.977 58.4729V31.921C157.977 29.4152 155.948 27.384 153.446 27.384H126.962C124.46 27.384 122.431 29.4152 122.431 31.921V58.4729C122.431 60.9787 124.46 63.0099 126.962 63.0099ZM131.493 36.458H148.915V53.9359H131.493V36.458Z" fill="#0C4777"/>
</svg>
