<svg width="57" height="57" viewBox="0 0 57 57" fill="none" xmlns="http://www.w3.org/2000/svg">
<path d="M10.0252 44.0803C9.22719 44.0803 8.46007 44.2795 7.77949 44.6535C4.19437 40.0577 2.22656 34.3486 2.22656 28.5C2.22656 14.0126 14.0126 2.22656 28.5 2.22656C30.2612 2.22656 32.0216 2.40182 33.7324 2.74754C34.3343 2.86931 34.9222 2.47966 35.044 1.87692C35.1658 1.27419 34.7761 0.687103 34.1734 0.564903C32.3178 0.190041 30.4091 0 28.5 0C20.8875 0 13.7303 2.96455 8.34743 8.34743C2.96455 13.7303 0 20.8875 0 28.5C0 34.9035 2.17438 41.1527 6.13305 46.1625C5.62337 46.9239 5.3494 47.8189 5.3494 48.7561C5.3494 50.005 5.83603 51.1792 6.71926 52.062C7.60206 52.9452 8.77622 53.4318 10.0252 53.4318C11.2741 53.4318 12.4483 52.9452 13.3315 52.062C14.2148 51.1792 14.701 50.0046 14.701 48.7556C14.701 47.5071 14.2148 46.3325 13.3315 45.4497C12.4483 44.5665 11.2741 44.0803 10.0252 44.0803ZM11.7569 50.4877C11.2946 50.9504 10.6792 51.2053 10.0252 51.2053C9.37113 51.2053 8.75622 50.9504 8.29351 50.4877C7.8308 50.025 7.57597 49.4101 7.57597 48.7561C7.57597 48.1016 7.8308 47.4867 8.29351 47.024C8.75578 46.5612 9.37113 46.3069 10.0252 46.3069C10.6792 46.3069 11.2942 46.5617 11.7569 47.024C12.2196 47.4867 12.4744 48.1016 12.4744 48.7561C12.4744 49.4101 12.2196 50.025 11.7569 50.4877Z" fill="#F5F5F5"/>
<path d="M50.8661 10.8362C52.0763 9.02062 51.882 6.53835 50.2812 4.93758C49.3979 4.05478 48.2238 3.56815 46.9748 3.56815C45.7259 3.56815 44.5517 4.05478 43.6685 4.93758C42.7852 5.82081 42.299 6.99497 42.299 8.24393C42.299 9.4929 42.7852 10.6671 43.6685 11.5503C44.5517 12.4335 45.7259 12.9197 46.9748 12.9197C47.7728 12.9197 48.5399 12.7205 49.2205 12.3465C52.8056 16.9427 54.7734 22.6514 54.7734 28.5C54.7734 42.9874 42.9874 54.7734 28.5 54.7734C26.7561 54.7734 25.0123 54.6017 23.3176 54.2625C22.7149 54.142 22.1282 54.533 22.0073 55.1357C21.8868 55.7389 22.2778 56.3251 22.8805 56.446C24.7188 56.8134 26.6096 57 28.5 57C36.1125 57 43.2697 54.0355 48.6526 48.6526C54.0355 43.2697 57 36.1125 57 28.5C57 22.096 54.8252 15.8464 50.8661 10.8362ZM45.2431 9.97604C44.7804 9.51334 44.5256 8.89842 44.5256 8.24393C44.5256 7.58988 44.7804 6.97497 45.2431 6.51226C45.7054 6.04955 46.3208 5.79471 46.9748 5.79471C47.6289 5.79471 48.2442 6.04955 48.7069 6.51226C49.6615 7.46725 49.6615 9.02106 48.7069 9.97604C48.2442 10.4383 47.6289 10.6932 46.9748 10.6932C46.3203 10.6932 45.7054 10.4383 45.2431 9.97604Z" fill="#F5F5F5"/>
<path d="M23.906 47.6484C23.906 48.2634 24.4048 48.7617 25.0193 48.7617H31.9803C32.5952 48.7617 33.0936 48.2634 33.0936 47.6484V45.4902C34.5574 45.0962 35.9568 44.516 37.2719 43.7585L38.7957 45.2823C39.0044 45.491 39.2875 45.6084 39.5832 45.6084C39.8781 45.6084 40.1616 45.491 40.3704 45.2818L45.2905 40.3582C45.725 39.9233 45.725 39.2184 45.2905 38.7839L43.7685 37.2619C44.526 35.9468 45.1062 34.5474 45.5002 33.0836H47.6502C48.2651 33.0836 48.7635 32.5852 48.7635 31.9703V25.0093C48.7635 24.3943 48.2651 23.896 47.6502 23.896H45.4997C45.1057 22.4326 44.526 21.0332 43.7685 19.7181L45.2823 18.2043C45.491 17.9956 45.6084 17.712 45.6084 17.4168C45.608 17.1215 45.4906 16.8379 45.2818 16.6292L40.3577 11.709C39.9233 11.2746 39.2184 11.2746 38.7835 11.7095L37.2719 13.2215C35.9568 12.464 34.5574 11.8838 33.0936 11.4898V9.35156C33.0936 8.73665 32.5952 8.23828 31.9803 8.23828H25.0193C24.4048 8.23828 23.906 8.73665 23.906 9.35156V11.4903C22.4426 11.8838 21.0432 12.464 19.7281 13.2215L18.2161 11.7095C17.7816 11.275 17.0767 11.2746 16.6418 11.709L11.7182 16.6296C11.509 16.8384 11.3916 17.1215 11.3916 17.4168C11.3916 17.712 11.509 17.9956 11.7177 18.2043L13.2315 19.7181C12.474 21.0332 11.8938 22.4322 11.4998 23.896H9.35374C8.73882 23.896 8.24046 24.3943 8.24046 25.0088L8.23654 31.9699C8.23611 32.2652 8.35352 32.5487 8.56226 32.7574C8.771 32.9662 9.05411 33.0836 9.34982 33.0836H11.4998C11.8938 34.5474 12.474 35.9468 13.2315 37.2619L11.7095 38.7839C11.275 39.2184 11.2746 39.9233 11.7095 40.3582L16.6296 45.2818C16.8384 45.4906 17.1215 45.6084 17.4168 45.6084H17.4172C17.7125 45.6084 17.9956 45.491 18.2043 45.2823L19.7277 43.7585C21.0432 44.516 22.4426 45.0962 23.906 45.4902V47.6484ZM20.1643 41.4171C19.7238 41.1323 19.1441 41.194 18.7727 41.565L17.4172 42.9205L14.0708 39.5715L15.425 38.2169C15.796 37.8459 15.8577 37.2662 15.5729 36.8257C14.5635 35.2636 13.8538 33.5515 13.4642 31.7363C13.3537 31.2236 12.9006 30.857 12.3757 30.857H10.4635L10.4661 26.1225H12.3757C12.9006 26.1225 13.3537 25.7564 13.4642 25.2432C13.8538 23.4285 14.5635 21.7164 15.5729 20.1543C15.8577 19.7138 15.796 19.1341 15.425 18.7631L14.0795 17.4172L17.4285 14.0708L18.7727 15.4155C19.1441 15.7864 19.7233 15.8477 20.1643 15.5633C21.7259 14.554 23.4381 13.8443 25.2532 13.4546C25.7659 13.3442 26.1325 12.8906 26.1325 12.3661V10.4648H30.867V12.3657C30.867 12.8906 31.2332 13.3442 31.7463 13.4542C33.5611 13.8443 35.2736 14.5535 36.8353 15.5629C37.2758 15.8477 37.8555 15.7864 38.2264 15.415L39.5711 14.0708L42.92 17.4172L41.5745 18.7627C41.2031 19.1341 41.1418 19.7138 41.4267 20.1543C42.436 21.7164 43.1453 23.4285 43.5354 25.2432C43.6454 25.7564 44.099 26.1225 44.6239 26.1225H46.5369V30.857H44.6239C44.099 30.857 43.6458 31.2236 43.5354 31.7363C43.1457 33.5511 42.436 35.2636 41.4267 36.8253C41.1418 37.2662 41.2036 37.8459 41.5745 38.2169L42.9287 39.5711L39.5824 42.92L38.2269 41.565C37.8555 41.1936 37.2758 41.1323 36.8353 41.4171C35.2732 42.4265 33.5611 43.1357 31.7463 43.5258C31.2332 43.6363 30.867 44.0894 30.867 44.6143V46.5352H26.1325V44.6143C26.1325 44.0899 25.7659 43.6363 25.2532 43.5258C23.4385 43.1362 21.7264 42.4265 20.1643 41.4171Z" fill="#F5F5F5"/>
<path d="M37.6989 28.5C37.6989 23.4276 33.5724 19.3011 28.5 19.3011C23.4276 19.3011 19.3011 23.4276 19.3011 28.5C19.3011 33.5724 23.4276 37.6989 28.5 37.6989C33.5724 37.6989 37.6989 33.5724 37.6989 28.5ZM21.5276 28.5C21.5276 24.6553 24.6553 21.5276 28.5 21.5276C32.3447 21.5276 35.4724 24.6557 35.4724 28.5C35.4724 32.3443 32.3447 35.4724 28.5 35.4724C24.6553 35.4724 21.5276 32.3447 21.5276 28.5Z" fill="#F5F5F5"/>
<path d="M38.7509 4.21046C39.044 4.21046 39.331 4.09131 39.538 3.88431C39.745 3.676 39.8642 3.38898 39.8642 3.09588C39.8642 2.80451 39.7454 2.51706 39.538 2.30875C39.331 2.10175 39.044 1.9826 38.7509 1.9826C38.4569 1.9826 38.1712 2.10175 37.9642 2.30875C37.7568 2.51706 37.6376 2.80321 37.6376 3.09588C37.6376 3.38985 37.7568 3.676 37.9642 3.88431C38.1712 4.09131 38.4569 4.21046 38.7509 4.21046Z" fill="#F5F5F5"/>
<path d="M18.2978 52.8095C18.0051 52.8095 17.7177 52.9287 17.5107 53.1357C17.3037 53.3427 17.1845 53.6301 17.1845 53.9228C17.1845 54.2168 17.3037 54.5029 17.5107 54.7099C17.7177 54.917 18.0051 55.0361 18.2978 55.0361C18.5905 55.0361 18.8779 54.917 19.0849 54.7099C19.2919 54.5029 19.4111 54.2155 19.4111 53.9228C19.4111 53.6301 19.2919 53.3427 19.0849 53.1357C18.8779 52.9287 18.5905 52.8095 18.2978 52.8095Z" fill="#F5F5F5"/>
</svg>
