<svg width="136" height="182" viewBox="0 0 136 182" fill="none" xmlns="http://www.w3.org/2000/svg">
<path d="M0 0V181.333H136V0H0ZM124.667 170H79.3333V136H56.6667V170H11.3333V11.3333H124.667V170Z" fill="#F8F9FA"/>
<path d="M22.6667 102H45.3333V124.667H22.6667V102ZM56.6667 102H79.3333V124.667H56.6667V102ZM90.6667 102H113.333V124.667H90.6667V102ZM22.6667 68H45.3333V90.6666H22.6667V68ZM56.6667 68H79.3333V90.6666H56.6667V68ZM90.6667 68H113.333V90.6666H90.6667V68ZM22.6667 34H45.3333V56.6666H22.6667V34ZM56.6667 34H79.3333V56.6666H56.6667V34ZM90.6667 34H113.333V56.6666H90.6667V34Z" fill="#F8F9FA"/>
</svg>
