<svg width="196" height="222" viewBox="0 0 196 222" fill="none" xmlns="http://www.w3.org/2000/svg">
<path d="M114.162 166.656H85.5874V221.591H114.162V166.656Z" fill="white" stroke="white" stroke-width="0.66964" stroke-miterlimit="2.61313"/>
<path fill-rule="evenodd" clip-rule="evenodd" d="M24.4502 88.8599C22.2351 139.688 47.3766 165.546 99.8748 166.656C150.822 166.323 174.635 140.909 171.423 90.1916C182.056 90.1916 132.991 89.8587 24.4502 88.9708V88.8599Z" stroke="white" stroke-width="11.85" stroke-miterlimit="2.61313"/>
<path d="M168.211 46.355H27.8836C15.8946 46.355 6.17554 54.9508 6.17554 65.5543V69.6606C6.17554 80.2641 15.8946 88.8599 27.8836 88.8599H168.211C180.2 88.8599 189.919 80.2641 189.919 69.6606V65.5543C189.919 54.9508 180.2 46.355 168.211 46.355Z" stroke="white" stroke-width="11.85" stroke-miterlimit="2.61313"/>
<path d="M63.104 10.0647C63.104 4.79359 59.137 0.520508 54.2435 0.520508C49.35 0.520508 45.3831 4.79359 45.3831 10.0647V36.9216C45.3831 42.1927 49.35 46.4658 54.2435 46.4658C59.137 46.4658 63.104 42.1927 63.104 36.9216V10.0647Z" fill="white" stroke="white" stroke-width="0.66964" stroke-miterlimit="2.61313"/>
<path d="M152.816 10.0647C152.816 4.79359 148.849 0.520508 143.956 0.520508C139.062 0.520508 135.095 4.79359 135.095 10.0647V36.9216C135.095 42.1927 139.062 46.4658 143.956 46.4658C148.849 46.4658 152.816 42.1927 152.816 36.9216V10.0647Z" fill="white" stroke="white" stroke-width="0.66964" stroke-miterlimit="2.61313"/>
</svg>
