<svg width="196" height="222" viewBox="0 0 196 222" fill="none" xmlns="http://www.w3.org/2000/svg">
<path d="M113.912 166.136H85.3369V221.07H113.912V166.136Z" fill="#0C4777"/>
<path fill-rule="evenodd" clip-rule="evenodd" d="M177.107 89.6416C177.206 87.8877 176.881 86.0713 175.885 84.7367C175.114 84.3011 174.004 83.9084 173.718 83.8456C173.577 83.82 173.352 83.7864 173.267 83.7761C173.12 83.7591 173.003 83.7514 172.967 83.749C172.914 83.7456 172.87 83.7434 172.842 83.7421C172.786 83.7395 172.737 83.7378 172.703 83.7367C172.633 83.7346 172.556 83.7328 172.481 83.7313C171.905 83.7196 170.397 83.7029 168.012 83.6805C163.207 83.6353 154.674 83.5659 142.423 83.4688C136.965 83.4256 130.769 83.3768 123.835 83.3223C99.6311 83.1318 66.4317 82.8706 24.2482 82.5255L24.2017 88.2104L18.2803 88.0814C17.1314 114.445 23.0366 135.469 37.142 150.008C51.2091 164.507 72.4016 171.487 99.4991 172.06L99.581 172.061L99.663 172.061C126.006 171.889 146.574 165.226 160.034 150.847C173.438 136.526 178.701 115.717 177.107 89.6416ZM29.9898 94.4228C29.9927 115.839 35.5079 131.306 45.647 141.756C56.7095 153.159 74.3109 159.661 99.6675 160.211C124.228 160.037 141.013 153.827 151.382 142.749C160.969 132.507 166.01 117.1 165.499 95.5081C160.472 95.4635 152.749 95.4011 142.329 95.3185C136.872 95.2752 130.676 95.2265 123.742 95.1719C100.666 94.9903 69.4111 94.7444 29.9898 94.4228Z" fill="#0C4777"/>
<path fill-rule="evenodd" clip-rule="evenodd" d="M0 65.0338C0 50.4951 13.0767 39.9095 27.6331 39.9095H167.961C182.517 39.9095 195.594 50.4951 195.594 65.0338V69.1401C195.594 83.6788 182.517 94.2644 167.961 94.2644H27.6331C13.0767 94.2644 0 83.6788 0 69.1401V65.0338ZM27.6331 51.7595C18.2115 51.7595 11.85 58.3655 11.85 65.0338V69.1401C11.85 75.8084 18.2115 82.4144 27.6331 82.4144H167.961C177.383 82.4144 183.744 75.8084 183.744 69.1401V65.0338C183.744 58.3655 177.383 51.7595 167.961 51.7595H27.6331Z" fill="#0C4777"/>
<path d="M62.8534 9.5442C62.8534 4.27308 58.8865 0 53.993 0C49.0995 0 45.1325 4.27308 45.1325 9.5442V36.4011C45.1325 41.6722 49.0995 45.9453 53.993 45.9453C58.8865 45.9453 62.8534 41.6722 62.8534 36.4011V9.5442Z" fill="#0C4777"/>
<path d="M152.565 9.5442C152.565 4.27308 148.598 0 143.705 0C138.811 0 134.844 4.27308 134.844 9.5442V36.4011C134.844 41.6722 138.811 45.9453 143.705 45.9453C148.598 45.9453 152.565 41.6722 152.565 36.4011V9.5442Z" fill="#0C4777"/>
</svg>
