<svg width="218" height="190" viewBox="0 0 218 190" fill="none" xmlns="http://www.w3.org/2000/svg">
<path d="M200.594 5H17.0724C10.405 5 5 11.4096 5 19.3163V155.155C5 163.061 10.405 169.471 17.0724 169.471H200.594C207.262 169.471 212.667 163.061 212.667 155.155V19.3163C212.667 11.4096 207.262 5 200.594 5Z" stroke="#0C4777" stroke-width="9.6" stroke-miterlimit="2.61313"/>
<path d="M47.3087 166.918H43.8752C39.9604 166.918 36.7869 168.111 36.7869 169.582V181.79C36.7869 183.261 39.9604 184.453 43.8752 184.453H47.3087C51.2234 184.453 54.397 183.261 54.397 181.79V169.582C54.397 168.111 51.2234 166.918 47.3087 166.918Z" stroke="#0C4777" stroke-width="9.6" stroke-miterlimit="2.61313"/>
<path d="M180.658 166.918H177.225C173.31 166.918 170.137 168.111 170.137 169.582V181.79C170.137 183.261 173.31 184.453 177.225 184.453H180.658C184.573 184.453 187.747 183.261 187.747 181.79V169.582C187.747 168.111 184.573 166.918 180.658 166.918Z" stroke="#0C4777" stroke-width="9.6" stroke-miterlimit="2.61313"/>
<path fill-rule="evenodd" clip-rule="evenodd" d="M169.804 56.3833C179.551 56.3833 187.415 64.0408 187.415 73.3631C187.415 80.3548 183.095 86.3476 176.893 88.9001V111.096C176.893 114.092 174.345 116.534 171.244 116.534H168.365C165.264 116.534 162.716 114.092 162.716 111.096V88.9001C156.514 86.2367 152.194 80.2438 152.194 73.3631C152.194 63.9299 160.058 56.3833 169.804 56.3833Z" stroke="#0C4777" stroke-width="9.6" stroke-miterlimit="2.61313"/>
<path d="M73.7794 127.41C97.1458 127.41 116.088 109.125 116.088 86.5695C116.088 64.0141 97.1458 45.7292 73.7794 45.7292C50.4129 45.7292 31.4707 64.0141 31.4707 86.5695C31.4707 109.125 50.4129 127.41 73.7794 127.41Z" stroke="#0C4777" stroke-width="9.6" stroke-miterlimit="2.61313"/>
<path d="M73.7795 95.3369C78.7953 95.3369 82.8614 91.4117 82.8614 86.5696C82.8614 81.7275 78.7953 77.8022 73.7795 77.8022C68.7636 77.8022 64.6975 81.7275 64.6975 86.5696C64.6975 91.4117 68.7636 95.3369 73.7795 95.3369Z" stroke="#0C4777" stroke-width="9.6" stroke-miterlimit="2.61313"/>
</svg>
