<svg width="283" height="255" viewBox="0 0 283 255" fill="none" xmlns="http://www.w3.org/2000/svg">
<path d="M27.6368 144.635C24.586 144.635 22.1095 147.107 22.1095 150.153C22.1095 153.199 24.586 155.672 27.6368 155.672C30.6877 155.672 33.1642 153.199 33.1642 150.153C33.1642 147.107 30.6877 144.635 27.6368 144.635Z" fill="#0C4777"/>
<path d="M254.047 163.77L201.939 181.655C202.17 180.375 202.299 179.069 202.299 177.743C202.299 165.572 192.383 155.67 180.19 155.67H144.396C143.446 155.67 142.509 155.426 141.682 154.96L112.48 138.563C106.706 135.314 100.145 133.596 93.5053 133.596H54.3215C52.0415 127.174 45.8966 122.561 38.6916 122.561H5.52737C2.47436 122.561 0 125.032 0 128.08V227.408C0 230.456 2.47436 232.927 5.52737 232.927H38.6916C45.7325 232.927 51.7694 228.51 54.166 222.306C60.4232 223.082 67.6627 224.929 72.212 227.654L101.118 244.97C112.07 251.532 124.608 255 137.381 255C147.503 255 157.31 252.879 166.531 248.697L269.697 203.345C281.123 198.717 286.765 185.031 280.233 172.968C275.429 164.091 264.178 160.142 254.047 163.77ZM44.2189 216.397C44.206 219.428 41.7295 221.89 38.6916 221.89H11.0547V133.598H38.6916C41.7381 133.598 44.2189 136.073 44.2189 139.117V216.397ZM265.497 193.138C265.439 193.16 265.381 193.186 265.322 193.209C265.322 193.209 162.004 238.628 161.984 238.637C154.201 242.172 145.922 243.963 137.381 243.963C126.611 243.963 116.04 241.04 106.808 235.507L77.8992 218.191C71.7111 214.485 62.8501 212.226 55.2737 211.321V144.635H93.5053C98.2468 144.635 102.932 145.859 107.058 148.181L136.26 164.579C138.735 165.971 141.55 166.708 144.396 166.708H180.19C186.285 166.708 191.245 171.658 191.245 177.745C191.245 183.809 186.283 188.782 180.19 188.782H124.001C120.948 188.782 118.474 191.252 118.474 194.3C118.474 197.346 120.948 199.816 124.001 199.816H180.19C183.815 199.816 187.384 198.917 190.552 197.232C190.552 197.232 257.733 174.175 257.759 174.167C262.712 172.382 268.313 174.158 270.508 178.215C273.801 184.296 271.078 190.907 265.497 193.138Z" fill="#0C4777"/>
<path d="M160.982 133.85C162.023 134.749 163.312 135.198 164.603 135.198C165.894 135.198 167.186 134.749 168.224 133.85C213.322 94.8296 241.218 75.082 241.218 44.3948C241.218 20.1183 224.003 0 199.819 0C183.936 0 171.774 9.13978 163.94 22.8559C156.124 9.16996 143.975 0 128.069 0C109.554 0 94.0754 11.9787 88.6344 30.5148C87.775 33.44 89.4548 36.5052 92.3848 37.3632C95.3147 38.2211 98.385 36.544 99.2421 33.6189C103.269 19.9006 114.583 11.0367 128.069 11.0367C143.837 11.0367 154.898 25.0158 158.614 38.0314C159.277 40.422 161.457 42.0775 163.94 42.0775C166.426 42.0775 168.604 40.422 169.267 38.0314C169.343 37.762 177.02 11.0367 199.819 11.0367C217.118 11.0367 230.163 25.3758 230.163 44.3948C230.163 68.9429 206.128 86.6404 164.599 122.389C139.296 100.695 119.197 85.4247 107.773 70.4863C105.92 68.0634 102.453 67.5978 100.026 69.4473C97.599 71.2968 97.1348 74.7587 98.9852 77.1838C111.862 94.0212 133.6 110.154 160.982 133.85Z" fill="#0C4777"/>
<path d="M93.4125 48.6155C90.3617 48.6155 87.8851 51.0879 87.8851 54.1338C87.8851 57.1797 90.3617 59.6522 93.4125 59.6522C96.4633 59.6522 98.9399 57.1797 98.9399 54.1338C98.9399 51.0879 96.4633 48.6155 93.4125 48.6155Z" fill="#0C4777"/>
</svg>
