<svg width="36" height="40" viewBox="0 0 36 40" fill="none" xmlns="http://www.w3.org/2000/svg">
<path d="M29.1046 24.6501V19.4527C29.1046 19.021 28.7529 18.6711 28.3191 18.6711C27.8853 18.6711 27.5335 19.021 27.5335 19.4527V24.6498C20.6183 25.3769 18.0875 34.2508 23.6517 38.4357H1.57113V4.84567H5.62424V6.4153C5.62424 7.69189 6.66802 8.73046 7.95092 8.73046H21.1537C22.4366 8.73046 23.4804 7.69189 23.4804 6.4153V4.84567H27.5335V12.5769C27.5712 13.6108 29.0657 13.614 29.1046 12.5769V4.06402C29.1046 3.63231 28.7529 3.28237 28.3191 3.28237L18.5826 3.28214C17.6577 -1.09557 11.4453 -1.09252 10.5221 3.28214L0.785563 3.28237C0.351775 3.28237 0 3.63231 0 4.06402V39.2174C0 39.6491 0.351775 39.999 0.785563 39.999C0.787056 40.0021 28.3168 39.9967 28.3191 39.9991C38.0844 39.7061 38.7473 25.9037 29.1046 24.6501ZM7.19552 4.84543H11.2323C11.6661 4.84543 12.0179 4.49549 12.0179 4.06378C12.1454 0.722547 16.9601 0.723954 17.0869 4.06378C17.0869 4.49549 17.4386 4.84543 17.8724 4.84543H21.9091V6.41467C21.9091 6.82941 21.5701 7.16678 21.1533 7.16678H7.95139C7.53457 7.16678 7.19552 6.82941 7.19552 6.41467V4.84543ZM28.3201 38.4357C20.1499 38.0296 20.1594 26.5746 28.3226 26.174C36.4845 26.4873 36.4761 38.1285 28.3201 38.4357Z" fill="white"/>
<path d="M23.3234 11.8466H14.6361C13.5949 11.885 13.5957 13.3718 14.6361 13.4099H23.3234C24.3646 13.3714 24.3638 11.8847 23.3234 11.8466Z" fill="white"/>
<path d="M23.3234 15.2332H14.6361C13.5949 15.2716 13.5957 16.7584 14.6361 16.7965H23.3234C24.3646 16.758 24.3638 15.2712 23.3234 15.2332Z" fill="white"/>
<path d="M24.109 21.6796C24.109 21.2479 23.7572 20.8979 23.3234 20.8979H14.6361C13.5949 20.9364 13.5957 22.4232 14.6361 22.4612H23.3234C23.7572 22.4612 24.109 22.1113 24.109 21.6796Z" fill="white"/>
<path d="M21.7801 25.0661C21.7801 24.6344 21.4284 24.2844 20.9946 24.2844H14.6361C13.5949 24.3229 13.5957 25.8097 14.6361 25.8477H20.9946C21.4284 25.8477 21.7801 25.4978 21.7801 25.0661Z" fill="white"/>
<path d="M11.4351 11.9578C11.4351 11.5261 11.0834 11.1762 10.6496 11.1762H5.68763C5.25385 11.1762 4.90207 11.5261 4.90207 11.9578V16.7388C4.90207 17.1705 5.25385 17.5204 5.68763 17.5204H10.6496C11.0834 17.5204 11.4351 17.1705 11.4351 16.7388V11.9578ZM9.864 15.957H6.4732V12.7394H9.864V15.957Z" fill="white"/>
<path d="M11.4351 20.9824C11.4351 20.5507 11.0834 20.2008 10.6496 20.2008H5.68763C5.25385 20.2008 4.90207 20.5507 4.90207 20.9824V25.7633C4.90207 26.195 5.25385 26.545 5.68763 26.545H10.6496C11.0834 26.545 11.4351 26.195 11.4351 25.7633V20.9824ZM9.864 24.9817H6.4732V21.7641H9.864V24.9817Z" fill="white"/>
<path d="M10.6496 29.2644H5.68763C5.25385 29.2644 4.90207 29.6143 4.90207 30.046V34.7487C4.90207 35.1805 5.25385 35.5304 5.68763 35.5304H10.6496C11.0834 35.5304 11.4351 35.1805 11.4351 34.7487V30.046C11.4351 29.6143 11.0834 29.2644 10.6496 29.2644ZM9.864 33.9671H6.4732V30.8277H9.864V33.9671Z" fill="white"/>
<path d="M18.1518 29.9616H14.6361C13.5949 30.0001 13.5957 31.4868 14.6361 31.5249H18.1518C19.193 31.4865 19.1922 29.9997 18.1518 29.9616Z" fill="white"/>
<path d="M18.1518 33.3481H14.6361C13.5949 33.3866 13.5957 34.8733 14.6361 34.9114H18.1518C19.193 34.873 19.1922 33.3863 18.1518 33.3481Z" fill="white"/>
<path d="M13.8271 4.48713C13.9917 4.88022 14.4569 5.07321 14.853 4.91C15.7948 4.46798 15.2319 3.11643 14.2521 3.46629C13.8569 3.62864 13.6624 4.09411 13.8271 4.48713Z" fill="white"/>
<path d="M29.0442 15.6467C28.8795 15.2536 28.4144 15.0607 28.0183 15.2239C27.0765 15.666 27.6394 17.0174 28.6192 16.6676C29.0162 16.5045 29.2064 16.0408 29.0442 15.6467Z" fill="white"/>
<path d="M29.2148 31.5429C29.1253 31.5114 29.0378 31.4811 28.9524 31.4515C28.4613 31.2814 27.9536 31.1054 27.796 30.9341C27.4962 30.608 27.6975 30.1283 28.0718 29.9764C28.5432 29.785 28.8771 30.0737 28.9552 30.1512C29.6762 30.8892 30.7844 29.8953 30.1203 29.1053L30.122 29.1038C29.9135 28.8729 29.5432 28.5954 29.0658 28.4484V28.092C29.0272 27.0562 27.533 27.0566 27.4946 28.092V28.5227C27.489 28.5249 27.4836 28.5267 27.4781 28.529C26.782 28.8117 26.291 29.3805 26.1308 30.0896C25.9776 30.768 26.1668 31.4783 26.6369 31.9895C27.0622 32.4519 27.6986 32.6724 28.4356 32.9277C28.8607 33.0752 29.2671 33.2786 29.1796 33.7963C29.1178 34.1623 28.8082 34.5577 28.2749 34.5612C27.6842 34.565 27.5303 34.5411 27.0911 34.2551C26.201 33.7184 25.3807 34.9674 26.231 35.5632C26.7264 35.8858 27.0993 36.029 27.5335 36.0879V36.5464C27.5721 37.5821 29.0663 37.5818 29.1046 36.5464V35.9857C30.0132 35.6688 30.5935 34.8569 30.729 34.0554C30.9179 32.9377 30.3093 31.9279 29.2148 31.5429Z" fill="white"/>
</svg>
