<svg width="52" height="54" viewBox="0 0 52 54" fill="none" xmlns="http://www.w3.org/2000/svg">
<path d="M51.4201 38.6508C50.4196 37.1705 48.7225 36.809 46.8789 37.6825L45.9017 38.1157C47.4424 34.8092 47.6336 31.1234 46.8666 27.6418C45.9857 23.6432 43.8581 19.7695 40.5429 16.1284C40.2498 15.8064 39.7529 15.7847 39.433 16.0799C39.1132 16.375 39.0916 16.8752 39.3848 17.1973C42.5113 20.631 44.5125 24.2603 45.3329 27.9843C46.197 31.907 45.6943 35.9524 43.4892 39.1851L33.7113 43.5198L33.7194 42.408C33.7196 42.3799 33.7183 42.3519 33.7155 42.3239C33.4897 40.0387 31.7548 38.218 29.4965 37.8963C29.4898 37.8953 29.4831 37.8944 29.4762 37.8937L20.7858 36.8862C17.4441 36.4073 16.5835 34.391 12.0577 33.2413C11.745 30.5698 12.1618 27.7254 13.3043 24.8738C15.0248 20.5793 18.3909 16.4069 23.0572 12.7753C24.7964 14.0169 32.5558 14.1714 34.2922 12.5697C35.1817 13.2499 36.0307 13.9509 36.8216 14.6604C36.9713 14.7947 37.158 14.8607 37.3439 14.8607C37.5601 14.8607 37.7755 14.7714 37.9306 14.596C38.2192 14.2699 38.1905 13.77 37.8666 13.4794C36.9997 12.7018 36.0672 11.9345 35.0891 11.1929C35.3183 10.2144 34.9976 9.06911 34.1512 8.38735C36.6107 4.63138 37.326 2.17299 36.3379 0.885001C35.6592 0.000218467 34.8149 0.415451 34.4543 0.592851C33.8432 0.893227 33.51 0.909048 32.9477 0.53864C31.8749 -0.168111 30.7473 -0.190892 29.64 0.53864C29.0705 0.913794 28.6221 0.913794 28.0529 0.53864C26.98 -0.168111 25.8528 -0.190892 24.7453 0.53864C24.1765 0.913478 23.842 0.890274 23.2405 0.589265C22.8804 0.409018 22.037 -0.0130707 21.354 0.871817C20.3881 2.12353 21.0343 4.50439 23.3279 8.13264C23.1874 8.20911 23.0535 8.29886 22.9286 8.40138C22.0164 7.43148 20.5219 6.41993 18.3606 6.66293C16.5679 6.8649 15.2461 6.26847 14.4527 5.73269C14.0923 5.48969 13.6044 5.58651 13.3628 5.94911C13.1213 6.31193 13.2175 6.8032 13.5778 7.04641C14.5892 7.72912 16.27 8.48913 18.5349 8.23484C20.2047 8.04626 21.3377 8.90542 22.043 9.77976C22.0333 9.81351 22.0244 9.84747 22.0162 9.88143C21.4146 9.89092 20.5155 9.94745 19.5253 10.1548C17.1441 10.6536 15.3765 11.793 14.4135 13.4501C14.1945 13.827 14.3204 14.3116 14.6948 14.5322C15.0692 14.7527 15.5504 14.6259 15.7694 14.2489C17.2018 11.7842 20.6981 11.4828 22.0869 11.4639C22.0928 11.4813 22.0998 11.4985 22.1061 11.5158C17.1505 15.3647 13.7003 19.657 11.8475 24.2818C10.6763 27.2051 10.2085 30.1338 10.446 32.917C9.69269 32.8048 8.93072 32.7445 8.16508 32.7393V32.261C8.16508 30.9954 7.14248 29.966 5.88555 29.966H2.27953C1.0226 29.966 0 30.9956 0 32.261V50.6806C0 51.9462 1.0226 52.9757 2.27953 52.9757H5.88544C7.14237 52.9757 8.16497 51.9461 8.16497 50.6806V50.4553L16.031 53.403C17.088 53.7991 18.1959 54 19.3238 54H31.0442C32.8361 54 34.5833 53.4895 36.0967 52.524C51.7321 42.5444 50.7826 43.1653 50.8729 43.0848C52.1323 41.9592 52.3676 40.0529 51.4201 38.6508ZM32.8181 11.6325C29.9455 12.3628 27.1526 12.3628 24.2794 11.6325C23.0466 11.3188 23.4038 9.10497 24.7287 9.43951C27.2992 10.0892 29.7981 10.0892 32.3688 9.43951C33.6707 9.11045 34.0707 11.3138 32.8181 11.6325ZM22.5231 1.99675C22.5292 1.99981 22.5354 2.00298 22.5413 2.00593C23.6044 2.53792 24.536 2.56682 25.6054 1.86239C26.9437 0.980345 27.089 2.39458 28.8463 2.39458C29.6922 2.39458 30.1591 2.08704 30.5 1.86239C31.0695 1.48713 31.5181 1.48734 32.0875 1.86239C33.1617 2.57008 34.0707 2.53517 35.1648 2.00393C35.3264 2.59055 34.9606 4.33933 32.6313 7.831C31.4746 7.81117 29.7961 8.95499 25.0442 7.89027C22.72 4.35347 22.3606 2.5877 22.5231 1.99675ZM49.8725 41.8631L35.2559 51.1884C33.9943 51.9932 32.538 52.4188 31.0443 52.4188H19.3239C18.3837 52.4188 17.4602 52.2513 16.5791 51.9211L8.16497 48.7679V40.2507C8.16497 39.8138 7.81332 39.4598 7.37954 39.4598C6.94575 39.4598 6.5941 39.8138 6.5941 40.2507V50.681C6.5941 51.0744 6.27617 51.3944 5.88555 51.3944H2.27953C1.8888 51.3944 1.57098 51.0743 1.57098 50.681V32.2614C1.57098 31.868 1.8888 31.5481 2.27953 31.5481H5.88544C6.27617 31.5481 6.59399 31.8681 6.59399 32.2614V36.5534C6.59399 36.9902 6.94565 37.3443 7.37943 37.3443C7.81321 37.3443 8.16487 36.9902 8.16487 36.5534V34.3214C14.6628 34.3715 16.1238 37.8198 20.5756 38.4538C20.5823 38.4549 20.589 38.4557 20.5957 38.4565L29.2857 39.4638C30.8073 39.685 31.9784 40.9049 32.1479 42.4409L32.137 43.9453H24.0328C23.599 43.9453 23.2472 44.2994 23.2472 44.7362C23.2472 45.1731 23.5989 45.5271 24.0328 45.5271H32.9167C33.0159 45.5271 33.1306 45.505 33.2303 45.4612C33.2463 45.454 47.5042 39.1336 47.5209 39.1262C48.5486 38.6663 49.4856 38.6006 50.1211 39.5408C50.6151 40.2714 50.5057 41.2591 49.8725 41.8631Z" fill="#F5F5F5"/>
<path d="M28.7558 35.8829C29.1895 35.8829 29.5413 35.5288 29.5413 35.092V33.781C31.7465 33.4207 33.0331 31.6236 33.313 29.9471C33.6627 27.8528 32.5732 26.0314 30.5374 25.307C30.1777 25.1789 29.8466 25.0565 29.5412 24.9382V19.8955C30.4705 20.0507 31.0284 20.5349 31.069 20.5711C31.3881 20.8632 31.8819 20.8416 32.1747 20.522C32.4688 20.201 32.4487 19.7006 32.1298 19.4045C32.0744 19.353 31.1124 18.4809 29.5412 18.2985V17.1738C29.5412 16.7369 29.1895 16.3829 28.7556 16.3829C28.3219 16.3829 27.9702 16.7369 27.9702 17.1738V18.3624C27.7808 18.3989 27.5868 18.4453 27.3875 18.5058C26.055 18.9098 25.059 20.0602 24.788 21.5077C24.5422 22.8214 24.9558 24.0847 25.8675 24.8046C26.391 25.2179 27.0499 25.5964 27.9702 26.0009V32.2554C27.0618 32.2167 26.5026 32.045 25.5272 31.4025C25.1642 31.1635 24.6773 31.2657 24.4398 31.6313C24.2023 31.9968 24.3041 32.487 24.6671 32.7261C25.9494 33.5707 26.8066 33.791 27.9702 33.8366V35.092C27.9702 35.5288 28.3219 35.8829 28.7558 35.8829ZM26.8371 23.5601C26.3886 23.2059 26.195 22.5317 26.3319 21.8007C26.4588 21.1228 26.9217 20.2991 27.8406 20.0204C27.8843 20.0071 27.9273 19.9957 27.9702 19.9841V24.2562C27.4999 24.0197 27.131 23.7922 26.8371 23.5601ZM30.0138 26.7983C31.9685 27.4939 31.8474 29.1837 31.7637 29.685C31.5905 30.7229 30.8337 31.831 29.5412 32.1645V26.6269C29.6941 26.6832 29.8503 26.7401 30.0138 26.7983Z" fill="#F5F5F5"/>
</svg>
