<svg width="211" height="211" viewBox="0 0 211 211" fill="none" xmlns="http://www.w3.org/2000/svg">
<path d="M167.042 120.599C164.614 120.599 162.646 118.63 162.646 116.203V8.79167H48.3542V116.203C48.3542 118.63 46.3862 120.599 43.9583 120.599C41.5305 120.599 39.5625 118.63 39.5625 116.203V67.2606L35.9909 63.5747L39.5625 56.97V4.39583C39.5625 1.96801 41.5305 0 43.9583 0H167.042C169.469 0 171.437 1.96801 171.437 4.39583V56.97L174.221 62.9338L171.437 67.2606V116.203C171.437 118.63 169.469 120.599 167.042 120.599Z" fill="#F8F9FA"/>
<path d="M149.458 96.7083H61.5417C59.1138 96.7083 57.1458 94.7403 57.1458 92.3125C57.1458 89.8847 59.1138 87.9167 61.5417 87.9167H149.458C151.886 87.9167 153.854 89.8847 153.854 92.3125C153.854 94.7403 151.886 96.7083 149.458 96.7083Z" fill="#F8F9FA"/>
<path d="M149.458 74.7292H61.5417C59.1138 74.7292 57.1458 72.7612 57.1458 70.3333C57.1458 67.9055 59.1138 65.9375 61.5417 65.9375H149.458C151.886 65.9375 153.854 67.9055 153.854 70.3333C153.854 72.7612 151.886 74.7292 149.458 74.7292Z" fill="#F8F9FA"/>
<path d="M149.458 52.75H61.5417C59.1138 52.75 57.1458 50.782 57.1458 48.3542C57.1458 45.9263 59.1138 43.9583 61.5417 43.9583H149.458C151.886 43.9583 153.854 45.9263 153.854 48.3542C153.854 50.782 151.886 52.75 149.458 52.75Z" fill="#F8F9FA"/>
<path d="M109.896 30.7708H61.5417C59.1138 30.7708 57.1458 28.8028 57.1458 26.375C57.1458 23.9472 59.1138 21.9792 61.5417 21.9792H109.896C112.323 21.9792 114.292 23.9472 114.292 26.375C114.292 28.8028 112.323 30.7708 109.896 30.7708Z" fill="#F8F9FA"/>
<path d="M208.921 79.7888C208.876 79.7439 209.457 80.1114 171.437 56.97V67.2606L199.043 84.0659C167.679 109.975 105.587 161.268 105.5 161.34C99.9718 156.773 13.8798 85.6546 11.9567 84.0659L39.5625 67.2606V56.97L2.11 79.7668C1.266 80.0481 0 81.7295 0 83.5208V206.604C0 208.974 1.93241 211 4.38704 211H206.609C209.111 211 211 208.92 211 206.604V83.5208C211 82.0403 210.22 80.584 208.921 79.7888ZM8.79167 92.8532C8.84705 92.8989 65.2078 139.456 65.2737 139.511L8.79167 195.993V92.8532ZM15.0074 202.208L72.0785 145.137L102.7 170.431C104.326 171.772 106.674 171.772 108.3 170.431L138.922 145.137L195.993 202.208H15.0074ZM202.208 195.993L145.726 139.511C145.846 139.412 199.003 95.5008 202.208 92.8532V195.993Z" fill="#F8F9FA"/>
</svg>
