<svg width="259" height="259" viewBox="0 0 259 259" fill="none" xmlns="http://www.w3.org/2000/svg">
<path d="M242.273 259H70.1458C67.1657 259 64.75 256.584 64.75 253.604C64.75 250.625 67.1657 248.208 70.1458 248.208H242.273C245.545 248.208 248.208 245.545 248.208 242.273V81.4771C248.208 78.2045 245.545 75.5417 242.273 75.5417H194.25C191.27 75.5417 188.854 73.126 188.854 70.1458C188.854 67.1657 191.27 64.75 194.25 64.75H242.273C251.496 64.75 259 72.254 259 81.4771V242.273C259 251.497 251.496 259 242.273 259Z" fill="#F8F9FA"/>
<path d="M118.708 75.5417H70.1458C67.1657 75.5417 64.75 73.126 64.75 70.1458C64.75 67.1657 67.1657 64.75 70.1458 64.75H118.708C121.688 64.75 124.104 67.1657 124.104 70.1458C124.104 73.126 121.688 75.5417 118.708 75.5417Z" fill="#F8F9FA"/>
<path d="M221.229 151.083H102.521C99.5407 151.083 97.125 148.667 97.125 145.688V91.7292C97.125 88.7491 99.5407 86.3333 102.521 86.3333H221.229C224.209 86.3333 226.625 88.7491 226.625 91.7292V145.688C226.625 148.667 224.209 151.083 221.229 151.083ZM107.917 140.292H215.833V97.125H107.917V140.292Z" fill="#F8F9FA"/>
<path d="M129.5 194.25H107.917C104.937 194.25 102.521 191.834 102.521 188.854V167.271C102.521 164.291 104.937 161.875 107.917 161.875H129.5C132.48 161.875 134.896 164.291 134.896 167.271V188.854C134.896 191.834 132.48 194.25 129.5 194.25ZM113.312 183.458H124.104V172.667H113.312V183.458Z" fill="#F8F9FA"/>
<path d="M172.667 194.25H151.083C148.103 194.25 145.688 191.834 145.688 188.854V167.271C145.688 164.291 148.103 161.875 151.083 161.875H172.667C175.647 161.875 178.063 164.291 178.063 167.271V188.854C178.063 191.834 175.647 194.25 172.667 194.25ZM156.479 183.458H167.271V172.667H156.479V183.458Z" fill="#F8F9FA"/>
<path d="M215.833 194.25H194.25C191.27 194.25 188.854 191.834 188.854 188.854V167.271C188.854 164.291 191.27 161.875 194.25 161.875H215.833C218.813 161.875 221.229 164.291 221.229 167.271V188.854C221.229 191.834 218.813 194.25 215.833 194.25ZM199.646 183.458H210.438V172.667H199.646V183.458Z" fill="#F8F9FA"/>
<path d="M129.5 237.417H107.917C104.937 237.417 102.521 235 102.521 232.021V210.438C102.521 207.458 104.937 205.042 107.917 205.042H129.5C132.48 205.042 134.896 207.458 134.896 210.438V232.021C134.896 235 132.48 237.417 129.5 237.417ZM113.312 226.625H124.104V215.833H113.312V226.625Z" fill="#F8F9FA"/>
<path d="M172.667 237.417H151.083C148.103 237.417 145.688 235 145.688 232.021V210.438C145.688 207.458 148.103 205.042 151.083 205.042H172.667C175.647 205.042 178.063 207.458 178.063 210.438V232.021C178.063 235 175.647 237.417 172.667 237.417ZM156.479 226.625H167.271V215.833H156.479V226.625Z" fill="#F8F9FA"/>
<path d="M215.833 237.417H194.25C191.27 237.417 188.854 235 188.854 232.021V210.438C188.854 207.458 191.27 205.042 194.25 205.042H215.833C218.813 205.042 221.229 207.458 221.229 210.438V232.021C221.229 235 218.813 237.417 215.833 237.417ZM199.646 226.625H210.438V215.833H199.646V226.625Z" fill="#F8F9FA"/>
<path d="M194.25 75.5417H118.708C115.728 75.5417 113.313 73.126 113.313 70.1458V5.39583C113.313 2.41571 115.728 0 118.708 0H194.25C197.23 0 199.646 2.41571 199.646 5.39583V70.1458C199.646 73.126 197.23 75.5417 194.25 75.5417ZM124.104 64.75H188.854V10.7917H124.104V64.75Z" fill="#F8F9FA"/>
<path d="M48.5625 210.438C33.6862 210.438 21.5833 198.335 21.5833 183.458V26.9792C21.5833 12.1029 33.6862 0 48.5625 0C63.4388 0 75.5417 12.1029 75.5417 26.9792V183.458C75.5417 198.335 63.4388 210.438 48.5625 210.438ZM48.5625 10.7917C39.6367 10.7917 32.375 18.0534 32.375 26.9792V183.458C32.375 192.384 39.6367 199.646 48.5625 199.646C57.4883 199.646 64.75 192.384 64.75 183.458V26.9792C64.75 18.0534 57.4883 10.7917 48.5625 10.7917Z" fill="#F8F9FA"/>
<path d="M70.1458 259H5.39583C2.41571 259 0 256.584 0 253.604V70.1458C0 67.1657 2.41571 64.75 5.39583 64.75H26.9792C29.9593 64.75 32.375 67.1657 32.375 70.1458C32.375 73.126 29.9593 75.5417 26.9792 75.5417H10.7917V248.208H70.1458C73.126 248.208 75.5417 250.625 75.5417 253.604C75.5417 256.584 73.126 259 70.1458 259Z" fill="#F8F9FA"/>
</svg>
