<svg width="20" height="19" viewBox="0 0 20 19" fill="none" xmlns="http://www.w3.org/2000/svg">
<path d="M19.3749 0H0.624998C0.459238 0 0.300267 0.069027 0.183058 0.191896C0.0658478 0.314764 0 0.48141 0 0.655172V1.74931C0.000116863 1.90405 0.0294462 2.05724 0.0862977 2.20005C0.143149 2.34285 0.226399 2.47245 0.331249 2.58138L7.49997 10.2076V16.8903L8.74997 17.3883V9.82759C8.75045 9.74136 8.73468 9.65588 8.70358 9.57606C8.67247 9.49624 8.62665 9.42363 8.56872 9.36241L1.25 1.6969V1.31034H18.7499V1.71L11.4562 9.36241C11.3938 9.42142 11.3433 9.49303 11.3079 9.57296C11.2724 9.65289 11.2527 9.73949 11.25 9.82759V18.4824L12.5 19V10.1552L19.6687 2.62069C19.7752 2.509 19.8594 2.37613 19.9163 2.22987C19.9732 2.0836 20.0016 1.9269 19.9999 1.76897V0.655172C19.9999 0.48141 19.9341 0.314764 19.8169 0.191896C19.6997 0.069027 19.5407 0 19.3749 0Z" fill="white"/>
</svg>
