<svg width="45" height="58" viewBox="0 0 45 58" fill="none" xmlns="http://www.w3.org/2000/svg">
<path d="M15.5663 58C14.9153 58 14.387 57.4592 14.387 56.7928V54.6922C14.387 53.9461 14.1653 53.229 13.7479 52.6158L11.3729 49.1462C9.98847 47.1181 8.81631 44.9861 7.88943 42.8131C6.72199 40.0775 4.20314 34.9106 0.420148 31.0354C0.290432 30.9026 0.193735 30.7408 0.134773 30.5646C0.0828866 30.4076 -0.33928 28.9855 0.639486 27.5948C1.68665 26.1099 3.87767 25.3542 7.14887 25.3542C10.2055 25.3542 12.6205 27.3727 14.2243 29.2873V7.24336C14.2243 4.58022 16.3398 2.41445 18.9412 2.41445C19.9129 2.41445 20.8139 2.71626 21.5639 3.23295C22.2101 1.35209 23.9624 0 26.0167 0C28.0709 0 29.8232 1.35209 30.4694 3.23295C31.2194 2.71626 32.1227 2.41445 33.0921 2.41445C35.6935 2.41445 37.809 4.58022 37.809 7.24336V12.7218C38.5024 12.3089 39.309 12.0723 40.1675 12.0723C42.8844 12.0723 45 14.238 45 16.9012V33.8023L44.7854 38.4912C44.5472 43.6485 42.625 48.6561 39.3703 52.594C38.8515 53.2218 38.5637 54.0234 38.5637 54.8467V56.7904C38.5637 57.4568 38.0354 57.9976 37.3845 57.9976C36.7336 57.9976 36.2053 57.4568 36.2053 56.7904V54.8467C36.2053 53.4536 36.6911 52.0991 37.5685 51.0343C40.4906 47.502 42.217 43.0087 42.4293 38.3802L42.6415 33.7468V16.9012C42.6415 15.5684 41.5826 14.4867 40.2831 14.4867C38.868 14.4867 37.809 15.5684 37.809 16.9012V31.3879C37.809 32.0543 37.2807 32.5951 36.6298 32.5951C35.9788 32.5951 35.4505 32.0543 35.4505 31.3879V7.24336C35.4505 5.91058 34.3916 4.82891 33.0921 4.82891C31.7926 4.82891 30.7336 5.91058 30.7336 7.24336V31.3879C30.7336 32.0543 30.2053 32.5951 29.5544 32.5951C28.9034 32.5951 28.3751 32.0543 28.3751 31.3879V4.82891C28.3751 3.49613 27.3162 2.41445 26.0167 2.41445C24.7171 2.41445 23.6582 3.49613 23.6582 4.82891V31.3879C23.6582 32.0543 23.1299 32.5951 22.4789 32.5951C21.828 32.5951 21.2997 32.0543 21.2997 31.3879V7.24336C21.2997 5.91058 20.2408 4.82891 18.9412 4.82891C17.6417 4.82891 16.5828 5.91058 16.5828 7.24336V33.1987C16.5828 33.7565 16.2054 34.2442 15.6748 34.3722C15.1441 34.5001 14.5946 34.237 14.3493 33.7347C14.3186 33.6768 11.3823 27.7638 7.14887 27.7638C3.83758 27.7638 2.84466 28.6113 2.57343 28.9734C2.39891 29.2052 2.35881 29.4394 2.35645 29.606C6.06397 33.5078 8.58046 38.3946 10.0498 41.8425C10.9154 43.873 12.0097 45.8625 13.3045 47.7579L15.6795 51.2275C16.3752 52.2488 16.7455 53.4463 16.7455 54.6898V56.7904C16.7455 57.4592 16.2172 58 15.5663 58Z" fill="white"/>
</svg>
