<svg xmlns="http://www.w3.org/2000/svg" xml:space="preserve" width="35.074" height="33.868" style="shape-rendering:geometricPrecision;text-rendering:geometricPrecision;image-rendering:optimizeQuality;fill-rule:evenodd;clip-rule:evenodd" viewBox="0 0 31.96 30.86">
    <path d="M15.98 0c8.83 0 15.98 6.91 15.98 15.43s-7.15 15.43-15.98 15.43C7.16 30.86 0 23.95 0 15.43S7.15 0 15.98 0z" style="fill:#024269"/>
    <path d="M15.89 5.19c1.68 0 3.04 1.36 3.04 3.04s-1.36 3.04-3.04 3.04-3.04-1.36-3.04-3.04 1.36-3.04 3.04-3.04zM12.66 22.2c.76-4.35 1.13-6.52 1.13-6.52.11-.9-.23-1-.99-1.1-1.01-.17-1.78-1.28 0-1.44 2.64 0 3.4-.1 3.97 0 .25.05 2.01.2 1.42 2.53-.95 4.68-1.31 7.05-1.23 7.23.24 1.15.89.75 1.99.47 1.51-.51 1.62-.1.54 1.03-1.61 1.34-3.38 1.64-5.55.76 0 0-.09-.04-.17-.08-1.14-.46-1.4-1.48-1.11-2.88z" style="fill:#fff"/>
</svg>
