
<svg xmlns="http://www.w3.org/2000/svg" xml:space="preserve" width="0.365358in" height="0.352795in" version="1.1" style="shape-rendering:geometricPrecision; text-rendering:geometricPrecision; image-rendering:optimizeQuality; fill-rule:evenodd; clip-rule:evenodd"
viewBox="0 0 31.96 30.86"
 xmlns:xlink="http://www.w3.org/1999/xlink"
 xmlns:xodm="http://www.corel.com/coreldraw/odm/2003">
 <defs>
  <style type="text/css">
   <![CDATA[
    .fil0 {fill:#024269}
    .fil2 {fill:white}
    .fil1 {fill:white}
   ]]>
  </style>
 </defs>
 <g id="Layer_x0020_1">
  <metadata id="CorelCorpID_0Corel-Layer"/>
  <g id="_2048841038432">
   <path class="fil0" d="M15.98 0c8.83,0 15.98,6.91 15.98,15.43 0,8.52 -7.15,15.43 -15.98,15.43 -8.82,0 -15.98,-6.91 -15.98,-15.43 0,-8.52 7.15,-15.43 15.98,-15.43z"/>
   <g>
    <path class="fil1" d="M15.89 5.19c1.68,0 3.04,1.36 3.04,3.04 0,1.68 -1.36,3.04 -3.04,3.04 -1.68,0 -3.04,-1.36 -3.04,-3.04 0,-1.68 1.36,-3.04 3.04,-3.04z"/>
    <path class="fil2" d="M12.66 22.2c0.76,-4.35 1.13,-6.52 1.13,-6.52 0.11,-0.9 -0.23,-1 -0.99,-1.1 -1.01,-0.17 -1.78,-1.28 0,-1.44 2.64,0 3.4,-0.1 3.97,0 0.25,0.05 2.01,0.2 1.42,2.53 -0.95,4.68 -1.31,7.05 -1.23,7.23 0.24,1.15 0.89,0.75 1.99,0.47 1.51,-0.51 1.62,-0.1 0.54,1.03 -1.61,1.34 -3.38,1.64 -5.55,0.76 0,0 -0.09,-0.04 -0.17,-0.08 -1.14,-0.46 -1.4,-1.48 -1.11,-2.88z"/>
   </g>
  </g>
 </g>
</svg>
