<svg width="16" height="15" viewBox="0 0 16 15" fill="none" xmlns="http://www.w3.org/2000/svg">
<path d="M7.99999 10.9562C6.11427 10.9562 4.57141 9.40092 4.57141 7.5C4.57141 5.59908 6.11427 4.04378 7.99999 4.04378C9.8857 4.04378 11.4286 5.59908 11.4286 7.5C11.4286 9.40092 9.8857 10.9562 7.99999 10.9562ZM7.99999 5.19585C6.74284 5.19585 5.71427 6.23272 5.71427 7.5C5.71427 8.76728 6.74284 9.80415 7.99999 9.80415C9.25713 9.80415 10.2857 8.76728 10.2857 7.5C10.2857 6.23272 9.25713 5.19585 7.99999 5.19585Z" fill="#6B6B6B"/>
<path d="M7.99999 13.2604C4.35427 13.2604 1.15426 11.0253 0.034258 7.68433C-0.0114193 7.56576 -0.0114193 7.43424 0.034258 7.31567C1.15426 3.98617 4.36569 1.73963 7.99999 1.73963C11.6343 1.73963 14.8457 3.97465 15.9657 7.31567C16.0114 7.43088 16.0114 7.56912 15.9657 7.68433C14.8457 11.0138 11.6343 13.2604 7.99999 13.2604ZM1.17712 7.5C2.19426 10.265 4.91427 12.1083 7.99999 12.1083C11.0857 12.1083 13.7943 10.265 14.8229 7.5C13.8057 4.73502 11.0857 2.89171 7.99999 2.89171C4.91427 2.89171 2.20569 4.73502 1.17712 7.5Z" fill="#6B6B6B"/>
<path d="M14.8571 14.9885C14.7822 14.9894 14.7079 14.9745 14.639 14.9447C14.5701 14.915 14.5082 14.871 14.4571 14.8157L0.742831 0.990783C0.514259 0.760369 0.514259 0.403226 0.742831 0.172811C0.971403 -0.0576037 1.32569 -0.0576037 1.55426 0.172811L15.2571 14.0092C15.4857 14.2396 15.4857 14.5968 15.2571 14.8272C15.1429 14.9424 14.9943 15 14.8571 15V14.9885Z" fill="#6B6B6B"/>
</svg>
