<svg width="43" height="43" viewBox="0 0 43 43" fill="none" xmlns="http://www.w3.org/2000/svg">
<path fill-rule="evenodd" clip-rule="evenodd" d="M18.2473 0.397698C20.9088 -0.262992 23.7083 -0.097538 26.2734 0.872042C28.8384 1.84162 31.0474 3.56935 32.6063 5.8253C34.1652 8.08123 35.0002 10.7584 35 13.5005C35 13.5005 35 13.5005 35 13.5005V16.1061C35.4536 16.138 35.8812 16.1795 36.2834 16.2336C38.0837 16.4757 39.5999 16.9937 40.8033 18.1984C42.0071 19.4015 42.5248 20.9173 42.7669 22.7169C43.0001 24.451 43 26.6557 43 29.3904V29.61C43 32.3447 43.0001 34.5495 42.7669 36.2835C42.5248 38.0835 42.007 39.5995 40.8027 40.8027C39.5994 42.007 38.0834 42.5248 36.2834 42.7669C34.5494 43.0001 32.3445 43 29.6098 43H27.5C26.6716 43 26 42.3284 26 41.5C26 40.6716 26.6716 40 27.5 40H29.5C32.3704 40 34.3728 39.9969 35.8836 39.7937C37.3513 39.5963 38.1281 39.2353 38.6807 38.682C39.234 38.1294 39.5962 37.3514 39.7936 35.8837C39.9968 34.3729 40 32.3706 40 29.5002C40 26.6299 39.9968 24.6275 39.7936 23.1168C39.5962 21.649 39.2352 20.8723 38.6819 20.3197C38.1293 19.7664 37.3513 19.4042 35.8836 19.2068C34.3728 19.0036 32.3704 19.0004 29.5 19.0004H13.5C10.6296 19.0004 8.62721 19.0036 7.11643 19.2068C5.64867 19.4042 4.87192 19.7652 4.31927 20.3185C3.76598 20.8711 3.40376 21.649 3.20637 23.1168C3.00319 24.6275 3 26.6299 3 29.5002C3 32.3706 3.00319 34.3729 3.20637 35.8837C3.40376 37.3514 3.76478 38.1282 4.31806 38.6808C4.87071 39.2341 5.64867 39.5963 7.11643 39.7937C8.62721 39.9969 10.6296 40 13.5 40H19.5C20.3284 40 21 40.6716 21 41.5C21 42.3284 20.3284 43 19.5 43H13.3902C10.6555 43 8.45064 43.0001 6.71657 42.7669C4.91693 42.5248 3.4011 42.0071 2.19795 40.8033C0.993229 39.6 0.475243 38.0838 0.233136 36.2835C-7.3418e-05 34.5495 -4.01536e-05 32.3447 1.09279e-06 29.61V29.3905C-4.01536e-05 26.6558 -7.3418e-05 24.451 0.233136 22.7169C0.475203 20.917 0.993056 19.401 2.19734 18.1978C3.40059 16.9935 4.91663 16.4757 6.71657 16.2336C7.11881 16.1795 7.54637 16.138 8 16.1061V13.5005C8 12.7384 8.06275 11.9847 8.18703 11.2503C8.32526 10.4335 9.09948 9.88338 9.91629 10.0216C10.7331 10.1598 11.2832 10.934 11.145 11.7508C11.0493 12.3164 11 12.9026 11 13.5005V16.0074C11.7471 16.0004 12.5433 16.0005 13.3903 16.0005H29.6097C30.4567 16.0005 31.2529 16.0004 32 16.0074V13.5005C32.0001 11.3677 31.3507 9.28537 30.1383 7.53074C28.9258 5.77611 27.2077 4.43232 25.2126 3.6782C23.2176 2.92409 21.0402 2.7954 18.9702 3.30927C16.9002 3.82314 15.0357 4.9552 13.625 6.55479C13.077 7.1761 12.1292 7.23558 11.5078 6.68763C10.8865 6.13969 10.827 5.19182 11.375 4.57051C13.1888 2.51389 15.5859 1.05839 18.2473 0.397698ZM13.5 29.0002C13.3674 29.0002 13.2402 29.0529 13.1464 29.1467C13.0527 29.2405 13 29.3676 13 29.5002C13 29.6328 13.0527 29.76 13.1464 29.8538C13.2402 29.9475 13.3674 30.0002 13.5 30.0002C13.6326 30.0002 13.7598 29.9475 13.8536 29.8538C13.9473 29.76 14 29.6328 14 29.5002C14 29.3676 13.9473 29.2405 13.8536 29.1467C13.7598 29.0529 13.6326 29.0002 13.5 29.0002ZM11.0251 27.0254C11.6815 26.369 12.5717 26.0003 13.5 26.0003C14.4283 26.0003 15.3185 26.369 15.9749 27.0254C16.6313 27.6818 17 28.572 17 29.5002C17 30.4285 16.6313 31.3187 15.9749 31.9751C15.3185 32.6314 14.4283 33.0002 13.5 33.0002C12.5717 33.0002 11.6815 32.6314 11.0251 31.9751C10.3687 31.3187 10 30.4285 10 29.5002C10 28.572 10.3688 27.6818 11.0251 27.0254ZM21.5 29.0002C21.3674 29.0002 21.2402 29.0529 21.1464 29.1467C21.0527 29.2405 21 29.3676 21 29.5002C21 29.6328 21.0527 29.76 21.1464 29.8538C21.2402 29.9475 21.3674 30.0002 21.5 30.0002C21.6326 30.0002 21.7598 29.9475 21.8536 29.8538C21.9473 29.76 22 29.6328 22 29.5002C22 29.3676 21.9473 29.2405 21.8536 29.1467C21.7598 29.0529 21.6326 29.0002 21.5 29.0002ZM19.0251 27.0254C19.6815 26.369 20.5717 26.0003 21.5 26.0003C22.4283 26.0003 23.3185 26.369 23.9749 27.0254C24.6313 27.6818 25 28.572 25 29.5002C25 30.4285 24.6313 31.3187 23.9749 31.9751C23.3185 32.6314 22.4283 33.0002 21.5 33.0002C20.5717 33.0002 19.6815 32.6314 19.0251 31.9751C18.3687 31.3187 18 30.4285 18 29.5002C18 28.572 18.3687 27.6818 19.0251 27.0254ZM29.5 29.0002C29.3674 29.0002 29.2402 29.0529 29.1464 29.1467C29.0527 29.2405 29 29.3676 29 29.5002C29 29.6328 29.0527 29.76 29.1464 29.8538C29.2402 29.9475 29.3674 30.0002 29.5 30.0002C29.6326 30.0002 29.7598 29.9475 29.8536 29.8538C29.9473 29.76 30 29.6328 30 29.5002C30 29.3676 29.9473 29.2405 29.8536 29.1467C29.7598 29.0529 29.6326 29.0002 29.5 29.0002ZM27.0251 27.0254C27.6815 26.369 28.5717 26.0003 29.5 26.0003C30.4283 26.0003 31.3185 26.369 31.9749 27.0254C32.6313 27.6818 33 28.572 33 29.5002C33 30.4285 32.6313 31.3187 31.9749 31.9751C31.3185 32.6314 30.4283 33.0002 29.5 33.0002C28.5717 33.0002 27.6815 32.6314 27.0251 31.9751C26.3687 31.3187 26 30.4285 26 29.5002C26 28.572 26.3687 27.6818 27.0251 27.0254Z" fill="#1B608C"/>
</svg>
