<svg width="19" height="17" viewBox="0 0 19 17" fill="none" xmlns="http://www.w3.org/2000/svg">
<path d="M1.1875 10.9286L0 17H19L17.8125 10.9286H15.6602C15.9756 10.372 16.2137 9.78702 16.3745 9.17355C16.5353 8.56008 16.6188 7.9308 16.625 7.28571C16.625 6.61533 16.5415 5.97024 16.3745 5.35045C16.2075 4.73065 15.9663 4.15197 15.6509 3.6144C15.3354 3.07682 14.9644 2.58352 14.5376 2.13449C14.1108 1.68545 13.6315 1.30599 13.0996 0.996094C12.5677 0.686198 11.9987 0.442708 11.3926 0.265625C10.7865 0.0885417 10.1556 0 9.5 0C8.8444 0 8.21354 0.0853795 7.60742 0.256138C7.0013 0.426897 6.43538 0.673549 5.90967 0.996094C5.38395 1.31864 4.90153 1.6981 4.4624 2.13449C4.02327 2.57087 3.65218 3.06101 3.34912 3.60491C3.04606 4.14881 2.80794 4.73065 2.63477 5.35045C2.46159 5.97024 2.375 6.61533 2.375 7.28571C2.375 7.9308 2.4554 8.56008 2.61621 9.17355C2.77702 9.78702 3.01823 10.372 3.33984 10.9286H1.1875ZM3.5625 7.28571C3.5625 7.08333 3.57178 6.88095 3.59033 6.67857C3.60889 6.47619 3.63981 6.27381 3.68311 6.07143H5.99316C5.95605 6.48251 5.9375 6.88728 5.9375 7.28571C5.9375 7.69048 5.95605 8.09524 5.99316 8.5H3.68311C3.646 8.29762 3.61816 8.09524 3.59961 7.89286C3.58105 7.69048 3.56868 7.4881 3.5625 7.28571ZM11.8193 8.5H7.18066C7.14355 8.09524 7.125 7.69048 7.125 7.28571C7.125 6.88728 7.14355 6.48251 7.18066 6.07143H11.8193C11.8564 6.48251 11.875 6.88728 11.875 7.28571C11.875 7.69048 11.8564 8.09524 11.8193 8.5ZM7.34766 9.71429H11.6523C11.6276 9.85975 11.5843 10.0495 11.5225 10.2835C11.4606 10.5175 11.3833 10.7736 11.2905 11.0519C11.1978 11.3302 11.0895 11.6021 10.9658 11.8677C10.8421 12.1334 10.7061 12.38 10.5576 12.6077C10.4092 12.8354 10.2453 13.0156 10.0659 13.1484C9.88656 13.2812 9.69792 13.3508 9.5 13.3571C9.30208 13.3571 9.11654 13.2876 8.94336 13.1484C8.77018 13.0093 8.60628 12.8291 8.45166 12.6077C8.29704 12.3863 8.16097 12.1397 8.04346 11.8677C7.92594 11.5958 7.81771 11.3238 7.71875 11.0519C7.61979 10.7799 7.54248 10.527 7.48682 10.293C7.43115 10.059 7.38477 9.86607 7.34766 9.71429ZM11.7729 12.8923C12.0575 12.4116 12.2863 11.8994 12.4595 11.3555C12.6326 10.8116 12.7656 10.2645 12.8584 9.71429H14.9365C14.7881 10.0495 14.6025 10.3752 14.3799 10.6914C14.1572 11.0076 13.9098 11.308 13.6377 11.5926C13.3656 11.8772 13.0687 12.127 12.7471 12.3421C12.4255 12.5571 12.1007 12.7405 11.7729 12.8923ZM6.1416 9.71429C6.24056 10.2582 6.37354 10.8021 6.54053 11.346C6.70752 11.8899 6.93327 12.4053 7.21777 12.8923C6.88379 12.7405 6.56217 12.5539 6.25293 12.3326C5.94368 12.1112 5.6499 11.8646 5.37158 11.5926C5.09326 11.3207 4.84277 11.0234 4.62012 10.7009C4.39746 10.3783 4.21191 10.0495 4.06348 9.71429H6.1416ZM4.06348 4.85714C4.37891 4.14249 4.80566 3.51004 5.34375 2.95982C5.88184 2.4096 6.5096 1.9827 7.22705 1.67913C6.94255 2.15978 6.7168 2.67206 6.5498 3.21596C6.38281 3.75986 6.24675 4.30692 6.1416 4.85714H4.06348ZM9.5 1.21429C9.69792 1.21429 9.88346 1.28385 10.0566 1.42299C10.2298 1.56213 10.3937 1.74237 10.5483 1.96373C10.703 2.18508 10.839 2.43173 10.9565 2.70368C11.0741 2.97563 11.1823 3.24758 11.2812 3.51953C11.3802 3.79148 11.4606 4.04446 11.5225 4.27846C11.5843 4.51246 11.6276 4.70536 11.6523 4.85714H7.34766C7.37858 4.71168 7.42188 4.52195 7.47754 4.28795C7.5332 4.05394 7.61051 3.79781 7.70947 3.51953C7.80843 3.24126 7.91667 2.96931 8.03418 2.70368C8.15169 2.43806 8.28776 2.19141 8.44238 1.96373C8.597 1.73605 8.76091 1.5558 8.93408 1.42299C9.10726 1.29018 9.2959 1.22061 9.5 1.21429ZM11.7729 1.67913C12.4842 1.9827 13.1089 2.4096 13.647 2.95982C14.1851 3.51004 14.6149 4.14249 14.9365 4.85714H12.8584C12.7594 4.30692 12.6265 3.75986 12.4595 3.21596C12.2925 2.67206 12.0636 2.15978 11.7729 1.67913ZM15.3169 6.07143C15.354 6.27381 15.3818 6.47619 15.4004 6.67857C15.4189 6.88095 15.4313 7.08333 15.4375 7.28571C15.4375 7.4881 15.4282 7.69048 15.4097 7.89286C15.3911 8.09524 15.3602 8.29762 15.3169 8.5H13.0068C13.0439 8.09524 13.0625 7.69048 13.0625 7.28571C13.0625 6.88728 13.0439 6.48251 13.0068 6.07143H15.3169ZM17.5527 15.7857H1.44727L2.16162 12.1429H4.20264C4.53662 12.5286 4.90462 12.8702 5.30664 13.1674C5.70866 13.4647 6.13851 13.7208 6.59619 13.9358C7.05387 14.1509 7.52393 14.309 8.00635 14.4102C8.48877 14.5113 8.98665 14.5651 9.5 14.5714C10.0072 14.5714 10.505 14.5177 10.9937 14.4102C11.4823 14.3026 11.9523 14.1445 12.4038 13.9358C12.8553 13.7271 13.2821 13.4741 13.6841 13.1769C14.0861 12.8797 14.4572 12.535 14.7974 12.1429H16.8384L17.5527 15.7857Z" fill="#6B6B6B"/>
</svg>
