<svg width="66" height="10" viewBox="0 0 66 10" fill="none" xmlns="http://www.w3.org/2000/svg">
<path d="M9.75016 4.55508L7.73812 6.37752L8.34084 9.09081C8.37273 9.23265 8.36363 9.38111 8.31467 9.51761C8.26571 9.65411 8.17907 9.77261 8.06558 9.85828C7.95208 9.94396 7.81677 9.99301 7.67656 9.99931C7.53635 10.0056 7.39747 9.96886 7.27727 9.89368L4.9971 8.45833L2.72184 9.89368C2.60164 9.96886 2.46275 10.0056 2.32255 9.99931C2.18234 9.99301 2.04702 9.94396 1.93353 9.85828C1.82004 9.77261 1.73339 9.65411 1.68444 9.51761C1.63548 9.38111 1.62638 9.23265 1.65827 9.09081L2.2601 6.3803L0.247611 4.55508C0.141169 4.4598 0.0641999 4.33403 0.0263565 4.19353C-0.011487 4.05304 -0.00852021 3.90407 0.0348847 3.76532C0.0782896 3.62656 0.1602 3.5042 0.270345 3.41356C0.38049 3.32293 0.513966 3.26807 0.654035 3.25585L3.30672 3.0174L4.34218 0.454129C4.39626 0.319629 4.48746 0.204741 4.60432 0.123931C4.72118 0.04312 4.85846 0 4.99889 0C5.13931 0 5.27659 0.04312 5.39345 0.123931C5.51031 0.204741 5.60151 0.319629 5.65559 0.454129L6.69417 3.0174L9.34597 3.25585C9.48603 3.26807 9.61951 3.32293 9.72966 3.41356C9.8398 3.5042 9.92171 3.62656 9.96512 3.76532C10.0085 3.90407 10.0115 4.05304 9.97364 4.19353C9.9358 4.33403 9.85883 4.4598 9.75239 4.55508H9.75016Z" fill="#FFB018"/>
<path d="M23.7502 4.55508L21.7381 6.37752L22.3408 9.09081C22.3727 9.23265 22.3636 9.38111 22.3147 9.51761C22.2657 9.65411 22.1791 9.77261 22.0656 9.85828C21.9521 9.94396 21.8168 9.99301 21.6766 9.99931C21.5364 10.0056 21.3975 9.96886 21.2773 9.89368L18.9971 8.45833L16.7218 9.89368C16.6016 9.96886 16.4628 10.0056 16.3225 9.99931C16.1823 9.99301 16.047 9.94396 15.9335 9.85828C15.82 9.77261 15.7334 9.65411 15.6844 9.51761C15.6355 9.38111 15.6264 9.23265 15.6583 9.09081L16.2601 6.3803L14.2476 4.55508C14.1412 4.4598 14.0642 4.33403 14.0264 4.19353C13.9885 4.05304 13.9915 3.90407 14.0349 3.76532C14.0783 3.62656 14.1602 3.5042 14.2703 3.41356C14.3805 3.32293 14.514 3.26807 14.654 3.25585L17.3067 3.0174L18.3422 0.454129C18.3963 0.319629 18.4875 0.204741 18.6043 0.123931C18.7212 0.04312 18.8585 0 18.9989 0C19.1393 0 19.2766 0.04312 19.3934 0.123931C19.5103 0.204741 19.6015 0.319629 19.6556 0.454129L20.6942 3.0174L23.346 3.25585C23.486 3.26807 23.6195 3.32293 23.7297 3.41356C23.8398 3.5042 23.9217 3.62656 23.9651 3.76532C24.0085 3.90407 24.0115 4.05304 23.9736 4.19353C23.9358 4.33403 23.8588 4.4598 23.7524 4.55508H23.7502Z" fill="#FFB018"/>
<path d="M37.7502 4.55508L35.7381 6.37752L36.3408 9.09081C36.3727 9.23265 36.3636 9.38111 36.3147 9.51761C36.2657 9.65411 36.1791 9.77261 36.0656 9.85828C35.9521 9.94396 35.8168 9.99301 35.6766 9.99931C35.5364 10.0056 35.3975 9.96886 35.2773 9.89368L32.9971 8.45833L30.7218 9.89368C30.6016 9.96886 30.4628 10.0056 30.3225 9.99931C30.1823 9.99301 30.047 9.94396 29.9335 9.85828C29.82 9.77261 29.7334 9.65411 29.6844 9.51761C29.6355 9.38111 29.6264 9.23265 29.6583 9.09081L30.2601 6.3803L28.2476 4.55508C28.1412 4.4598 28.0642 4.33403 28.0264 4.19353C27.9885 4.05304 27.9915 3.90407 28.0349 3.76532C28.0783 3.62656 28.1602 3.5042 28.2703 3.41356C28.3805 3.32293 28.514 3.26807 28.654 3.25585L31.3067 3.0174L32.3422 0.454129C32.3963 0.319629 32.4875 0.204741 32.6043 0.123931C32.7212 0.04312 32.8585 0 32.9989 0C33.1393 0 33.2766 0.04312 33.3934 0.123931C33.5103 0.204741 33.6015 0.319629 33.6556 0.454129L34.6942 3.0174L37.346 3.25585C37.486 3.26807 37.6195 3.32293 37.7297 3.41356C37.8398 3.5042 37.9217 3.62656 37.9651 3.76532C38.0085 3.90407 38.0115 4.05304 37.9736 4.19353C37.9358 4.33403 37.8588 4.4598 37.7524 4.55508H37.7502Z" fill="#FFB018"/>
<path d="M51.7502 4.55508L49.7381 6.37752L50.3408 9.09081C50.3727 9.23265 50.3636 9.38111 50.3147 9.51761C50.2657 9.65411 50.1791 9.77261 50.0656 9.85828C49.9521 9.94396 49.8168 9.99301 49.6766 9.99931C49.5364 10.0056 49.3975 9.96886 49.2773 9.89368L46.9971 8.45833L44.7218 9.89368C44.6016 9.96886 44.4628 10.0056 44.3225 9.99931C44.1823 9.99301 44.047 9.94396 43.9335 9.85828C43.82 9.77261 43.7334 9.65411 43.6844 9.51761C43.6355 9.38111 43.6264 9.23265 43.6583 9.09081L44.2601 6.3803L42.2476 4.55508C42.1412 4.4598 42.0642 4.33403 42.0264 4.19353C41.9885 4.05304 41.9915 3.90407 42.0349 3.76532C42.0783 3.62656 42.1602 3.5042 42.2703 3.41356C42.3805 3.32293 42.514 3.26807 42.654 3.25585L45.3067 3.0174L46.3422 0.454129C46.3963 0.319629 46.4875 0.204741 46.6043 0.123931C46.7212 0.04312 46.8585 0 46.9989 0C47.1393 0 47.2766 0.04312 47.3934 0.123931C47.5103 0.204741 47.6015 0.319629 47.6556 0.454129L48.6942 3.0174L51.346 3.25585C51.486 3.26807 51.6195 3.32293 51.7297 3.41356C51.8398 3.5042 51.9217 3.62656 51.9651 3.76532C52.0085 3.90407 52.0115 4.05304 51.9736 4.19353C51.9358 4.33403 51.8588 4.4598 51.7524 4.55508H51.7502Z" fill="#FFB018"/>
<path d="M65.7502 4.55508L63.7381 6.37752L64.3408 9.09081C64.3727 9.23265 64.3636 9.38111 64.3147 9.51761C64.2657 9.65411 64.1791 9.77261 64.0656 9.85828C63.9521 9.94396 63.8168 9.99301 63.6766 9.99931C63.5364 10.0056 63.3975 9.96886 63.2773 9.89368L60.9971 8.45833L58.7218 9.89368C58.6016 9.96886 58.4628 10.0056 58.3225 9.99931C58.1823 9.99301 58.047 9.94396 57.9335 9.85828C57.82 9.77261 57.7334 9.65411 57.6844 9.51761C57.6355 9.38111 57.6264 9.23265 57.6583 9.09081L58.2601 6.3803L56.2476 4.55508C56.1412 4.4598 56.0642 4.33403 56.0264 4.19353C55.9885 4.05304 55.9915 3.90407 56.0349 3.76532C56.0783 3.62656 56.1602 3.5042 56.2703 3.41356C56.3805 3.32293 56.514 3.26807 56.654 3.25585L59.3067 3.0174L60.3422 0.454129C60.3963 0.319629 60.4875 0.204741 60.6043 0.123931C60.7212 0.04312 60.8585 0 60.9989 0C61.1393 0 61.2766 0.04312 61.3934 0.123931C61.5103 0.204741 61.6015 0.319629 61.6556 0.454129L62.6942 3.0174L65.346 3.25585C65.486 3.26807 65.6195 3.32293 65.7297 3.41356C65.8398 3.5042 65.9217 3.62656 65.9651 3.76532C66.0085 3.90407 66.0115 4.05304 65.9736 4.19353C65.9358 4.33403 65.8588 4.4598 65.7524 4.55508H65.7502Z" fill="#FFB018"/>
</svg>
