<svg width="17" height="17" viewBox="0 0 17 17" fill="none" xmlns="http://www.w3.org/2000/svg">
<path d="M8.5 11.05C9.1885 11.05 9.775 10.795 10.2935 10.2935C10.795 9.775 11.05 9.1885 11.05 8.5C11.05 7.8115 10.795 7.225 10.2935 6.7065C9.775 6.205 9.1885 5.95 8.5 5.95C7.8115 5.95 7.225 6.205 6.7065 6.7065C6.205 7.225 5.95 7.8115 5.95 8.5C5.95 9.1885 6.205 9.775 6.7065 10.2935C7.225 10.795 7.8115 11.05 8.5 11.05ZM8.5 0C10.8375 0 12.835 0.85 14.4925 2.5075C16.15 4.165 17 6.1625 17 8.5V9.7325C17 10.5825 16.7025 11.305 16.15 11.9C15.555 12.4695 14.875 12.75 14.025 12.75C13.005 12.75 12.1635 12.325 11.526 11.475C10.676 12.325 9.673 12.75 8.5 12.75C7.3355 12.75 6.3325 12.325 5.491 11.509C4.675 10.6675 4.25 9.673 4.25 8.5C4.25 7.3355 4.675 6.3325 5.491 5.491C6.3325 4.675 7.3355 4.25 8.5 4.25C9.673 4.25 10.6675 4.675 11.509 5.491C12.325 6.3325 12.75 7.3355 12.75 8.5V9.7325C12.75 10.081 12.886 10.387 13.141 10.6505C13.396 10.914 13.6935 11.05 14.025 11.05C14.382 11.05 14.6795 10.914 14.9345 10.6505C15.1895 10.387 15.3 10.081 15.3 9.7325V8.5C15.3 6.6385 14.6455 5.0405 13.3025 3.6975C11.9595 2.3545 10.3615 1.7 8.5 1.7C6.6385 1.7 5.0405 2.3545 3.6975 3.6975C2.3545 5.0405 1.7 6.6385 1.7 8.5C1.7 10.3615 2.3545 11.9595 3.6975 13.3025C5.0405 14.6455 6.6385 15.3 8.5 15.3H12.75V17H8.5C6.1625 17 4.165 16.15 2.5075 14.4925C0.85 12.835 0 10.8375 0 8.5C0 6.1625 0.85 4.165 2.5075 2.5075C4.165 0.85 6.1625 0 8.5 0Z" fill="#6B6B6B"/>
</svg>
