<svg width="17" height="17" viewBox="0 0 17 17" fill="none" xmlns="http://www.w3.org/2000/svg">
<path d="M4.95833 0C4.39475 0 3.85425 0.223883 3.45573 0.622398C3.05722 1.02091 2.83333 1.56141 2.83333 2.125V5.66667C2.08189 5.66667 1.36122 5.96518 0.829864 6.49653C0.298511 7.02788 0 7.74855 0 8.5V14.875C0 15.4386 0.223883 15.9791 0.622398 16.3776C1.02091 16.7761 1.56141 17 2.125 17H10.625C10.3098 16.581 10.092 16.0971 9.9875 15.5833H2.125C1.93714 15.5833 1.75697 15.5087 1.62413 15.3759C1.49129 15.243 1.41667 15.0629 1.41667 14.875V8.5C1.41667 8.12428 1.56592 7.76394 1.8316 7.49827C2.09728 7.23259 2.45761 7.08333 2.83333 7.08333H9.9875C10.0938 6.55917 10.3147 6.0775 10.625 5.66667H4.25V2.125C4.25 1.93714 4.32463 1.75697 4.45747 1.62413C4.5903 1.49129 4.77047 1.41667 4.95833 1.41667H12.0417C12.2295 1.41667 12.4097 1.49129 12.5425 1.62413C12.6754 1.75697 12.75 1.93714 12.75 2.125V4.32083C12.9795 4.27408 13.2161 4.25 13.4583 4.25H14.1667V2.125C14.1667 1.56141 13.9428 1.02091 13.5443 0.622398C13.1458 0.223883 12.6053 0 12.0417 0H4.95833ZM13.4583 5.66667C12.8947 5.66667 12.3542 5.89055 11.9557 6.28906C11.5572 6.68758 11.3333 7.22808 11.3333 7.79167V14.875C11.3333 15.4386 11.5572 15.9791 11.9557 16.3776C12.3542 16.7761 12.8947 17 13.4583 17H14.875C15.4386 17 15.9791 16.7761 16.3776 16.3776C16.7761 15.9791 17 15.4386 17 14.875V7.79167C17 7.22808 16.7761 6.68758 16.3776 6.28906C15.9791 5.89055 15.4386 5.66667 14.875 5.66667H13.4583ZM12.75 7.79167C12.75 7.6038 12.8246 7.42364 12.9575 7.2908C13.0903 7.15796 13.2705 7.08333 13.4583 7.08333H14.875C15.0629 7.08333 15.243 7.15796 15.3759 7.2908C15.5087 7.42364 15.5833 7.6038 15.5833 7.79167V14.875C15.5833 15.0629 15.5087 15.243 15.3759 15.3759C15.243 15.5087 15.0629 15.5833 14.875 15.5833H13.4583C13.2705 15.5833 13.0903 15.5087 12.9575 15.3759C12.8246 15.243 12.75 15.0629 12.75 14.875V7.79167ZM4.25 9.20833C4.25 9.39619 4.17537 9.57636 4.04253 9.7092C3.9097 9.84204 3.72953 9.91667 3.54167 9.91667C3.3538 9.91667 3.17364 9.84204 3.0408 9.7092C2.90796 9.57636 2.83333 9.39619 2.83333 9.20833C2.83333 9.02047 2.90796 8.8403 3.0408 8.70747C3.17364 8.57463 3.3538 8.5 3.54167 8.5C3.72953 8.5 3.9097 8.57463 4.04253 8.70747C4.17537 8.8403 4.25 9.02047 4.25 9.20833ZM3.54167 12.75C3.72953 12.75 3.9097 12.6754 4.04253 12.5425C4.17537 12.4097 4.25 12.2295 4.25 12.0417C4.25 11.8538 4.17537 11.6736 4.04253 11.5408C3.9097 11.408 3.72953 11.3333 3.54167 11.3333C3.3538 11.3333 3.17364 11.408 3.0408 11.5408C2.90796 11.6736 2.83333 11.8538 2.83333 12.0417C2.83333 12.2295 2.90796 12.4097 3.0408 12.5425C3.17364 12.6754 3.3538 12.75 3.54167 12.75ZM7.08333 9.20833C7.08333 9.39619 7.00871 9.57636 6.87587 9.7092C6.74303 9.84204 6.56286 9.91667 6.375 9.91667C6.18714 9.91667 6.00697 9.84204 5.87413 9.7092C5.74129 9.57636 5.66667 9.39619 5.66667 9.20833C5.66667 9.02047 5.74129 8.8403 5.87413 8.70747C6.00697 8.57463 6.18714 8.5 6.375 8.5C6.56286 8.5 6.74303 8.57463 6.87587 8.70747C7.00871 8.8403 7.08333 9.02047 7.08333 9.20833ZM6.375 12.75C6.56286 12.75 6.74303 12.6754 6.87587 12.5425C7.00871 12.4097 7.08333 12.2295 7.08333 12.0417C7.08333 11.8538 7.00871 11.6736 6.87587 11.5408C6.74303 11.408 6.56286 11.3333 6.375 11.3333C6.18714 11.3333 6.00697 11.408 5.87413 11.5408C5.74129 11.6736 5.66667 11.8538 5.66667 12.0417C5.66667 12.2295 5.74129 12.4097 5.87413 12.5425C6.00697 12.6754 6.18714 12.75 6.375 12.75Z" fill="#6B6B6B"/>
</svg>
