<svg width="191" height="186" viewBox="0 0 191 186" fill="none" xmlns="http://www.w3.org/2000/svg">
<path fill-rule="evenodd" clip-rule="evenodd" d="M77.9553 0C80.0113 0 84.31 0.297659 87.4874 0.744149C90.6647 1.15343 95.4494 2.04641 98.1408 2.75335C100.795 3.42308 104.608 4.61372 106.551 5.35787C108.495 6.13923 111.934 7.70194 114.214 8.81816C116.457 9.97159 119.747 11.8692 121.504 13.0226C123.261 14.1388 126.027 16.148 127.671 17.4503C129.316 18.7526 132.269 21.4315 134.213 23.3663C136.157 25.3383 138.886 28.3521 140.231 30.1008C141.614 31.8496 143.633 34.6773 144.792 36.4261C145.913 38.1748 147.894 41.6723 149.128 44.2397C150.361 46.807 152.044 50.8998 152.866 53.3555C153.688 55.8112 154.548 58.5273 155.146 60.983L162.547 61.0202C166.585 61.0574 170.323 61.169 170.846 61.3179C171.369 61.4667 172.042 62.0248 172.341 62.5457C172.752 63.2899 172.79 63.7736 172.528 64.4805C172.304 65.0014 168.416 69.8012 163.818 75.1218C157.725 82.2284 155.258 84.8702 154.511 85.019C153.913 85.1678 153.202 85.0934 152.903 84.9074C152.604 84.7213 148.53 80.1448 143.82 74.7125C136.867 66.6757 135.334 64.7037 135.334 63.7736C135.297 63.1038 135.633 62.3597 136.119 61.9132C136.83 61.2434 137.503 61.169 143.222 61.0574C148.941 60.983 149.539 60.9086 149.539 60.3133C149.539 59.9784 148.866 57.6715 148.006 55.2158C147.184 52.7602 145.726 49.0766 144.717 47.0302C143.745 44.9838 142.1 41.97 141.091 40.3329C140.082 38.6957 138.175 35.9424 136.83 34.1936C135.521 32.4449 132.568 29.1706 130.325 26.901C128.045 24.6685 124.756 21.7291 122.999 20.4269C121.242 19.0874 118.476 17.1898 116.831 16.1852C115.186 15.1806 112.159 13.5435 110.103 12.5761C108.047 11.6087 104.608 10.1948 102.44 9.45069C100.272 8.70654 97.1689 7.77636 95.5242 7.36707C93.8794 6.995 90.7768 6.43689 88.6088 6.10202C86.4407 5.80436 81.955 5.54391 78.5908 5.54391C75.077 5.54391 70.7783 5.80436 68.3485 6.13923C66.0309 6.43689 62.1807 7.21824 59.8258 7.81356C57.4708 8.44609 53.9944 9.52511 52.1628 10.2693C50.2937 10.9762 47.1164 12.4273 45.0604 13.5063C43.0045 14.5481 40.0515 16.2224 38.5189 17.227C36.9862 18.2316 34.2948 20.1664 32.538 21.5431C30.7811 22.9198 27.7533 25.7103 25.8095 27.7195C23.8283 29.766 21.4733 32.4077 20.5388 33.6355C19.5669 34.8634 17.8848 37.2819 16.7634 39.0306C15.6046 40.7794 13.8477 43.8676 12.801 45.914C11.7918 47.9604 10.3713 51.2346 9.62369 53.1694C8.91346 55.1042 7.86681 58.3785 7.34348 60.4249C6.85753 62.4713 6.1473 65.8944 5.84826 68.0524C5.51183 70.2104 5.25017 73.2242 5.25017 74.7497C5.25017 76.2753 5.06327 78.1728 4.87637 78.917C4.65208 79.6983 4.16613 80.4797 3.75495 80.7029C3.34376 80.889 2.67091 81.075 2.25973 81.075C1.84854 81.075 1.13831 80.7029 0.689745 80.2192C-0.0952468 79.4379 -0.0952468 79.1774 0.129036 74.0056C0.241178 71.029 0.689745 66.7502 1.10093 64.5177C1.51212 62.2481 2.44663 58.4529 3.19424 56.0344C3.90447 53.6531 5.32493 49.7836 6.33421 47.4767C7.3061 45.207 9.13775 41.5607 10.4087 39.4027C11.6422 37.2447 13.9225 33.8216 15.4551 31.7752C16.9877 29.7287 19.6417 26.5661 21.3612 24.7429C23.0807 22.9198 26.1085 20.092 28.0523 18.4921C29.9961 16.855 32.9492 14.6597 34.5939 13.5807C36.2386 12.4645 39.0796 10.753 40.9486 9.74835C42.7802 8.74375 45.9202 7.25545 47.864 6.39968C49.8078 5.58112 53.0973 4.35327 55.1532 3.72074C57.2091 3.08822 60.2369 2.30686 61.8817 1.97199C63.5264 1.63713 66.9654 1.04181 69.5447 0.706941C72.124 0.334867 75.8994 0.0372074 77.9553 0ZM148.829 72.5917C151.558 75.7171 153.838 78.3217 153.987 78.3589C154.099 78.3961 156.38 75.866 159.034 72.7778C161.688 69.6523 163.931 66.899 164.005 66.6385C164.08 66.3037 161.912 66.192 154.025 66.192C147.558 66.192 143.932 66.3409 143.932 66.5641C143.932 66.7502 146.137 69.5035 148.829 72.5917ZM78.0675 21.9524C79.5253 21.9524 82.0672 22.1012 83.6745 22.3245C85.2445 22.5477 88.3097 23.2919 90.4778 23.9988C92.6459 24.7429 95.5616 26.008 97.0194 26.8266C98.4399 27.6823 100.645 29.1706 101.879 30.138C103.112 31.1054 104.907 32.7053 105.841 33.7099C106.776 34.6773 108.047 36.1656 108.645 36.9842C109.28 37.8028 110.289 39.2911 110.925 40.3329C111.523 41.3375 112.607 43.4583 113.243 44.9838C113.915 46.5093 114.813 49.1138 115.224 50.7509C115.934 53.4299 116.046 55.067 116.345 80.889L119.934 81.1494C122.027 81.261 124.531 81.7075 125.802 82.154C127.036 82.5633 129.092 83.6051 130.4 84.4237C131.671 85.2422 133.391 86.5817 134.213 87.4003C135.035 88.2188 136.381 89.9304 137.241 91.1954C138.288 92.8326 138.699 93.8744 138.624 94.6185C138.549 95.2138 138.101 95.9952 137.577 96.4417C136.942 96.9254 136.344 97.0742 135.633 96.9254C134.848 96.7766 134.138 96.0324 132.979 94.172C132.082 92.7954 130.624 91.0838 129.69 90.3397C128.793 89.6327 127.597 88.7397 127.036 88.4049C126.438 88.07 124.98 87.4375 123.746 87.0282C121.541 86.2841 120.494 86.2841 78.516 86.2841C38.3319 86.2841 35.3789 86.3213 33.3977 86.9538C32.2015 87.3259 30.4073 88.1444 29.3606 88.777C28.3513 89.4095 26.7814 90.7117 25.9216 91.6419C25.0245 92.5721 23.9031 94.172 23.3797 95.2138C22.8564 96.2184 22.1836 98.0416 21.8845 99.195C21.3986 101.055 21.3238 106.041 21.3238 133.24C21.3238 155.304 21.4359 165.759 21.735 167.099C21.9593 168.178 22.5947 170.001 23.1181 171.117C23.6414 172.27 25.0619 174.168 26.3328 175.47C27.8654 176.996 29.4728 178.149 33.8463 180.233L77.7684 180.344C117.392 180.419 121.877 180.382 123.56 179.824C124.606 179.489 126.176 178.782 127.111 178.261C128.045 177.703 129.354 176.773 130.064 176.14C130.774 175.545 132.008 174.019 132.793 172.791C133.615 171.564 134.512 169.629 134.849 168.513C135.185 167.396 135.559 164.382 135.671 161.852C135.895 157.387 135.933 157.201 136.904 156.457C137.802 155.788 138.063 155.75 138.96 156.122C139.521 156.383 140.231 157.015 140.493 157.536C140.755 158.057 140.942 159.806 140.942 161.518C140.904 163.229 140.68 165.945 140.381 167.582C140.044 169.443 139.297 171.712 138.325 173.61C137.241 175.88 136.157 177.368 134.288 179.191C132.755 180.754 130.737 182.242 129.167 183.098C127.709 183.842 125.13 184.809 123.373 185.219C120.233 186 119.597 186 78.4413 186C37.3601 186 36.6124 186 33.5846 185.219C31.8651 184.809 29.2859 183.842 27.8654 183.098C26.2207 182.242 24.2769 180.754 22.6321 179.117C20.8005 177.293 19.5669 175.694 18.595 173.722C17.8474 172.196 16.9503 169.666 16.6512 168.14C16.1279 165.722 16.0531 161.145 16.2774 98.7486L17.2867 95.958C17.8474 94.4325 19.1184 92.014 20.0902 90.6001C21.0995 89.1862 22.7443 87.2887 23.7535 86.3957C24.8002 85.5027 26.7814 84.2004 28.2392 83.4935C29.6597 82.7866 31.8651 81.9308 33.0987 81.6331C34.3322 81.3355 36.5751 81.075 40.7617 81.075V68.4989C40.7617 58.9366 40.8738 55.253 41.3224 52.9834C41.6214 51.3463 42.2569 48.8162 42.7429 47.4023C43.2288 45.9512 44.1259 43.8676 44.6866 42.7514C45.2473 41.6351 46.4061 39.7003 47.2285 38.4725C48.0509 37.2447 50.0321 34.9378 51.5647 33.3379C53.1346 31.7007 55.7513 29.5055 57.396 28.4265C59.0408 27.3103 61.5453 25.8964 63.0031 25.2639C64.4236 24.6313 66.7785 23.7756 68.2364 23.3663C69.6568 22.9942 71.8623 22.5105 73.0958 22.3245C74.3294 22.1384 76.5722 21.9896 78.0675 21.9524ZM68.2364 28.7986C67.2271 29.1334 65.1712 30.0264 63.7507 30.7333C62.2929 31.4403 60.1996 32.7425 59.0781 33.5611C57.9567 34.4169 56.1251 36.054 55.0037 37.1702C53.9196 38.2865 52.2001 40.4817 51.1909 42.0072C50.1816 43.5327 48.8359 46.1372 48.2004 47.7744C47.5649 49.4115 46.8173 51.9788 46.5183 53.4299C46.1445 55.4391 45.995 59.4575 45.995 68.6105V81.075H61.321C61.321 58.1552 61.3584 56.853 62.0312 54.6577C62.4424 53.3183 63.3022 51.4579 63.9376 50.4533C64.5357 49.4859 65.844 47.9604 66.8533 47.0302C67.8252 46.1 69.6195 44.835 70.853 44.2397C72.0866 43.6443 74.2546 42.9374 75.7125 42.6769C77.7684 42.3421 78.8898 42.3049 81.0579 42.6769C82.5157 42.9374 84.7212 43.5699 85.9174 44.128C87.2257 44.7233 89.02 46.1 90.5152 47.5883C92.0104 49.0394 93.3561 50.8254 93.9168 52.0532C94.4401 53.1694 95.0756 54.9926 95.2999 56.0344C95.5616 57.2622 95.7111 62.4713 95.7111 69.5407V81.075H111.037C110.813 54.1368 110.813 54.0996 109.804 50.8254C109.243 49.0394 108.271 46.5465 107.635 45.2443C107 43.9792 105.729 41.9328 104.869 40.7049C103.972 39.4771 102.215 37.4679 100.907 36.2028C99.5987 34.975 97.767 33.4495 96.8325 32.817C95.898 32.1844 94.1037 31.1798 92.8328 30.5101C91.5245 29.8776 89.02 28.9102 87.2257 28.3893C84.796 27.6823 82.8148 27.3847 79.6374 27.2731C76.9087 27.1986 74.4042 27.3103 72.722 27.6451C71.2642 27.9428 69.283 28.4637 68.2364 28.7986ZM72.722 49.151C72.0866 49.4859 70.8904 50.4533 69.9933 51.3463C69.0961 52.2393 68.0121 53.7275 67.5635 54.6577C66.7785 56.2577 66.7412 56.853 66.6664 68.6849L66.5543 81.075H90.4778C90.2909 56.7786 90.2909 56.7041 89.3564 54.6949C88.8331 53.5787 87.6369 51.9788 86.665 51.0858C85.6557 50.1928 84.0857 49.0766 83.1138 48.6673C82.1046 48.2208 80.3103 47.8116 79.0767 47.7371C77.8432 47.6627 76.1611 47.8116 75.3387 48.072C74.5163 48.3697 73.3201 48.8534 72.722 49.151ZM117.018 99.3439C171.78 99.3067 179.481 99.3811 181.126 99.8648C182.172 100.162 183.817 100.981 184.826 101.651C185.836 102.283 187.256 103.586 187.929 104.516C188.639 105.446 189.574 107.12 189.985 108.236C190.77 110.171 190.807 111.064 190.957 124.05C191.069 132.942 190.957 139.007 190.695 141.165C190.359 143.695 189.985 145.035 189.05 146.709C188.377 147.9 187.181 149.499 186.359 150.206C185.537 150.951 183.929 151.955 180.752 153.443L93.0944 153.63L85.5062 160.959C81.3196 165.015 76.5722 169.629 74.9275 171.191C72.6473 173.424 71.7128 174.056 70.853 174.094C70.1802 174.094 69.4326 173.796 68.984 173.312C68.2738 172.568 68.2364 171.936 68.0495 153.63L60.8724 153.518C53.9196 153.443 53.5832 153.406 51.602 152.439C50.4806 151.918 48.7237 150.653 47.7518 149.648C46.7426 148.681 45.4716 146.932 43.939 143.77L43.8269 127.212C43.7521 113.52 43.8269 110.32 44.2755 108.795C44.5745 107.753 45.3969 106.153 46.0697 105.185C46.7426 104.218 48.2378 102.73 49.3592 101.911C50.4806 101.055 52.1628 100.125 53.0973 99.8648C54.4803 99.4555 65.6945 99.3439 117.018 99.3439ZM51.9011 106.413C51.2282 106.934 50.2937 108.088 49.8078 109.018C48.9854 110.655 48.9854 110.692 49.0602 126.877L49.1723 143.063C50.7797 145.481 51.9385 146.635 52.7982 147.193L54.3308 148.234C71.0399 148.607 71.7875 148.681 72.4978 149.351C73.2828 150.058 73.3201 150.392 73.2828 157.35C73.2828 161.331 73.3949 164.717 73.5444 164.866C73.6939 165.015 77.5815 161.518 82.1793 157.053C86.7771 152.625 90.8142 148.867 91.1507 148.718C91.4871 148.569 111.411 148.458 135.447 148.458C170.846 148.42 179.294 148.309 180.303 147.937C180.939 147.639 182.135 146.858 182.92 146.151C183.705 145.444 184.639 144.142 184.976 143.211C185.537 141.723 185.611 139.677 185.611 126.282V111.027C184.153 108.199 183.219 106.934 182.621 106.45C181.985 105.93 180.939 105.297 180.303 104.999C179.294 104.59 168.304 104.516 117.317 104.553C71.0025 104.553 55.228 104.665 54.3308 104.999C53.658 105.26 52.5366 105.855 51.9011 106.413ZM82.2541 112.329C82.8895 112.329 83.7119 112.664 84.1231 113.073C84.7586 113.706 84.8707 114.301 84.8707 117.724C84.8707 120.068 85.0202 121.631 85.2445 121.631C85.4314 121.631 86.9267 120.85 88.534 119.92C90.104 118.989 91.7487 118.134 92.1599 118.059C92.5711 117.948 93.3561 118.208 93.9542 118.617C94.7018 119.213 94.9635 119.696 94.9635 120.701C94.9635 121.631 94.7018 122.189 94.1037 122.636C93.6178 123.008 92.0104 123.975 90.5526 124.794C89.0573 125.612 87.8612 126.356 87.8612 126.468C87.8612 126.58 89.1695 127.398 90.7395 128.328C92.3468 129.221 93.9542 130.3 94.328 130.635C94.6644 131.007 94.9635 131.789 94.9635 132.421C94.9635 133.203 94.6644 133.761 93.9542 134.319C93.3561 134.728 92.5711 134.989 92.1599 134.877C91.7487 134.765 90.0666 133.947 88.4219 133.017C86.7771 132.086 85.3193 131.305 85.1698 131.305C84.9829 131.305 84.8707 133.017 84.8707 135.1C84.8707 137.891 84.7212 139.156 84.31 139.751C83.8988 140.384 83.3755 140.607 82.441 140.607C81.6186 140.607 80.8336 140.309 80.3851 139.863C79.7496 139.23 79.6374 138.635 79.6374 135.212C79.6374 133.054 79.5253 131.305 79.3758 131.305C79.1889 131.305 77.6563 132.161 75.8994 133.165C74.1425 134.17 72.4604 135.026 72.1613 135.026C71.8623 135.026 71.1521 134.728 70.5914 134.282C69.9185 133.835 69.5447 133.203 69.5447 132.607C69.5447 132.086 69.6568 131.417 69.8437 131.082C69.9933 130.747 71.6006 129.631 73.3949 128.552C75.1892 127.51 76.6844 126.58 76.6844 126.468C76.647 126.356 75.1518 125.389 73.2828 124.31C70.6287 122.785 69.8811 122.152 69.6942 121.333C69.5821 120.775 69.6568 119.957 69.8811 119.473C70.1054 119.027 70.7035 118.468 71.2268 118.282C71.7502 118.059 72.4604 118.022 72.8342 118.171C73.1706 118.32 74.8527 119.25 79.6374 122.003V117.91C79.6374 114.301 79.7122 113.743 80.3851 113.073C80.7962 112.664 81.6186 112.329 82.2541 112.329ZM117.168 112.329C117.878 112.292 118.625 112.627 119.074 113.111C119.709 113.78 119.822 114.487 119.934 117.762C119.971 119.882 120.121 121.631 120.307 121.631C120.457 121.631 121.99 120.775 123.746 119.734C126.55 118.096 127.073 117.873 128.045 118.171C128.643 118.357 129.428 118.952 129.727 119.473C130.176 120.292 130.213 120.627 129.84 121.408C129.578 121.929 128.344 123.008 127.111 123.752C125.915 124.533 124.345 125.463 122.438 126.505L125.429 128.18C127.073 129.073 128.793 130.263 129.279 130.747C129.727 131.268 130.101 132.012 130.101 132.421C130.101 132.831 129.69 133.575 129.167 134.096C128.681 134.617 127.97 135.026 127.597 135.026C127.223 135.026 125.466 134.17 123.672 133.165C121.84 132.124 120.307 131.305 120.195 131.305C120.083 131.305 119.971 133.054 119.934 135.175C119.822 138.449 119.709 139.156 119.074 139.826C118.625 140.309 117.878 140.607 117.205 140.607C116.569 140.607 115.784 140.309 115.411 139.937C114.85 139.416 114.738 138.672 114.775 135.286C114.775 133.091 114.663 131.305 114.513 131.305C114.327 131.305 112.682 132.124 110.85 133.165C108.308 134.579 107.224 134.989 106.477 134.84C105.804 134.728 105.243 134.244 104.869 133.538C104.421 132.607 104.383 132.235 104.795 131.417C105.094 130.747 106.365 129.742 108.495 128.515C110.289 127.51 111.785 126.58 111.785 126.468C111.785 126.356 110.289 125.426 108.495 124.422C106.365 123.194 105.094 122.189 104.795 121.52C104.421 120.701 104.421 120.329 104.795 119.585C105.019 119.064 105.654 118.468 106.178 118.245C106.888 117.948 107.411 117.985 108.42 118.468C109.131 118.841 110.663 119.659 111.785 120.366C112.906 121.036 114.065 121.594 114.327 121.631C114.663 121.631 114.775 120.627 114.7 117.65C114.663 114.264 114.738 113.594 115.336 112.999C115.71 112.627 116.532 112.329 117.168 112.329ZM152.156 112.329C152.791 112.329 153.614 112.664 154.025 113.073C154.66 113.706 154.772 114.301 154.772 117.724C154.772 120.068 154.922 121.631 155.146 121.631C155.333 121.631 156.791 120.887 158.323 119.957C159.856 119.027 161.501 118.171 161.987 118.059C162.51 117.948 163.183 118.134 163.856 118.617C164.491 119.101 164.865 119.734 164.865 120.329C164.865 120.85 164.716 121.557 164.529 121.892C164.379 122.264 162.772 123.38 160.978 124.422C159.221 125.426 157.763 126.356 157.763 126.468C157.763 126.58 159.071 127.398 160.641 128.328C162.248 129.221 163.856 130.3 164.23 130.635C164.566 131.007 164.865 131.789 164.865 132.421C164.865 133.203 164.566 133.761 163.856 134.319C163.258 134.728 162.473 134.989 162.062 134.877C161.65 134.765 159.968 133.947 158.323 133.017C156.679 132.086 155.221 131.305 155.071 131.305C154.884 131.305 154.772 133.017 154.772 135.1C154.772 137.891 154.623 139.156 154.212 139.751C153.8 140.384 153.277 140.607 152.343 140.607C151.52 140.607 150.735 140.309 150.287 139.863C149.614 139.193 149.539 138.635 149.539 130.933L146.1 132.979C144.194 134.096 142.362 135.026 142.063 135.026C141.764 135.026 141.054 134.728 140.493 134.282C139.82 133.835 139.446 133.203 139.446 132.607C139.446 132.086 139.558 131.417 139.745 131.082C139.895 130.747 141.502 129.631 143.297 128.552C145.091 127.51 146.586 126.58 146.586 126.468C146.549 126.356 145.053 125.389 143.184 124.31C140.53 122.785 139.783 122.152 139.596 121.333C139.484 120.775 139.558 119.957 139.783 119.473C140.007 119.027 140.605 118.468 141.128 118.282C141.652 118.059 142.362 118.022 142.736 118.171C143.072 118.32 144.754 119.25 149.539 122.003V117.91C149.539 114.301 149.614 113.743 150.287 113.073C150.698 112.664 151.52 112.329 152.156 112.329Z" fill="white"/>
</svg>
