<svg width="17" height="12" viewBox="0 0 17 12" fill="none" xmlns="http://www.w3.org/2000/svg">
<path d="M9.71429 4.8C9.71429 5.43652 9.45842 6.04697 9.00297 6.49706C8.54753 6.94714 7.92981 7.2 7.28571 7.2C6.64162 7.2 6.0239 6.94714 5.56845 6.49706C5.11301 6.04697 4.85714 5.43652 4.85714 4.8C4.85714 4.16348 5.11301 3.55303 5.56845 3.10294C6.0239 2.65286 6.64162 2.4 7.28571 2.4C7.92981 2.4 8.54753 2.65286 9.00297 3.10294C9.45842 3.55303 9.71429 4.16348 9.71429 4.8ZM8.5 4.8C8.5 4.48174 8.37207 4.17652 8.14434 3.95147C7.91662 3.72643 7.60776 3.6 7.28571 3.6C6.96367 3.6 6.65481 3.72643 6.42708 3.95147C6.19936 4.17652 6.07143 4.48174 6.07143 4.8C6.07143 5.11826 6.19936 5.42348 6.42708 5.64853C6.65481 5.87357 6.96367 6 7.28571 6C7.60776 6 7.91662 5.87357 8.14434 5.64853C8.37207 5.42348 8.5 5.11826 8.5 4.8ZM0 1.5C0 0.672 0.68 0 1.51786 0H13.0536C13.8914 0 14.5714 0.672 14.5714 1.5V8.1C14.5714 8.928 13.8914 9.6 13.0536 9.6H1.51786C0.68 9.6 0 8.928 0 8.1V1.5ZM1.51786 1.2C1.43735 1.2 1.36013 1.23161 1.3032 1.28787C1.24627 1.34413 1.21429 1.42044 1.21429 1.5V2.4H1.82143C1.98245 2.4 2.13688 2.33679 2.25074 2.22426C2.3646 2.11174 2.42857 1.95913 2.42857 1.8V1.2H1.51786ZM1.21429 8.1C1.21429 8.2656 1.35029 8.4 1.51786 8.4H2.42857V7.8C2.42857 7.64087 2.3646 7.48826 2.25074 7.37574C2.13688 7.26321 1.98245 7.2 1.82143 7.2H1.21429V8.1ZM3.64286 7.8V8.4H10.9286V7.8C10.9286 7.32261 11.1205 6.86477 11.4621 6.52721C11.8036 6.18964 12.2669 6 12.75 6H13.3571V3.6H12.75C12.2669 3.6 11.8036 3.41036 11.4621 3.07279C11.1205 2.73523 10.9286 2.27739 10.9286 1.8V1.2H3.64286V1.8C3.64286 2.27739 3.45096 2.73523 3.10937 3.07279C2.76779 3.41036 2.3045 3.6 1.82143 3.6H1.21429V6H1.82143C2.3045 6 2.76779 6.18964 3.10937 6.52721C3.45096 6.86477 3.64286 7.32261 3.64286 7.8ZM12.1429 8.4H13.0536C13.1341 8.4 13.2113 8.36839 13.2682 8.31213C13.3252 8.25587 13.3571 8.17957 13.3571 8.1V7.2H12.75C12.589 7.2 12.4345 7.26321 12.3207 7.37574C12.2068 7.48826 12.1429 7.64087 12.1429 7.8V8.4ZM13.3571 2.4V1.5C13.3571 1.42044 13.3252 1.34413 13.2682 1.28787C13.2113 1.23161 13.1341 1.2 13.0536 1.2H12.1429V1.8C12.1429 1.95913 12.2068 2.11174 12.3207 2.22426C12.4345 2.33679 12.589 2.4 12.75 2.4H13.3571ZM4.25 12C3.86534 12.0001 3.4905 11.8799 3.17922 11.6566C2.86795 11.4333 2.6362 11.1183 2.51721 10.7568C2.686 10.7856 2.85843 10.8 3.03571 10.8H13.0536C13.7782 10.8 14.4731 10.5155 14.9855 10.0092C15.4979 9.50284 15.7857 8.81608 15.7857 8.1V2.502C16.141 2.62613 16.4486 2.8561 16.666 3.16021C16.8835 3.46432 17.0002 3.82761 17 4.2V8.1C17 8.61216 16.8979 9.1193 16.6996 9.59247C16.5013 10.0656 16.2106 10.4956 15.8441 10.8577C15.4777 11.2199 15.0426 11.5071 14.5638 11.7031C14.085 11.8991 13.5718 12 13.0536 12H4.25Z" fill="#6B6B6B"/>
</svg>
