<svg width="14" height="14" viewBox="0 0 14 14" fill="none" xmlns="http://www.w3.org/2000/svg">
<path d="M9.66633 10.7256C8.46227 11.6603 6.94732 12.1009 5.42983 11.9579C3.91235 11.8148 2.50641 11.0988 1.49819 9.95566C0.489981 8.81247 -0.0447204 7.32801 0.00293194 5.80445C0.0505843 4.28088 0.677008 2.83275 1.75469 1.7548C2.83257 0.677051 4.28061 0.0505875 5.80408 0.00293212C7.32754 -0.0447232 8.81191 0.490012 9.95502 1.49829C11.0981 2.50657 11.8141 3.9126 11.9571 5.43018C12.1002 6.94776 11.6595 8.46281 10.7249 9.66695L13.761 12.7032C13.8596 12.7947 13.9316 12.9112 13.9696 13.0403C14.0076 13.1694 14.01 13.3063 13.9767 13.4367C13.9434 13.567 13.8755 13.686 13.7802 13.781C13.685 13.876 13.5658 13.9436 13.4354 13.9766C13.3052 14.01 13.1684 14.0076 13.0394 13.9698C12.9104 13.932 12.794 13.8602 12.7024 13.7618L9.66633 10.7256ZM10.4853 5.99152C10.4941 5.39587 10.3845 4.8044 10.1627 4.25151C9.94092 3.69862 9.61141 3.19536 9.19335 2.77099C8.77529 2.34663 8.27703 2.00963 7.72754 1.77961C7.17806 1.54959 6.58832 1.43113 5.99264 1.43113C5.39696 1.43113 4.80723 1.54959 4.25774 1.77961C3.70826 2.00963 3.20999 2.34663 2.79193 2.77099C2.37388 3.19536 2.04437 3.69862 1.82258 4.25151C1.60079 4.8044 1.49115 5.39587 1.50003 5.99152C1.51762 7.17151 1.99869 8.29722 2.8393 9.12545C3.67992 9.95368 4.8126 10.4179 5.99264 10.4179C7.17269 10.4179 8.30537 9.95368 9.14598 9.12545C9.9866 8.29722 10.4677 7.17151 10.4853 5.99152Z" fill="#1E1E1E"/>
</svg>
