<svg width="45" height="50" viewBox="0 0 45 50" fill="none" xmlns="http://www.w3.org/2000/svg">
<path d="M0.550587 19.0966C0.259456 18.8879 0.0822823 18.6266 0.0190654 18.3127C-0.0441516 17.9988 0.0498425 17.6757 0.301047 17.3435C2.87963 13.7955 6.11368 11.0405 10.0032 9.07871C13.8927 7.11687 18.0409 6.13596 22.4478 6.13596C26.8563 6.13596 31.0153 7.08599 34.9248 8.98604C38.8343 10.8861 42.0991 13.6302 44.7193 17.2182C44.9688 17.5939 45.052 17.9278 44.9688 18.22C44.8856 18.5122 44.7193 18.7627 44.4697 18.9714C44.2202 19.1801 43.9291 19.2744 43.5963 19.2544C43.2636 19.2343 42.9725 19.0565 42.7229 18.7209C40.4355 15.4651 37.4934 12.9715 33.8967 11.2401C30.3 9.50865 26.4837 8.6421 22.4478 8.64043C18.4135 8.64043 14.6288 9.50698 11.0937 11.2401C7.55852 12.9732 4.62642 15.4668 2.29737 18.7209C2.04783 19.0966 1.7567 19.3053 1.42398 19.347C1.09126 19.3888 0.800128 19.3053 0.550587 19.0966ZM29.4973 49.9642C25.1719 48.8789 21.6368 46.7184 18.8918 43.4826C16.1469 40.2469 14.7744 36.2923 14.7744 31.619C14.7744 29.5319 15.523 27.7788 17.0203 26.3596C18.5175 24.9404 20.3267 24.2308 22.4478 24.2308C24.5689 24.2308 26.378 24.9404 27.8753 26.3596C29.3725 27.7788 30.1211 29.5319 30.1211 31.619C30.1211 32.9964 30.641 34.1552 31.6808 35.0952C32.7205 36.0352 33.9474 36.5044 35.3615 36.5027C36.7756 36.5027 37.9817 36.0327 38.9798 35.0927C39.978 34.1527 40.4771 32.9948 40.4771 31.619C40.4771 26.777 38.7095 22.7072 35.1743 19.4097C31.6392 16.1121 27.4178 14.4633 22.5102 14.4633C17.6025 14.4633 13.3811 16.1121 9.84597 19.4097C6.31081 22.7072 4.54324 26.7561 4.54324 31.5563C4.54324 32.5581 4.63723 33.8104 4.82522 35.3131C5.0132 36.8157 5.45988 38.5689 6.16525 40.5724C6.29002 40.9481 6.28004 41.282 6.1353 41.5742C5.99057 41.8664 5.75101 42.0751 5.41663 42.2004C5.08391 42.3256 4.76117 42.3147 4.44841 42.1678C4.13565 42.0209 3.91772 41.7813 3.79462 41.449C3.17076 39.8211 2.72409 38.2032 2.45458 36.5953C2.18508 34.9875 2.04949 33.3287 2.04783 31.619C2.04783 26.0674 4.05497 21.4132 8.06924 17.6565C12.0835 13.8998 16.8764 12.0215 22.4478 12.0215C28.0624 12.0215 32.8869 13.8998 36.9211 17.6565C40.9554 21.4132 42.9725 26.0674 42.9725 31.619C42.9725 33.706 42.2347 35.4483 40.7591 36.8458C39.2834 38.2433 37.4843 38.9429 35.3615 38.9445C33.2404 38.9445 31.4204 38.245 29.9015 36.8458C28.3827 35.4466 27.6241 33.7043 27.6257 31.619C27.6257 30.2415 27.1167 29.0828 26.0986 28.1428C25.0804 27.2027 23.8635 26.7336 22.4478 26.7352C21.0337 26.7352 19.8168 27.2052 18.797 28.1453C17.7772 29.0853 17.2681 30.2432 17.2698 31.619C17.2698 35.6679 18.4659 39.0489 20.8582 41.7621C23.2505 44.4753 26.3381 46.3745 30.1211 47.4597C30.4955 47.585 30.745 47.7937 30.8698 48.0859C30.9945 48.3781 31.0153 48.6911 30.9322 49.025C30.849 49.3172 30.6826 49.5677 30.4331 49.7764C30.1835 49.9851 29.8716 50.0477 29.4973 49.9642ZM8.66066 6.01073C8.32793 6.21944 7.99521 6.27203 7.66249 6.16851C7.32977 6.065 7.08023 5.84544 6.91387 5.50984C6.74751 5.17591 6.70592 4.8737 6.7891 4.60322C6.87228 4.33274 7.08023 4.09231 7.41295 3.88193C9.742 2.6297 12.175 1.66965 14.712 1.00179C17.249 0.333929 19.8276 0 22.4478 0C25.1095 0 27.7089 0.323912 30.2459 0.971735C32.7829 1.61956 35.2367 2.54788 37.6074 3.75671C37.9817 3.96541 38.2004 4.21586 38.2637 4.50805C38.3269 4.80024 38.2953 5.09243 38.1688 5.38461C38.0441 5.6768 37.8361 5.90638 37.545 6.07334C37.2538 6.24031 36.9003 6.21944 36.4844 6.01073C34.2802 4.88372 32.0027 4.01717 29.652 3.41109C27.3013 2.80501 24.8999 2.5028 22.4478 2.50447C20.0355 2.50447 17.6649 2.78664 15.3359 3.35098C13.0068 3.91532 10.7817 4.80191 8.66066 6.01073ZM16.0221 49.0877C13.5683 46.4997 11.6859 43.8591 10.375 41.166C9.06408 38.4729 8.40945 35.2905 8.41111 31.619C8.41111 27.8205 9.78359 24.6165 12.5285 22.0068C15.2735 19.3971 18.5799 18.0931 22.4478 18.0948C26.3156 18.0948 29.6429 19.3996 32.4294 22.0093C35.2159 24.619 36.6092 27.8222 36.6092 31.619C36.6092 31.9946 36.4944 32.2977 36.2648 32.5281C36.0353 32.7585 35.7341 32.8729 35.3615 32.8712C35.0288 32.8712 34.7376 32.756 34.4881 32.5256C34.2386 32.2952 34.1138 31.993 34.1138 31.619C34.1138 28.4884 32.9593 25.8687 30.6502 23.7599C28.3411 21.6512 25.607 20.5976 22.4478 20.5993C19.2869 20.5993 16.5728 21.6537 14.3053 23.7624C12.0378 25.8712 10.9049 28.49 10.9065 31.619C10.9065 35 11.4888 37.8701 12.6533 40.2293C13.8178 42.5885 15.523 44.9569 17.7689 47.3345C18.0184 47.585 18.1432 47.8772 18.1432 48.2111C18.1432 48.545 18.0184 48.8372 17.7689 49.0877C17.5193 49.3381 17.2282 49.4633 16.8955 49.4633C16.5628 49.4633 16.2716 49.3381 16.0221 49.0877ZM34.8624 44.83C31.1609 44.83 27.9476 43.5778 25.2227 41.0733C22.4977 38.5689 21.136 35.4174 21.1377 31.619C21.1377 31.285 21.2525 30.9928 21.482 30.7424C21.7116 30.4919 22.0127 30.3667 22.3854 30.3667C22.7597 30.3667 23.0616 30.4919 23.2912 30.7424C23.5208 30.9928 23.6348 31.285 23.6331 31.619C23.6331 34.7495 24.756 37.3166 27.0019 39.3202C29.2478 41.3238 31.8679 42.3256 34.8624 42.3256C35.112 42.3256 35.4655 42.3047 35.923 42.263C36.3805 42.2212 36.8587 42.1586 37.3578 42.0751C37.7321 41.9916 38.0549 42.0442 38.326 42.2329C38.5972 42.4216 38.7735 42.7029 38.8551 43.0769C38.9382 43.4109 38.8759 43.703 38.6679 43.9535C38.46 44.2039 38.1896 44.3709 37.8569 44.4544C37.1083 44.6631 36.4537 44.7783 35.893 44.8C35.3324 44.8217 34.9888 44.8317 34.8624 44.83Z" fill="#1B608C"/>
</svg>
