<svg width="12" height="24" viewBox="0 0 12 24" fill="none" xmlns="http://www.w3.org/2000/svg">
<path fill-rule="evenodd" clip-rule="evenodd" d="M5.35335 0.266424C5.43834 0.181968 5.5393 0.114964 5.65043 0.0692481C5.76157 0.0235317 5.8807 0 6.00102 0C6.12133 0 6.24047 0.0235317 6.3516 0.0692481C6.46274 0.114964 6.56369 0.181968 6.64869 0.266424L11.7324 5.30835C11.9039 5.47871 12.0002 5.70966 12 5.9504C11.9998 6.19113 11.9032 6.42194 11.7314 6.59203C11.5597 6.76212 11.3268 6.85757 11.0841 6.85738C10.8413 6.85719 10.6086 6.76138 10.4371 6.59102L6.91711 3.09797V20.902L10.4371 17.409C10.6086 17.2386 10.8413 17.1428 11.0841 17.1426C11.3268 17.1424 11.5597 17.2379 11.7314 17.408C11.9032 17.5781 11.9998 17.8089 12 18.0496C12.0002 18.2903 11.9039 18.5213 11.7324 18.6917L6.64869 23.7336C6.56369 23.818 6.46274 23.885 6.3516 23.9308C6.24047 23.9765 6.12133 24 6.00102 24C5.8807 24 5.76157 23.9765 5.65043 23.9308C5.5393 23.885 5.43834 23.818 5.35335 23.7336L0.269589 18.6917C0.0980858 18.5213 0.00184296 18.2903 0.00203364 18.0496C0.00222432 17.8089 0.0988323 17.5781 0.270605 17.408C0.442378 17.2379 0.675245 17.1424 0.917978 17.1426C1.16071 17.1428 1.39343 17.2386 1.56493 17.409L5.08696 20.902V3.09797L1.5629 6.59102C1.39139 6.76138 1.15868 6.85719 0.915945 6.85738C0.673212 6.85757 0.440345 6.76212 0.268572 6.59203C0.096799 6.42194 0.000190961 6.19113 2.82792e-07 5.9504C-0.000190395 5.70966 0.0960515 5.47871 0.267555 5.30835L5.35131 0.266424H5.35335Z" fill="#6B6B6B"/>
</svg>
