<svg width="16" height="16" viewBox="0 0 16 16" fill="none" xmlns="http://www.w3.org/2000/svg">
<path d="M3.33333 0C2.44928 0 1.60143 0.351189 0.976311 0.976311C0.351189 1.60143 0 2.44928 0 3.33333V12.6667C0 13.5507 0.351189 14.3986 0.976311 15.0237C1.60143 15.6488 2.44928 16 3.33333 16H12.6667C13.5507 16 14.3986 15.6488 15.0237 15.0237C15.6488 14.3986 16 13.5507 16 12.6667V3.33333C16 2.44928 15.6488 1.60143 15.0237 0.976311C14.3986 0.351189 13.5507 0 12.6667 0H3.33333ZM1.33333 3.33333C1.33333 2.8029 1.54405 2.29419 1.91912 1.91912C2.29419 1.54405 2.8029 1.33333 3.33333 1.33333H12.6667C13.1971 1.33333 13.7058 1.54405 14.0809 1.91912C14.456 2.29419 14.6667 2.8029 14.6667 3.33333V12.6667C14.6667 13.1971 14.456 13.7058 14.0809 14.0809C13.7058 14.456 13.1971 14.6667 12.6667 14.6667H3.33333C2.8029 14.6667 2.29419 14.456 1.91912 14.0809C1.54405 13.7058 1.33333 13.1971 1.33333 12.6667V3.33333ZM4 4C3.82319 4 3.65362 4.07024 3.5286 4.19526C3.40357 4.32029 3.33333 4.48986 3.33333 4.66667C3.33333 4.84348 3.40357 5.01305 3.5286 5.13807C3.65362 5.2631 3.82319 5.33333 4 5.33333H12C12.1768 5.33333 12.3464 5.2631 12.4714 5.13807C12.5964 5.01305 12.6667 4.84348 12.6667 4.66667C12.6667 4.48986 12.5964 4.32029 12.4714 4.19526C12.3464 4.07024 12.1768 4 12 4H4Z" fill="#6B6B6B"/>
</svg>
