<svg width="17" height="19" viewBox="0 0 17 19" fill="none" xmlns="http://www.w3.org/2000/svg">
<path fill-rule="evenodd" clip-rule="evenodd" d="M8.5 1.9C6.41359 1.9 4.72222 3.60132 4.72222 5.7C4.72222 7.79868 6.41359 9.5 8.5 9.5C10.5864 9.5 12.2778 7.79868 12.2778 5.7C12.2778 3.60132 10.5864 1.9 8.5 1.9ZM11.9387 10.2309C13.293 9.18933 14.1667 7.54729 14.1667 5.7C14.1667 2.55198 11.6296 0 8.5 0C5.37039 0 2.83333 2.55198 2.83333 5.7C2.83333 7.54729 3.70696 9.18933 5.06129 10.2309C4.11167 10.6535 3.23803 11.2514 2.48959 12.0042C0.895533 13.6077 0 15.7824 0 18.05C0 18.5747 0.422842 19 0.944444 19C1.46605 19 1.88889 18.5747 1.88889 18.05C1.88889 16.2863 2.58541 14.5949 3.82524 13.3477C5.06506 12.1006 6.74662 11.4 8.5 11.4C10.2534 11.4 11.9349 12.1006 13.1748 13.3477C14.4146 14.5949 15.1111 16.2863 15.1111 18.05C15.1111 18.5747 15.534 19 16.0556 19C16.5772 19 17 18.5747 17 18.05C17 15.7824 16.1045 13.6077 14.5104 12.0042C13.762 11.2514 12.8883 10.6535 11.9387 10.2309Z" fill="#6B6B6B"/>
</svg>
