<svg width="16" height="8" viewBox="0 0 16 8" fill="none" xmlns="http://www.w3.org/2000/svg">
<path d="M0.105757 4.25519L3.74193 7.87352C3.87255 8.02529 4.1021 8.04298 4.25463 7.91298C4.40715 7.783 4.42493 7.55458 4.29428 7.4028C4.28209 7.38865 4.26884 7.37544 4.25463 7.36334L1.24023 4.36013H15.6359C15.8367 4.36013 15.9995 4.19813 15.9995 3.99828C15.9995 3.79843 15.8367 3.63646 15.6359 3.63646H1.24023L4.25463 0.636886C4.40715 0.506909 4.42493 0.278486 4.29428 0.126711C4.16363 -0.0250637 3.93411 -0.0427562 3.78159 0.0872521C3.76737 0.099379 3.75409 0.112563 3.74193 0.126711L0.105725 3.74504C-0.0352372 3.88612 -0.0352372 4.11405 0.105757 4.25519Z" fill="white"/>
</svg>
