<svg width="18" height="18" viewBox="0 0 18 18" fill="none" xmlns="http://www.w3.org/2000/svg">
<path d="M16.5293 9.59392C16.3824 9.4297 16.3014 9.21859 16.3014 9C16.3014 8.78141 16.3824 8.5703 16.5293 8.40608L17.7019 7.11026C17.8311 6.96868 17.9113 6.79053 17.9311 6.60138C17.9508 6.41223 17.9091 6.2218 17.8118 6.0574L15.9797 2.94382C15.8834 2.77961 15.7368 2.64945 15.5608 2.57189C15.3848 2.49433 15.1883 2.47333 14.9994 2.51188L13.2772 2.85384C13.0581 2.89832 12.8299 2.86246 12.6358 2.75305C12.4418 2.64363 12.2952 2.46822 12.2237 2.25992L11.6649 0.613141C11.6034 0.434406 11.4864 0.279164 11.3302 0.169359C11.174 0.0595529 10.9867 0.000736816 10.7946 0.0012238H7.13029C6.93052 -0.00901865 6.73283 0.0452515 6.56742 0.155745C6.402 0.266239 6.27795 0.426883 6.21421 0.613141L5.7012 2.25992C5.62975 2.46822 5.48315 2.64363 5.28907 2.75305C5.09499 2.86246 4.86685 2.89832 4.6477 2.85384L2.87966 2.51188C2.70062 2.48703 2.51809 2.51478 2.35507 2.59165C2.19205 2.66851 2.05583 2.79105 1.96358 2.94382L0.131413 6.0574C0.0317066 6.21996 -0.0131247 6.40933 0.00332863 6.59843C0.0197819 6.78753 0.0966773 6.96667 0.223021 7.11026L1.38645 8.40608C1.53331 8.5703 1.61431 8.78141 1.61431 9C1.61431 9.21859 1.53331 9.4297 1.38645 9.59392L0.223021 10.8897C0.0966773 11.0333 0.0197819 11.2125 0.00332863 11.4016C-0.0131247 11.5907 0.0317066 11.78 0.131413 11.9426L1.96358 15.0562C2.05986 15.2204 2.20645 15.3505 2.38246 15.4281C2.55847 15.5057 2.75492 15.5267 2.94379 15.4881L4.66603 15.1462C4.88517 15.1017 5.11331 15.1375 5.30739 15.247C5.50147 15.3564 5.64807 15.5318 5.71952 15.7401L6.27833 17.3869C6.34207 17.5731 6.46613 17.7338 6.63154 17.8443C6.79696 17.9547 6.99465 18.009 7.19442 17.9988H10.8588C11.0508 17.9993 11.2382 17.9404 11.3943 17.8306C11.5505 17.7208 11.6676 17.5656 11.729 17.3869L12.2878 15.7401C12.3593 15.5318 12.5059 15.3564 12.7 15.247C12.8941 15.1375 13.1222 15.1017 13.3413 15.1462L15.0636 15.4881C15.2524 15.5267 15.4489 15.5057 15.6249 15.4281C15.8009 15.3505 15.9475 15.2204 16.0438 15.0562L17.876 11.9426C17.9732 11.7782 18.015 11.5878 17.9952 11.3986C17.9755 11.2095 17.8952 11.0313 17.766 10.8897L16.5293 9.59392ZM15.1643 10.7998L15.8972 11.6096L14.7246 13.6074L13.6436 13.3914C12.9839 13.2589 12.2975 13.369 11.7149 13.7008C11.1323 14.0325 10.694 14.5629 10.4832 15.1912L10.135 16.199H7.78987L7.46008 15.1732C7.24925 14.5449 6.81093 14.0146 6.22832 13.6828C5.64571 13.351 4.95938 13.2409 4.29959 13.3734L3.21861 13.5894L2.02771 11.6006L2.76057 10.7908C3.21124 10.2958 3.4604 9.65505 3.4604 8.991C3.4604 8.32695 3.21124 7.6862 2.76057 7.19125L2.02771 6.38136L3.20029 4.40163L4.28127 4.6176C4.94105 4.75008 5.62739 4.63999 6.21 4.30822C6.79261 3.97645 7.23093 3.4461 7.44176 2.81784L7.78987 1.80098H10.135L10.4832 2.82684C10.694 3.4551 11.1323 3.98545 11.7149 4.31722C12.2975 4.64898 12.9839 4.75908 13.6436 4.62659L14.7246 4.41062L15.8972 6.40835L15.1643 7.21824C14.7187 7.71206 14.4727 8.3491 14.4727 9.009C14.4727 9.6689 14.7187 10.3059 15.1643 10.7998ZM8.96246 5.40049C8.23772 5.40049 7.52926 5.6116 6.92666 6.00712C6.32407 6.40264 5.8544 6.9648 5.57705 7.62253C5.29971 8.28025 5.22714 9.00399 5.36853 9.70223C5.50992 10.4005 5.85892 11.0418 6.37138 11.5452C6.88385 12.0486 7.53677 12.3915 8.24758 12.5303C8.95839 12.6692 9.69517 12.598 10.3647 12.3255C11.0343 12.0531 11.6066 11.5917 12.0092 10.9998C12.4119 10.4078 12.6268 9.71192 12.6268 9C12.6268 8.04535 12.2407 7.1298 11.5535 6.45476C10.8663 5.77972 9.9343 5.40049 8.96246 5.40049ZM8.96246 10.7998C8.60009 10.7998 8.24586 10.6942 7.94456 10.4964C7.64326 10.2987 7.40843 10.0176 7.26976 9.68874C7.13108 9.35987 7.0948 8.998 7.1655 8.64888C7.23619 8.29977 7.41069 7.97908 7.66692 7.72738C7.92315 7.47568 8.24961 7.30427 8.60502 7.23483C8.96043 7.16538 9.32881 7.20102 9.6636 7.33724C9.99838 7.47346 10.2845 7.70414 10.4859 8.00011C10.6872 8.29608 10.7946 8.64404 10.7946 9C10.7946 9.47732 10.6016 9.9351 10.258 10.2726C9.9144 10.6101 9.44838 10.7998 8.96246 10.7998Z" fill="#6B6B6B"/>
</svg>
