<svg width="20" height="21" viewBox="0 0 20 21" fill="none" xmlns="http://www.w3.org/2000/svg">
<path d="M11.3231 14.7356H7.98138V12.3972H5.643V9.0555H7.98138V6.71712H11.3231V9.0555H13.6615V12.3972H11.3231V14.7356Z" stroke="#6B6B6B" stroke-width="1.5" stroke-linecap="round" stroke-linejoin="round"/>
<path d="M2.63608 16.7402L0.761762 3.623C0.7261 3.3733 0.786276 3.11937 0.930194 2.91223C1.07411 2.70509 1.2911 2.56011 1.53755 2.50643L9.21723 0.799497C9.50373 0.735808 9.80072 0.735808 10.0872 0.799497L17.7669 2.50743C18.2781 2.62069 18.6169 3.1048 18.5427 3.624L16.6684 16.7402C16.5982 17.2363 16.1672 20.2483 9.65223 20.2483C3.13723 20.2483 2.70624 17.2363 2.63608 16.7402Z" stroke="#6B6B6B" stroke-width="1.5" stroke-linecap="round" stroke-linejoin="round"/>
</svg>
