<svg width="4" height="8" viewBox="0 0 4 8" fill="none" xmlns="http://www.w3.org/2000/svg">
<path d="M0.177646 0.195098C0.121333 0.256539 0.0766562 0.32952 0.0461734 0.409863C0.0156906 0.490205 0 0.576332 0 0.663313C0 0.750293 0.0156906 0.83642 0.0461734 0.916763C0.0766562 0.997105 0.121333 1.07009 0.177646 1.13153L2.53456 3.70837L0.177646 6.28521C0.0640659 6.40939 0.000257214 6.57781 0.000257214 6.75343C0.000257214 6.92904 0.0640659 7.09747 0.177646 7.22164C0.291226 7.34582 0.445273 7.41558 0.605899 7.41558C0.766525 7.41558 0.920572 7.34582 1.03415 7.22164L3.82236 4.17326C3.87867 4.11182 3.92334 4.03884 3.95383 3.9585C3.98431 3.87816 4 3.79203 4 3.70505C4 3.61807 3.98431 3.53194 3.95383 3.4516C3.92334 3.37126 3.87867 3.29828 3.82236 3.23684L1.03415 0.188456C0.803321 -0.063915 0.414552 -0.0639148 0.177646 0.195098Z" fill="#1E1E1E"/>
</svg>
