<svg width="18" height="14" viewBox="0 0 18 14" fill="none" xmlns="http://www.w3.org/2000/svg">
<path d="M16.3333 2.15385H13.5L12.825 0.407693C12.7784 0.288208 12.6929 0.184927 12.5803 0.111957C12.4677 0.0389873 12.3334 -0.000112042 12.1958 2.41159e-07H5.80417C5.52292 2.41159e-07 5.27083 0.163462 5.17708 0.407693L4.5 2.15385H1.66667C0.745833 2.15385 0 2.84231 0 3.69231V12.4615C0 13.3115 0.745833 14 1.66667 14H16.3333C17.2542 14 18 13.3115 18 12.4615V3.69231C18 2.84231 17.2542 2.15385 16.3333 2.15385ZM9 10.9231C7.15833 10.9231 5.66667 9.54615 5.66667 7.84615C5.66667 6.14615 7.15833 4.76923 9 4.76923C10.8417 4.76923 12.3333 6.14615 12.3333 7.84615C12.3333 9.54615 10.8417 10.9231 9 10.9231ZM7 7.84615C7 8.33578 7.21071 8.80536 7.58579 9.15158C7.96086 9.4978 8.46957 9.69231 9 9.69231C9.53043 9.69231 10.0391 9.4978 10.4142 9.15158C10.7893 8.80536 11 8.33578 11 7.84615C11 7.35652 10.7893 6.88695 10.4142 6.54073C10.0391 6.1945 9.53043 6 9 6C8.46957 6 7.96086 6.1945 7.58579 6.54073C7.21071 6.88695 7 7.35652 7 7.84615Z" fill="#1B608C"/>
</svg>
