<svg width="17" height="20" viewBox="0 0 17 20" fill="none" xmlns="http://www.w3.org/2000/svg">
<path d="M2.125 1.42857H10.4479C10.9367 1.42857 11.3333 1.82857 11.3333 2.32143V8.57143C11.3333 8.76087 11.408 8.94255 11.5408 9.0765C11.6736 9.21046 11.8538 9.28571 12.0417 9.28571H14.6979C15.1867 9.28571 15.5833 9.68571 15.5833 10.1786V18.5714H13.4583V16.0714C13.4583 15.7873 13.3464 15.5147 13.1471 15.3138C12.9479 15.1129 12.6776 15 12.3958 15H4.60417C4.32237 15 4.05212 15.1129 3.85287 15.3138C3.65361 15.5147 3.54167 15.7873 3.54167 16.0714V18.5714H1.41667V2.14286C1.41667 1.95342 1.49129 1.77174 1.62413 1.63778C1.75697 1.50383 1.93714 1.42857 2.125 1.42857ZM12.0417 18.5714H9.20833V16.4286H12.0417V18.5714ZM7.79167 18.5714H4.95833V16.4286H7.79167V18.5714ZM16.2917 20C16.4795 20 16.6597 19.9247 16.7925 19.7908C16.9254 19.6568 17 19.4752 17 19.2857V10.1786C17 9.87372 16.9405 9.57185 16.8248 9.2902C16.7091 9.00855 16.5395 8.75264 16.3257 8.53707C16.112 8.32151 15.8582 8.15051 15.5789 8.03385C15.2996 7.91719 15.0002 7.85714 14.6979 7.85714H12.75V2.32143C12.75 2.01657 12.6905 1.71471 12.5748 1.43306C12.4591 1.15141 12.2895 0.895495 12.0757 0.679931C11.862 0.464366 11.6082 0.293371 11.3289 0.176708C11.0496 0.0600455 10.7502 0 10.4479 0H2.125C1.56141 0 1.02091 0.225765 0.622398 0.627628C0.223883 1.02949 0 1.57454 0 2.14286V19.2857C0 19.4752 0.0746279 19.6568 0.207466 19.7908C0.340304 19.9247 0.520472 20 0.708333 20H16.2917ZM4.60417 5.71429C4.88596 5.71429 5.15621 5.6014 5.35547 5.40047C5.55473 5.19954 5.66667 4.92702 5.66667 4.64286C5.66667 4.3587 5.55473 4.08617 5.35547 3.88524C5.15621 3.68431 4.88596 3.57143 4.60417 3.57143C4.32237 3.57143 4.05212 3.68431 3.85287 3.88524C3.65361 4.08617 3.54167 4.3587 3.54167 4.64286C3.54167 4.92702 3.65361 5.19954 3.85287 5.40047C4.05212 5.6014 4.32237 5.71429 4.60417 5.71429ZM4.60417 9.28571C4.88596 9.28571 5.15621 9.17283 5.35547 8.9719C5.55473 8.77097 5.66667 8.49845 5.66667 8.21429C5.66667 7.93013 5.55473 7.6576 5.35547 7.45667C5.15621 7.25574 4.88596 7.14286 4.60417 7.14286C4.32237 7.14286 4.05212 7.25574 3.85287 7.45667C3.65361 7.6576 3.54167 7.93013 3.54167 8.21429C3.54167 8.49845 3.65361 8.77097 3.85287 8.9719C4.05212 9.17283 4.32237 9.28571 4.60417 9.28571ZM5.66667 11.7857C5.66667 12.0699 5.55473 12.3424 5.35547 12.5433C5.15621 12.7443 4.88596 12.8571 4.60417 12.8571C4.32237 12.8571 4.05212 12.7443 3.85287 12.5433C3.65361 12.3424 3.54167 12.0699 3.54167 11.7857C3.54167 11.5016 3.65361 11.229 3.85287 11.0281C4.05212 10.8272 4.32237 10.7143 4.60417 10.7143C4.88596 10.7143 5.15621 10.8272 5.35547 11.0281C5.55473 11.229 5.66667 11.5016 5.66667 11.7857ZM8.14583 5.71429C8.42763 5.71429 8.69788 5.6014 8.89713 5.40047C9.09639 5.19954 9.20833 4.92702 9.20833 4.64286C9.20833 4.3587 9.09639 4.08617 8.89713 3.88524C8.69788 3.68431 8.42763 3.57143 8.14583 3.57143C7.86404 3.57143 7.59379 3.68431 7.39453 3.88524C7.19527 4.08617 7.08333 4.3587 7.08333 4.64286C7.08333 4.92702 7.19527 5.19954 7.39453 5.40047C7.59379 5.6014 7.86404 5.71429 8.14583 5.71429ZM9.20833 8.21429C9.20833 8.49845 9.09639 8.77097 8.89713 8.9719C8.69788 9.17283 8.42763 9.28571 8.14583 9.28571C7.86404 9.28571 7.59379 9.17283 7.39453 8.9719C7.19527 8.77097 7.08333 8.49845 7.08333 8.21429C7.08333 7.93013 7.19527 7.6576 7.39453 7.45667C7.59379 7.25574 7.86404 7.14286 8.14583 7.14286C8.42763 7.14286 8.69788 7.25574 8.89713 7.45667C9.09639 7.6576 9.20833 7.93013 9.20833 8.21429ZM8.14583 12.8571C8.42763 12.8571 8.69788 12.7443 8.89713 12.5433C9.09639 12.3424 9.20833 12.0699 9.20833 11.7857C9.20833 11.5016 9.09639 11.229 8.89713 11.0281C8.69788 10.8272 8.42763 10.7143 8.14583 10.7143C7.86404 10.7143 7.59379 10.8272 7.39453 11.0281C7.19527 11.229 7.08333 11.5016 7.08333 11.7857C7.08333 12.0699 7.19527 12.3424 7.39453 12.5433C7.59379 12.7443 7.86404 12.8571 8.14583 12.8571ZM12.75 11.7857C12.75 12.0699 12.6381 12.3424 12.4388 12.5433C12.2395 12.7443 11.9693 12.8571 11.6875 12.8571C11.4057 12.8571 11.1355 12.7443 10.9362 12.5433C10.7369 12.3424 10.625 12.0699 10.625 11.7857C10.625 11.5016 10.7369 11.229 10.9362 11.0281C11.1355 10.8272 11.4057 10.7143 11.6875 10.7143C11.9693 10.7143 12.2395 10.8272 12.4388 11.0281C12.6381 11.229 12.75 11.5016 12.75 11.7857Z" fill="#6B6B6B"/>
</svg>
