<svg width="194" height="203" viewBox="0 0 194 203" fill="none" xmlns="http://www.w3.org/2000/svg">
<path fill-rule="evenodd" clip-rule="evenodd" d="M182.769 203H11.2309C5.0353 203 0 197.953 0 191.756V158.058C0 151.861 5.0353 146.814 11.2309 146.814H182.769C188.965 146.814 194 151.861 194 158.058V191.756C194 197.953 188.965 203 182.769 203ZM11.2309 151.466C7.60365 151.466 4.64104 154.421 4.64104 158.058V191.756C4.64104 195.393 7.59801 198.354 11.2309 198.354H182.769C186.402 198.354 189.359 195.393 189.359 191.756V158.058C189.359 154.421 186.402 151.466 182.769 151.466H11.2309Z" fill="white"/>
<path d="M40.243 190.955C38.9588 190.955 37.9169 189.912 37.9169 188.632V161.188C37.9169 159.902 38.9588 158.864 40.243 158.864C41.5215 158.864 42.5635 159.902 42.5635 161.188V188.632C42.5635 189.912 41.5215 190.955 40.243 190.955Z" fill="white"/>
<path d="M52.1047 184.093C51.7104 184.093 51.3105 183.991 50.9501 183.783L27.2098 170.058C26.0946 169.42 25.7172 167.999 26.3593 166.883C27.0014 165.772 28.4207 165.389 29.5303 166.031L53.2649 179.757C54.3801 180.399 54.7575 181.82 54.1154 182.931C53.693 183.676 52.9101 184.093 52.1047 184.093Z" fill="white"/>
<path d="M28.3757 184.093C27.5703 184.093 26.793 183.676 26.3593 182.931C25.7172 181.82 26.0946 180.399 27.2098 179.757L50.9501 166.031C52.0596 165.389 53.479 165.772 54.1154 166.883C54.7575 167.999 54.3801 169.42 53.2649 170.058L29.5303 183.783C29.1642 183.991 28.7643 184.093 28.3757 184.093Z" fill="white"/>
<path d="M78.081 190.955C76.7968 190.955 75.7605 189.912 75.7605 188.632V161.188C75.7605 159.902 76.7968 158.864 78.081 158.864C79.3595 158.864 80.4015 159.902 80.4015 161.188V188.632C80.4015 189.912 79.3595 190.955 78.081 190.955Z" fill="white"/>
<path d="M89.9483 184.093C89.5541 184.093 89.1542 183.991 88.7881 183.783L65.0478 170.058C63.9382 169.42 63.5552 167.999 64.2029 166.883C64.8394 165.772 66.2644 165.389 67.3683 166.031L91.1086 179.757C92.2182 180.399 92.6012 181.82 91.9591 182.931C91.531 183.676 90.7481 184.093 89.9483 184.093Z" fill="white"/>
<path d="M66.2137 184.093C65.4139 184.093 64.631 183.676 64.2029 182.931C63.5552 181.82 63.9382 180.399 65.0478 179.757L88.7881 166.031C89.9033 165.389 91.3226 165.772 91.9591 166.883C92.6012 167.999 92.2182 169.42 91.1086 170.058L67.3683 183.783C67.0078 183.991 66.6079 184.093 66.2137 184.093Z" fill="white"/>
<path d="M115.919 190.955C114.635 190.955 113.598 189.912 113.598 188.632V161.188C113.598 159.902 114.635 158.864 115.919 158.864C117.203 158.864 118.24 159.902 118.24 161.188V188.632C118.24 189.912 117.203 190.955 115.919 190.955Z" fill="white"/>
<path d="M127.792 184.093C127.392 184.093 126.998 183.991 126.626 183.783L102.891 170.058C101.782 169.42 101.399 167.999 102.041 166.883C102.683 165.772 104.102 165.389 105.212 166.031L128.952 179.757C130.062 180.399 130.439 181.82 129.803 182.931C129.369 183.676 128.592 184.093 127.792 184.093Z" fill="white"/>
<path d="M104.052 184.093C103.252 184.093 102.469 183.676 102.041 182.931C101.399 181.82 101.782 180.399 102.891 179.757L126.632 166.031C127.741 165.389 129.161 165.772 129.803 166.883C130.439 167.999 130.062 169.42 128.952 170.058L105.212 183.783C104.846 183.991 104.446 184.093 104.052 184.093Z" fill="white"/>
<path d="M153.763 190.955C152.478 190.955 151.442 189.912 151.442 188.632V161.188C151.442 159.902 152.478 158.864 153.763 158.864C155.047 158.864 156.083 159.902 156.083 161.188V188.632C156.083 189.912 155.047 190.955 153.763 190.955Z" fill="white"/>
<path d="M165.63 184.093C165.236 184.093 164.836 183.991 164.47 183.783L140.735 170.058C139.625 169.42 139.242 167.999 139.879 166.883C140.521 165.772 141.94 165.389 143.056 166.031L166.796 179.757C167.905 180.399 168.283 181.82 167.641 182.931C167.213 183.676 166.43 184.093 165.63 184.093Z" fill="white"/>
<path d="M141.895 184.093C141.09 184.093 140.313 183.676 139.879 182.931C139.242 181.82 139.625 180.399 140.729 179.757L164.475 166.031C165.579 165.389 166.999 165.772 167.641 166.883C168.283 167.999 167.9 169.42 166.796 170.058L143.056 183.783C142.684 183.991 142.29 184.093 141.895 184.093Z" fill="white"/>
<path fill-rule="evenodd" clip-rule="evenodd" d="M97 137.251C59.2071 137.251 28.4545 106.462 28.4545 68.6253C28.4545 30.7827 59.2071 0 97 0C134.793 0 165.545 30.7827 165.545 68.6253C165.545 106.462 134.793 137.251 97 137.251ZM97 4.64644C61.7641 4.64644 33.0956 33.3484 33.0956 68.6253C33.0956 103.902 61.7641 132.598 97 132.598C132.236 132.598 160.899 103.902 160.899 68.6253C160.899 33.3484 132.236 4.64644 97 4.64644Z" fill="white"/>
<path fill-rule="evenodd" clip-rule="evenodd" d="M124.903 110.832C124.306 110.832 123.709 110.607 123.258 110.15L97 83.8672L70.7477 110.15C69.8409 111.058 68.3652 111.058 67.4584 110.15L55.5179 98.2012C55.0786 97.7614 54.842 97.1693 54.842 96.5547C54.842 95.9401 55.0786 95.348 55.5179 94.9081L81.7758 68.6253L55.5179 42.3368C54.6167 41.4289 54.6111 39.9515 55.5179 39.0437L67.4584 27.0949C67.8921 26.655 68.4835 26.4126 69.0974 26.4126C69.717 26.4126 70.3084 26.655 70.7421 27.0949L97 53.3834L123.258 27.0949C124.165 26.187 125.635 26.187 126.542 27.0949L138.482 39.0437C138.916 39.4835 139.164 40.0756 139.164 40.6902C139.164 41.3049 138.916 41.8969 138.482 42.3368L112.224 68.6253L138.482 94.9081C138.916 95.348 139.164 95.9401 139.164 96.5547C139.164 97.1693 138.916 97.7614 138.482 98.2012L126.542 110.15C126.091 110.607 125.494 110.832 124.903 110.832ZM97 78.2509C97.597 78.2509 98.1884 78.4764 98.6446 78.9332L124.903 105.222L133.559 96.5547L107.296 70.2662C106.389 69.3583 106.389 67.8866 107.296 66.9787L133.559 40.6902L124.903 32.0233L98.6446 58.3117C97.7378 59.2196 96.2678 59.2196 95.361 58.3117L69.0974 32.0233L60.4405 40.6902L86.7041 66.9787C87.6109 67.8866 87.6109 69.3583 86.7041 70.2662L60.4405 96.5547L69.0974 105.222L95.361 78.9332C95.8116 78.4764 96.4086 78.2509 97 78.2509Z" fill="white"/>
</svg>
