<svg width="7" height="12" viewBox="0 0 7 12" fill="none" xmlns="http://www.w3.org/2000/svg">
<path d="M0.310876 0.312278C0.21233 0.410622 0.134147 0.527437 0.0808025 0.656035C0.0274582 0.784633 0 0.922489 0 1.06171C0 1.20094 0.0274582 1.33879 0.0808025 1.46739C0.134147 1.59599 0.21233 1.7128 0.310876 1.81115L4.43543 5.9357L0.310876 10.0602C0.112114 10.259 0.00045012 10.5286 0.00045012 10.8097C0.00045012 11.0908 0.112114 11.3604 0.310876 11.5591C0.509639 11.7579 0.779219 11.8695 1.06031 11.8695C1.3414 11.8695 1.61098 11.7579 1.80975 11.5591L6.68905 6.67982C6.78759 6.58147 6.86578 6.46466 6.91912 6.33606C6.97246 6.20746 6.99992 6.06961 6.99992 5.93038C6.99992 5.79116 6.97246 5.6533 6.91912 5.5247C6.86578 5.39611 6.78759 5.27929 6.68905 5.18095L1.80975 0.301647C1.4058 -0.102304 0.725458 -0.102303 0.310876 0.312278Z" fill="white"/>
</svg>
