<svg width="17" height="20" viewBox="0 0 17 20" fill="none" xmlns="http://www.w3.org/2000/svg">
<path d="M10.625 8.57131C10.625 8.003 10.4011 7.45796 10.0026 7.05611C9.60409 6.65425 9.06358 6.42849 8.5 6.42849C7.93641 6.42849 7.39591 6.65425 6.9974 7.05611C6.59888 7.45796 6.375 8.003 6.375 8.57131C6.375 9.13963 6.59888 9.68466 6.9974 10.0865C7.39591 10.4884 7.93641 10.7141 8.5 10.7141C9.06358 10.7141 9.60409 10.4884 10.0026 10.0865C10.4011 9.68466 10.625 9.13963 10.625 8.57131ZM17 8.57131C17 12.677 12.6126 17.1655 10.1419 19.3683C9.69016 19.7751 9.10568 20 8.5 20C7.89432 20 7.30984 19.7751 6.85808 19.3683C4.38742 17.1655 0 12.677 0 8.57131C-1.66332e-08 7.44571 0.219859 6.33113 0.647024 5.29121C1.07419 4.25129 1.70029 3.3064 2.48959 2.51048C3.27889 1.71456 4.21592 1.0832 5.24719 0.652453C6.27846 0.221704 7.38376 0 8.5 0C9.61624 0 10.7215 0.221704 11.7528 0.652453C12.7841 1.0832 13.7211 1.71456 14.5104 2.51048C15.2997 3.3064 15.9258 4.25129 16.353 5.29121C16.7801 6.33113 17 7.44571 17 8.57131ZM15.5833 8.57131C15.5833 6.67694 14.8371 4.86015 13.5087 3.52062C12.1803 2.18109 10.3786 1.42855 8.5 1.42855C6.62138 1.42855 4.81971 2.18109 3.49133 3.52062C2.16294 4.86015 1.41667 6.67694 1.41667 8.57131C1.41667 10.1542 2.28792 11.9927 3.64083 13.8327C4.964 15.6298 6.59742 17.2283 7.79592 18.2983C7.98875 18.4746 8.23972 18.5722 8.5 18.5722C8.76028 18.5722 9.01125 18.4746 9.20408 18.2983C10.4026 17.2283 12.0374 15.6312 13.3592 13.8327C14.7121 11.9927 15.5833 10.1542 15.5833 8.57131Z" fill="#6B6B6B"/>
</svg>
