<svg width="23" height="16" viewBox="0 0 23 16" fill="none" xmlns="http://www.w3.org/2000/svg">
<path d="M0 9.84615V16H17.2288V9.84615H0ZM15.6262 14.359H1.60268V11.4872H15.6262V14.359ZM18.4309 9.84615H20.0335V16H18.4309V9.84615ZM21.2355 9.84615H22.8382V16H21.2355V9.84615ZM18.5024 6.42564C18.3102 6.12884 18.2177 5.77609 18.2386 5.42066C18.2596 5.06524 18.393 4.72645 18.6186 4.45549C19.0849 3.90009 19.3556 3.2004 19.3872 2.46865C19.4188 1.73689 19.2095 1.01548 18.7928 0.420103L18.4998 0H16.6679L16.5767 0.0666666L17.4886 1.37385C17.6966 1.67093 17.801 2.0309 17.7852 2.39604C17.7695 2.76117 17.6344 3.1103 17.4017 3.38744C16.9496 3.9305 16.6824 4.60945 16.6403 5.32174C16.5983 6.03403 16.7838 6.74098 17.1688 7.3358L17.4677 7.79487H19.394L18.5024 6.42564ZM22.1084 6.42564C21.9163 6.12884 21.8237 5.77609 21.8447 5.42066C21.8656 5.06524 21.999 4.72645 22.2246 4.45549C22.691 3.90009 22.9617 3.2004 22.9933 2.46865C23.0249 1.73689 22.8155 1.01548 22.3988 0.420103L22.1059 0H20.2739L20.1828 0.0666666L21.0947 1.37385C21.3026 1.67093 21.407 2.0309 21.3913 2.39604C21.3755 2.76117 21.2404 3.1103 21.0077 3.38744C20.5556 3.9305 20.2884 4.60945 20.2464 5.32174C20.2044 6.03403 20.3899 6.74098 20.7749 7.3358L21.0738 7.79487H23L22.1084 6.42564Z" fill="#6B6B6B"/>
</svg>
