<svg width="17" height="19" viewBox="0 0 17 19" fill="none" xmlns="http://www.w3.org/2000/svg">
<path fill-rule="evenodd" clip-rule="evenodd" d="M5.1 0C5.56944 0 5.95 0.386663 5.95 0.863636V1.72727H11.05V0.863636C11.05 0.386663 11.4306 0 11.9 0C12.3694 0 12.75 0.386663 12.75 0.863636V1.72727H14.45C15.8583 1.72727 17 2.88726 17 4.31818V16.4091C17 17.84 15.8583 19 14.45 19H2.55C1.14167 19 0 17.84 0 16.4091V4.31818C0 2.88726 1.14167 1.72727 2.55 1.72727H4.25V0.863636C4.25 0.386663 4.63056 0 5.1 0ZM4.25 3.45455H2.55C2.08056 3.45455 1.7 3.84121 1.7 4.31818V6.90909H15.3V4.31818C15.3 3.84121 14.9194 3.45455 14.45 3.45455H12.75V4.31818C12.75 4.79516 12.3694 5.18182 11.9 5.18182C11.4306 5.18182 11.05 4.79516 11.05 4.31818V3.45455H5.95V4.31818C5.95 4.79516 5.56944 5.18182 5.1 5.18182C4.63056 5.18182 4.25 4.79516 4.25 4.31818V3.45455ZM15.3 8.63636H1.7V16.4091C1.7 16.8861 2.08056 17.2727 2.55 17.2727H14.45C14.9194 17.2727 15.3 16.8861 15.3 16.4091V8.63636Z" fill="#6B6B6B"/>
</svg>
