<svg width="15" height="15" viewBox="0 0 15 15" fill="none" xmlns="http://www.w3.org/2000/svg">
<path fill-rule="evenodd" clip-rule="evenodd" d="M0.49925 0.49925C0.818914 0.179586 1.25247 0 1.70455 0H13.2955C13.7475 0 14.1811 0.179586 14.5008 0.49925C14.8204 0.818914 15 1.25247 15 1.70455V13.2955C15 13.7475 14.8204 14.1811 14.5008 14.5008C14.1811 14.8204 13.7475 15 13.2955 15H1.70455C1.25247 15 0.818914 14.8204 0.49925 14.5008C0.179586 14.1811 0 13.7475 0 13.2955V1.70455C0 1.25247 0.179586 0.818914 0.49925 0.49925ZM1.70455 1.36364C1.61413 1.36364 1.52742 1.39955 1.46349 1.46349C1.39955 1.52742 1.36364 1.61413 1.36364 1.70455V13.2955C1.36364 13.3859 1.39955 13.4726 1.46349 13.5365C1.52742 13.6004 1.61413 13.6364 1.70455 13.6364H13.2955C13.3859 13.6364 13.4726 13.6004 13.5365 13.5365C13.6004 13.4726 13.6364 13.3859 13.6364 13.2955V1.70455C13.6364 1.61413 13.6004 1.52742 13.5365 1.46349C13.4726 1.39955 13.3859 1.36364 13.2955 1.36364H1.70455ZM7.5 4.45023C6.13333 4.45023 4.95388 5.02209 3.93341 6.24971C3.6927 6.53928 3.26282 6.5789 2.97325 6.33819C2.68367 6.09748 2.64406 5.6676 2.88477 5.37802C4.13135 3.87837 5.67917 3.08659 7.5 3.08659C9.32083 3.08659 10.8686 3.87837 12.1152 5.37802C12.3559 5.6676 12.3163 6.09748 12.0268 6.33819C11.7372 6.5789 11.3073 6.53928 11.0666 6.24971C10.0461 5.02209 8.86667 4.45023 7.5 4.45023ZM5.39874 5.92275C5.70499 5.70365 6.13087 5.7743 6.34997 6.08055L7.14789 7.19585C7.2628 7.17159 7.38076 7.15909 7.5 7.15909C7.95207 7.15909 8.38563 7.33868 8.7053 7.65834C9.02496 7.97801 9.20455 8.41156 9.20455 8.86364C9.20455 9.31571 9.02496 9.74927 8.7053 10.0689C8.38563 10.3886 7.95207 10.5682 7.5 10.5682C7.04793 10.5682 6.61437 10.3886 6.2947 10.0689C5.97504 9.74927 5.79545 9.31571 5.79545 8.86364C5.79545 8.55253 5.8805 8.2502 6.03772 7.98771L5.24094 6.87399C5.02183 6.56774 5.09248 6.14186 5.39874 5.92275Z" fill="#6B6B6B"/>
</svg>
