<svg width="17" height="17" viewBox="0 0 17 17" fill="none" xmlns="http://www.w3.org/2000/svg">
<path d="M16.15 2.04L16.745 1.445C17.085 1.105 17.085 0.595 16.745 0.255C16.405 -0.085 15.895 -0.085 15.555 0.255L6.63 9.18C5.95 8.755 5.1 8.5 4.25 8.5C1.87 8.5 0 10.37 0 12.75C0 15.13 1.87 17 4.25 17C6.63 17 8.5 15.13 8.5 12.75C8.5 11.9 8.245 11.05 7.82 10.37L12.58 5.61L14.365 7.395C14.705 7.735 15.215 7.735 15.555 7.395C15.895 7.055 15.895 6.545 15.555 6.205L13.77 4.42L14.96 3.23L15.555 3.825C15.895 4.165 16.405 4.165 16.745 3.825C17.085 3.485 17.085 2.975 16.745 2.635L16.15 2.04ZM4.25 15.3C2.805 15.3 1.7 14.195 1.7 12.75C1.7 11.305 2.805 10.2 4.25 10.2C5.695 10.2 6.8 11.305 6.8 12.75C6.8 14.195 5.695 15.3 4.25 15.3Z" fill="#6B6B6B"/>
</svg>
