<svg width="16" height="8" viewBox="0 0 16 8" fill="none" xmlns="http://www.w3.org/2000/svg">
<path d="M15.8938 4.25519L12.2576 7.87352C12.127 8.02529 11.8974 8.04298 11.7449 7.91298C11.5924 7.783 11.5746 7.55458 11.7053 7.4028C11.7175 7.38865 11.7307 7.37544 11.7449 7.36334L14.7593 4.36013H0.363608C0.162805 4.36013 0 4.19813 0 3.99828C0 3.79843 0.162805 3.63646 0.363608 3.63646H14.7593L11.7449 0.636886C11.5924 0.506909 11.5746 0.278486 11.7053 0.126711C11.8359 -0.0250637 12.0654 -0.0427562 12.218 0.0872521C12.2322 0.099379 12.2455 0.112563 12.2576 0.126711L15.8938 3.74504C16.0348 3.88612 16.0348 4.11405 15.8938 4.25519Z" fill="white"/>
</svg>
