<svg width="17" height="15" viewBox="0 0 17 15" fill="none" xmlns="http://www.w3.org/2000/svg">
<path d="M9.17227 9.8025L7.20955 7.92L7.23273 7.8975C8.54184 6.48533 9.51992 4.81444 10.0995 3H12.3636V1.5H6.95455V0H5.40909V1.5H0V3H8.63136C8.11364 4.44 7.29455 5.8125 6.18182 7.0125C5.46318 6.24 4.86818 5.3925 4.39682 4.5H2.85136C3.41545 5.7225 4.18818 6.8775 5.15409 7.92L1.22091 11.685L2.31818 12.75L6.18182 9L8.585 11.3325L9.17227 9.8025ZM13.5227 6H11.9773L8.5 15H10.0455L10.9109 12.75H14.5814L15.4545 15H17L13.5227 6ZM11.4982 11.25L12.75 8.0025L14.0018 11.25H11.4982Z" fill="#6B6B6B"/>
</svg>
