<svg width="40" height="47" viewBox="0 0 40 47" fill="none" xmlns="http://www.w3.org/2000/svg">
<path d="M16.6667 24.4904L12.35 20.1429L10 22.5096L16.6667 29.2239L30 15.7954L27.65 13.4286L16.6667 24.4904Z" fill="#1B608C"/>
<path d="M20 47L9.70667 41.4725C6.77223 39.9002 4.31829 37.5528 2.60821 34.6822C0.898134 31.8116 -0.00352177 28.5262 1.03376e-05 25.1786V3.35714C0.000892798 2.46705 0.352366 1.61366 0.977296 0.984266C1.60223 0.354872 2.44956 0.000888764 3.33334 0H36.6667C37.5504 0.000888764 38.3978 0.354872 39.0227 0.984266C39.6476 1.61366 39.9991 2.46705 40 3.35714V25.1786C40.0035 28.5262 39.1019 31.8116 37.3918 34.6822C35.6817 37.5528 33.2278 39.9002 30.2933 41.4725L20 47ZM3.33334 3.35714V25.1786C3.33058 27.9177 4.06851 30.6058 5.46795 32.9545C6.86738 35.3031 8.87547 37.2236 11.2767 38.5098L20 43.1947L28.7233 38.5115C31.1248 37.2252 33.133 35.3044 34.5325 32.9554C35.9319 30.6065 36.6697 27.918 36.6667 25.1786V3.35714H3.33334Z" fill="#1B608C"/>
</svg>
