<svg width="7" height="4" viewBox="0 0 7 4" fill="none" xmlns="http://www.w3.org/2000/svg">
<path d="M0.184164 0.177646C0.242162 0.121333 0.311053 0.0766562 0.386893 0.0461734C0.462733 0.0156906 0.544033 0 0.626139 0C0.708245 0 0.789545 0.0156906 0.865385 0.0461734C0.941225 0.0766562 1.01012 0.121333 1.06811 0.177646L3.50055 2.53456L5.93298 0.177646C6.0502 0.0640659 6.20918 0.000257214 6.37495 0.000257214C6.54073 0.000257214 6.69971 0.0640659 6.81693 0.177646C6.93415 0.291226 7 0.445273 7 0.605899C7 0.766525 6.93415 0.920572 6.81693 1.03415L3.93939 3.82236C3.88139 3.87867 3.8125 3.92334 3.73666 3.95383C3.66082 3.98431 3.57952 4 3.49741 4C3.41531 4 3.33401 3.98431 3.25817 3.95383C3.18233 3.92334 3.11343 3.87867 3.05544 3.82236L0.177895 1.03415C-0.060333 0.803321 -0.0603329 0.414552 0.184164 0.177646Z" fill="#6B6B6B"/>
</svg>
