<svg width="18" height="18" viewBox="0 0 18 18" fill="none" xmlns="http://www.w3.org/2000/svg">
<path fill-rule="evenodd" clip-rule="evenodd" d="M14.7025 1.28518C14.6177 1.28518 14.5337 1.30198 14.4554 1.3346C14.3771 1.36723 14.306 1.41503 14.2462 1.47526L14.2436 1.47793L14.2436 1.47792L7.02634 8.66998L6.56508 11.4745L9.32625 10.9774L16.5221 3.75641L16.5247 3.75376C16.585 3.69402 16.6328 3.62295 16.6654 3.54464C16.698 3.46634 16.7148 3.38235 16.7148 3.29752C16.7148 3.21269 16.698 3.1287 16.6654 3.05039C16.6328 2.97209 16.585 2.90101 16.5247 2.84128L16.5229 2.83942L15.1606 1.47713L15.1587 1.47526C15.099 1.41503 15.0279 1.36723 14.9496 1.3346C14.8713 1.30198 14.7873 1.28518 14.7025 1.28518ZM13.9611 0.148259C14.196 0.0503887 14.448 0 14.7025 0C14.957 0 15.2089 0.0503885 15.4439 0.148259C15.6783 0.245912 15.891 0.388908 16.07 0.569028C16.0704 0.569429 16.0708 0.56983 16.0712 0.570232L17.4298 1.9288C17.4302 1.92919 17.4306 1.92959 17.431 1.92999C17.6111 2.10895 17.7541 2.32174 17.8517 2.55614C17.9496 2.79106 18 3.04303 18 3.29752C18 3.55201 17.9496 3.80398 17.8517 4.03889C17.7541 4.27315 17.6113 4.48583 17.4313 4.66473C17.4308 4.66523 17.4303 4.66573 17.4298 4.66624L10.094 12.0277C10.0012 12.1208 9.8821 12.1832 9.7527 12.2065L5.89716 12.9005C5.69171 12.9375 5.4811 12.8724 5.33238 12.7259C5.18366 12.5794 5.11537 12.3698 5.14925 12.1638L5.79184 8.25685C5.81371 8.12385 5.87685 8.0011 5.97232 7.90596L13.3338 0.570232C13.3343 0.569719 13.3348 0.569206 13.3353 0.568694C13.5142 0.38873 13.7269 0.245851 13.9611 0.148259ZM1.92777 3.22041C1.75735 3.22041 1.5939 3.28811 1.47339 3.40862C1.35288 3.52913 1.28518 3.69257 1.28518 3.863V16.0722C1.28518 16.2427 1.35288 16.4061 1.47339 16.5266C1.5939 16.6471 1.75735 16.7148 1.92777 16.7148H14.137C14.3074 16.7148 14.4709 16.6471 14.5914 16.5266C14.7119 16.4061 14.7796 16.2427 14.7796 16.0722V12.2167C14.7796 11.8618 15.0673 11.5741 15.4222 11.5741C15.7771 11.5741 16.0648 11.8618 16.0648 12.2167V16.0722C16.0648 16.5835 15.8617 17.0738 15.5001 17.4354C15.1386 17.7969 14.6483 18 14.137 18H1.92777C1.4165 18 0.926159 17.7969 0.564632 17.4354C0.203104 17.0738 0 16.5835 0 16.0722V3.863C0 3.35172 0.203104 2.86138 0.564632 2.49986C0.926159 2.13833 1.4165 1.93522 1.92777 1.93522H5.78332C6.13821 1.93522 6.42591 2.22292 6.42591 2.57782C6.42591 2.93271 6.13821 3.22041 5.78332 3.22041H1.92777Z" fill="#6B6B6B"/>
</svg>
