<svg width="48" height="115" viewBox="0 0 48 115" fill="none" xmlns="http://www.w3.org/2000/svg">
<path fill-rule="evenodd" clip-rule="evenodd" d="M23.4039 0.0942383C32.8657 0.0942383 40.5253 7.71809 40.5253 17.1358C40.5253 26.5535 32.8657 34.1773 23.4039 34.1773C13.942 34.1773 6.28247 26.5535 6.28247 17.1358C6.28247 7.71809 13.942 0.0942383 23.4039 0.0942383Z" fill="white"/>
<path fill-rule="evenodd" clip-rule="evenodd" d="M5.2123 95.4486C9.49265 71.0635 11.5765 58.8989 11.5765 58.8989C12.196 53.8537 10.2811 53.2932 6.00078 52.7326C0.312423 51.7796 -4.02425 45.5572 6.00078 44.6603C20.8694 44.6603 25.1497 44.0997 28.36 44.6603C29.768 44.9406 39.6804 45.7814 36.3575 58.8429C31.007 85.0779 28.9795 98.3636 29.4301 99.3726C30.7818 105.819 34.4426 103.577 40.6378 102.007C49.1422 99.1484 49.7617 101.447 43.6791 107.781C34.6115 115.293 24.6428 116.975 12.4213 112.042C12.4213 112.042 11.9144 111.817 11.4639 111.593C5.04334 109.015 3.579 103.297 5.2123 95.4486Z" fill="white"/>
</svg>
