<svg width="154" height="145" viewBox="0 0 154 145" fill="none" xmlns="http://www.w3.org/2000/svg">
<path d="M72.3316 130.968C74.1881 130.968 75.9685 131.707 77.2812 133.023C78.594 134.338 79.3315 136.123 79.3315 137.984C79.3315 139.845 78.594 141.629 77.2812 142.945C75.9685 144.261 74.1881 145 72.3316 145H16.3329C12.0012 145 7.84684 143.275 4.78382 140.205C1.7208 137.135 0 132.971 0 128.629V16.371C0 12.0291 1.7208 7.8651 4.78382 4.79495C7.84684 1.72479 12.0012 0 16.3329 0H72.3316C74.1881 0 75.9685 0.739196 77.2812 2.05498C78.594 3.37076 79.3315 5.15534 79.3315 7.01613C79.3315 8.87692 78.594 10.6615 77.2812 11.9773C75.9685 13.2931 74.1881 14.0323 72.3316 14.0323H16.3329C15.7141 14.0323 15.1206 14.2787 14.6831 14.7172C14.2455 15.1558 13.9997 15.7507 13.9997 16.371V128.629C13.9997 129.249 14.2455 129.844 14.6831 130.283C15.1206 130.721 15.7141 130.968 16.3329 130.968H72.3316Z" fill="#0C4777"/>
<path fill-rule="evenodd" clip-rule="evenodd" d="M48.9708 94.6242C42.531 94.6242 37.3044 89.3855 37.3044 82.9306V61.9758C37.3044 55.521 42.531 50.2823 48.9708 50.2823H92.0245C92.0839 49.596 92.1461 48.91 92.2112 48.2242L92.7151 43.0229C92.8933 41.1859 93.5109 39.419 94.5154 37.8721C95.5199 36.3252 96.8818 35.044 98.4855 34.1369C100.089 33.2299 101.888 32.7239 103.728 32.6618C105.568 32.5998 107.396 32.9834 109.057 33.7803C124.312 41.1043 138.123 51.1281 149.824 63.3697L150.748 64.3426C152.835 66.5248 154 69.4306 154 72.4532C154 75.4759 152.835 78.3817 150.748 80.5639L149.815 81.5274C138.117 93.7713 124.309 103.798 109.057 111.126C107.396 111.923 105.568 112.307 103.728 112.245C101.888 112.183 100.089 111.677 98.4855 110.77C96.8818 109.863 95.5199 108.581 94.5154 107.034C93.5109 105.487 92.8933 103.721 92.7151 101.884L92.2112 96.6823L92.0245 94.6242H48.9708ZM98.511 80.5919C100.292 80.5933 102.006 81.2753 103.303 82.4989C104.6 83.7225 105.383 85.3958 105.492 87.1777C105.67 89.8906 105.884 92.6129 106.145 95.3258L106.295 96.8413C118.479 90.5465 129.561 82.3099 139.11 72.4532C129.562 62.5961 118.479 54.3594 106.295 48.0652L106.145 49.5806C105.884 52.2935 105.67 55.0064 105.492 57.7287C105.383 59.5107 104.6 61.1839 103.303 62.4075C102.006 63.6311 100.292 64.3131 98.511 64.3145H51.3041V80.5919H98.511Z" fill="#0C4777"/>
</svg>
