<svg width="269" height="284" viewBox="0 0 269 284" fill="none" xmlns="http://www.w3.org/2000/svg">
<path d="M24.0294 272.994C22.2216 272.994 20.4268 272.426 18.8918 271.311C16.1769 269.337 14.8432 266.054 15.4104 262.743L19.314 239.962C19.34 239.819 19.2923 239.674 19.1884 239.572L2.64972 223.441C0.24653 221.096 -0.602164 217.653 0.434889 214.46C1.47194 211.266 4.1804 208.982 7.50157 208.499L30.3557 205.175C30.4986 205.153 30.622 205.062 30.6869 204.932L40.9081 184.207C42.3933 181.196 45.4005 179.324 48.7563 179.324C52.1143 179.324 55.1215 181.196 56.6067 184.207C57.6221 186.266 56.7778 188.762 54.7188 189.778C52.6599 190.794 50.1679 189.949 49.1504 187.889C49.1114 187.809 49.0313 187.644 48.7563 187.644C48.4835 187.644 48.4034 187.809 48.3623 187.889L38.1433 208.616C36.8681 211.203 34.4021 212.995 31.5529 213.409L8.69666 216.732C8.61006 216.745 8.42604 216.771 8.34376 217.031C8.25933 217.291 8.39139 217.419 8.45418 217.482L24.9929 233.616C27.0562 235.629 27.9958 238.526 27.5087 241.368L23.6051 264.149C23.5899 264.236 23.5596 264.418 23.7805 264.578C24.0013 264.741 24.1637 264.654 24.2416 264.613L44.6839 253.857C47.2365 252.516 50.2805 252.516 52.8309 253.857L73.2732 264.613C73.3511 264.654 73.5135 264.739 73.7343 264.578C73.9552 264.418 73.9249 264.236 73.9097 264.149L70.0061 241.368C69.519 238.526 70.4586 235.629 72.5219 233.616L89.0606 217.482C89.1256 217.419 89.2576 217.291 89.1732 217.031C89.0888 216.771 88.9069 216.745 88.8181 216.732L65.9619 213.409C63.1105 212.993 60.6467 211.203 59.3715 208.616L56.8839 203.569C55.8685 201.509 56.7128 199.015 58.7718 197.999C60.8307 196.98 63.3227 197.828 64.3381 199.888L66.8279 204.932C66.8907 205.062 67.0162 205.153 67.1591 205.173L90.0132 208.497C93.3344 208.98 96.0429 211.266 97.0799 214.46C98.117 217.653 97.2683 221.096 94.8651 223.439L78.3264 239.572C78.2225 239.674 78.1748 239.819 78.2008 239.962L82.1044 262.743C82.6716 266.054 81.3379 269.337 78.6208 271.311C75.9059 273.284 72.3747 273.54 69.4043 271.978L48.962 261.222C48.8343 261.155 48.6805 261.155 48.5528 261.222L28.1105 271.978C26.8202 272.658 25.4216 272.994 24.0294 272.994Z" fill="#0C4777"/>
<path d="M26.8397 146.645C25.2397 146.645 23.6506 146.144 22.2931 145.156C19.8877 143.408 18.7056 140.502 19.2079 137.57L22.2108 120.059L9.49773 107.656C7.3695 105.581 6.61823 102.534 7.53621 99.7066C8.45418 96.879 10.8509 94.8552 13.791 94.4284L31.3603 91.8738L39.2172 75.9417C40.5335 73.2744 43.1965 71.619 46.1669 71.619C49.1395 71.619 51.8025 73.2744 53.1167 75.9417L60.9736 91.8738L78.5429 94.4284C81.483 94.8552 83.8797 96.879 84.7977 99.7066C85.7156 102.536 84.9644 105.581 82.8362 107.656L70.1231 120.059L73.1238 137.57C73.6261 140.502 72.4461 143.408 70.043 145.156C67.6376 146.903 64.5113 147.13 61.8808 145.746L46.1669 137.477L30.4531 145.746C29.3078 146.348 28.0716 146.645 26.8397 146.645ZM46.1669 129.085C47.4053 129.085 48.6437 129.382 49.7739 129.976L64.7365 137.85L61.8786 121.172C61.4478 118.655 62.2813 116.089 64.1086 114.308L76.2155 102.497L59.4841 100.064C56.9596 99.6957 54.7773 98.1118 53.6493 95.8216L46.1669 80.6479L38.6846 95.8216C37.5544 98.1118 35.3742 99.6979 32.8498 100.064L16.1184 102.497L28.2253 114.306C30.0526 116.089 30.884 118.655 30.4531 121.172L27.5953 137.848L42.56 129.974C43.6901 129.382 44.9285 129.085 46.1669 129.085Z" fill="#0C4777"/>
<path d="M122.058 283.999C120.629 283.999 119.211 283.551 117.998 282.671C115.853 281.109 114.799 278.515 115.247 275.9L117.466 262.947L108.063 253.775C106.164 251.923 105.495 249.203 106.314 246.679C107.134 244.155 109.271 242.35 111.897 241.966L124.892 240.077L130.703 228.292C131.876 225.913 134.254 224.435 136.906 224.435C139.558 224.435 141.933 225.913 143.106 228.294L148.917 240.077L161.912 241.969C164.536 242.35 166.677 244.155 167.496 246.679C168.314 249.203 167.645 251.923 165.746 253.775L156.341 262.949L158.563 275.9C159.011 278.517 157.956 281.111 155.811 282.671C153.665 284.231 150.875 284.432 148.528 283.197L136.904 277.083L125.282 283.197C124.262 283.735 123.158 283.999 122.058 283.999ZM136.906 268.578C138.012 268.578 139.116 268.845 140.123 269.373L149.892 274.513L148.025 263.629C147.642 261.38 148.385 259.092 150.015 257.502L157.917 249.795L146.997 248.207C144.743 247.877 142.797 246.462 141.79 244.419L136.906 234.517L132.021 244.419C131.015 246.462 129.068 247.877 126.815 248.207L115.894 249.795L123.796 257.502C125.427 259.092 126.169 261.383 125.784 263.627L123.92 274.513L133.686 269.373C134.695 268.845 135.799 268.578 136.906 268.578Z" fill="#0C4777"/>
<path d="M199.086 69.2746C198.023 69.2746 196.957 68.8694 196.145 68.0547C194.522 66.4319 194.522 63.7971 196.145 62.172L257.054 1.21717C258.678 -0.405723 261.309 -0.405723 262.932 1.21717C264.556 2.84223 264.556 5.47699 262.932 7.09988L202.026 68.0569C201.214 68.8694 200.149 69.2746 199.086 69.2746Z" fill="#0C4777"/>
<path d="M78.7118 189.743C77.6487 189.743 76.5857 189.336 75.7738 188.524C74.15 186.899 74.15 184.266 75.7738 182.641L135.598 122.769C137.222 121.144 139.855 121.144 141.476 122.769C143.1 124.394 143.1 127.029 141.476 128.652L81.6519 188.524C80.84 189.336 79.777 189.743 78.7118 189.743Z" fill="#0C4777"/>
<path d="M101.116 193.852C100.05 193.852 98.9873 193.444 98.1754 192.632C96.5517 191.007 96.5517 188.374 98.1754 186.749L125.327 159.576C126.951 157.951 129.584 157.951 131.205 159.576C132.829 161.201 132.829 163.836 131.205 165.459L104.053 192.632C103.242 193.444 102.179 193.852 101.116 193.852Z" fill="#0C4777"/>
<path d="M187.539 173.608C186.476 173.608 185.411 173.2 184.599 172.388C182.976 170.765 182.976 168.13 184.599 166.505L261.904 89.1415C263.528 87.5164 266.158 87.5164 267.782 89.1415C269.406 90.7666 269.406 93.4013 267.782 95.0242L190.48 172.388C189.668 173.2 188.605 173.608 187.539 173.608Z" fill="#0C4777"/>
<path d="M153.654 207.519C152.589 207.519 151.526 207.112 150.714 206.3C149.091 204.677 149.091 202.042 150.714 200.417L170.572 180.543C172.198 178.918 174.829 178.918 176.452 180.543C178.074 182.169 178.076 184.801 176.452 186.426L156.592 206.3C155.783 207.112 154.717 207.519 153.654 207.519Z" fill="#0C4777"/>
<path d="M92.5225 120.967C91.4595 120.967 90.3943 120.561 89.5846 119.749C87.9608 118.124 87.9608 115.489 89.5846 113.864L102.709 100.729C104.333 99.1042 106.965 99.1042 108.589 100.729C110.211 102.352 110.211 104.987 108.589 106.612L95.4626 119.749C94.6507 120.559 93.5877 120.967 92.5225 120.967Z" fill="#0C4777"/>
<path d="M146.438 41.4146C145.375 41.4146 144.31 41.0073 143.498 40.1947C141.877 38.5718 141.877 35.9371 143.498 34.312L162.003 15.795C163.627 14.17 166.259 14.17 167.881 15.795C169.505 17.4201 169.505 20.0548 167.881 21.6777L149.379 40.1947C148.567 41.0073 147.504 41.4146 146.438 41.4146Z" fill="#0C4777"/>
<path d="M92.5225 95.3731C91.4595 95.3731 90.3943 94.9679 89.5846 94.1532C87.9608 92.5303 87.9608 89.8955 89.5846 88.2705L130.88 46.942C132.502 45.3191 135.135 45.3191 136.759 46.942C138.382 48.567 138.382 51.2018 136.759 52.8269L95.4626 94.1532C94.6507 94.9657 93.5877 95.3731 92.5225 95.3731Z" fill="#0C4777"/>
<path d="M81.024 70.9538C79.961 70.9538 78.8958 70.5487 78.0839 69.7361C76.4623 68.1111 76.4623 65.4763 78.0839 63.8534L97.3874 44.5347C99.0111 42.9118 101.642 42.9118 103.265 44.5347C104.889 46.1598 104.889 48.7945 103.265 50.4174L83.9641 69.7361C83.1522 70.5487 82.087 70.9538 81.024 70.9538Z" fill="#0C4777"/>
<path d="M178.386 115.925C177.338 115.925 176.288 115.671 175.316 115.162L165.354 109.918L155.391 115.162C153.159 116.336 150.504 116.143 148.463 114.661C146.421 113.177 145.419 110.709 145.845 108.222L147.748 97.1195L139.688 89.2563C137.882 87.4926 137.243 84.9077 138.023 82.5069C138.802 80.1062 140.837 78.3879 143.334 78.0261L154.473 76.4054L159.455 66.304C160.57 64.0398 162.83 62.6335 165.352 62.6335C167.877 62.6335 170.137 64.0398 171.254 66.304L176.236 76.4054L187.373 78.0261C189.869 78.3879 191.904 80.104 192.684 82.5048C193.463 84.9055 192.826 87.4926 191.021 89.2542L182.96 97.1173L184.861 108.22C185.29 110.709 184.285 113.175 182.246 114.659C181.092 115.498 179.743 115.925 178.386 115.925ZM165.354 101.373C166.407 101.373 167.459 101.626 168.416 102.131L176.073 106.159L174.612 97.6243C174.244 95.4901 174.952 93.3103 176.502 91.7979L182.698 85.7527L174.138 84.509C171.994 84.197 170.143 82.8514 169.184 80.9079L165.354 73.1423L161.524 80.9057C160.565 82.8514 158.714 84.197 156.571 84.509L148.01 85.7527L154.207 91.7979C155.757 93.3103 156.465 95.4879 156.097 97.6243L154.635 106.159L162.293 102.129C163.252 101.626 164.302 101.373 165.354 101.373Z" fill="#0C4777"/>
<path d="M169.319 227.261C168.253 227.261 167.19 226.853 166.378 226.041C164.755 224.416 164.755 221.783 166.378 220.158L190.179 196.339C191.802 194.714 194.433 194.714 196.057 196.339C197.68 197.964 197.68 200.597 196.057 202.222L172.256 226.041C171.445 226.853 170.382 227.261 169.319 227.261Z" fill="#0C4777"/>
<path d="M178.018 155.773C176.955 155.773 175.889 155.366 175.077 154.553C173.454 152.928 173.454 150.296 175.077 148.671L184.599 139.141C186.223 137.516 188.856 137.516 190.48 139.141C192.103 140.766 192.103 143.401 190.48 145.024L180.958 154.553C180.146 155.366 179.081 155.773 178.018 155.773Z" fill="#0C4777"/>
<path d="M235.398 51.6373C234.335 51.6373 233.269 51.2321 232.457 50.4174C230.834 48.7945 230.834 46.1598 232.457 44.5347L243.861 33.1225C245.484 31.4996 248.117 31.4996 249.741 33.1225C251.363 34.7475 251.363 37.3823 249.741 39.0074L238.338 50.4174C237.526 51.2321 236.461 51.6373 235.398 51.6373Z" fill="#0C4777"/>
<path d="M56.8167 39.2695C56.8103 39.2695 56.8038 39.2695 56.7973 39.2695C54.5002 39.2587 52.6491 37.3866 52.6599 35.0899L52.6664 33.6382C52.6772 31.3414 54.5326 29.4694 56.8427 29.4975C59.1377 29.5084 60.9909 31.3804 60.9801 33.6772L60.9736 35.1289C60.9628 37.4191 59.103 39.2695 56.8167 39.2695Z" fill="#0C4777"/>
<path d="M56.7713 54.0446C56.7648 54.0446 56.7583 54.0446 56.7496 54.0446C54.4547 54.0337 52.6036 52.1617 52.6144 49.8628L52.6209 48.4132C52.6317 46.123 54.4915 44.2726 56.7778 44.2726H56.7994C59.0944 44.2834 60.9455 46.1555 60.9346 48.4522L60.9282 49.9039C60.9173 52.1942 59.0576 54.0446 56.7713 54.0446Z" fill="#0C4777"/>
<path d="M64.9053 45.9561C64.8967 45.9561 64.8902 45.9561 64.8837 45.9561L63.4331 45.9496C61.1382 45.9388 59.2849 44.0689 59.2957 41.77C59.3065 39.4797 61.1663 37.6293 63.4526 37.6293H63.4721L64.9226 37.6358C67.2197 37.6488 69.0709 39.5187 69.06 41.8155C69.0492 44.1079 67.1894 45.9561 64.9053 45.9561Z" fill="#0C4777"/>
<path d="M50.1398 45.9106C50.1333 45.9106 50.1268 45.9106 50.1203 45.9106L48.6697 45.9041C46.3726 45.8933 44.5215 44.0212 44.5323 41.7245C44.5432 39.4342 46.4029 37.5838 48.6892 37.5838H48.7109L50.1614 37.5925C52.4564 37.6033 54.3075 39.4754 54.2966 41.7721C54.2858 44.0624 52.4261 45.9106 50.1398 45.9106Z" fill="#0C4777"/>
<path d="M12.2841 168.496C12.2776 168.496 12.2711 168.496 12.2625 168.496C9.96754 168.486 8.11644 166.613 8.12726 164.315L8.13376 162.863C8.14675 160.566 10.0347 158.703 12.3123 158.724C14.6072 158.735 16.4583 160.607 16.4475 162.904L16.441 164.356C16.4302 166.646 14.5704 168.496 12.2841 168.496Z" fill="#0C4777"/>
<path d="M12.2387 183.271C12.2322 183.271 12.2257 183.271 12.2192 183.271C9.92424 183.261 8.07097 181.389 8.0818 179.092L8.08829 177.64C8.09911 175.343 9.95672 173.495 12.2646 173.499C14.5596 173.51 16.4129 175.38 16.402 177.679L16.3955 179.131C16.3847 181.421 14.5249 183.271 12.2387 183.271Z" fill="#0C4777"/>
<path d="M20.3727 175.183C20.3662 175.183 20.3597 175.183 20.3511 175.183L18.9005 175.176C16.6055 175.166 14.7544 173.294 14.7653 170.997C14.7761 168.698 16.6488 166.824 18.9416 166.856L20.3922 166.863C22.6893 166.873 24.5404 168.746 24.5296 171.044C24.5187 173.335 22.659 175.183 20.3727 175.183Z" fill="#0C4777"/>
<path d="M5.60932 175.137C5.60283 175.137 5.59633 175.137 5.58767 175.137L4.13926 175.131C1.84216 175.12 -0.00894405 173.25 0.00188113 170.951C0.0127063 168.655 1.88546 166.793 4.17607 166.811L5.62664 166.817C7.92375 166.828 9.77485 168.7 9.76403 170.997C9.75537 173.289 7.8956 175.137 5.60932 175.137Z" fill="#0C4777"/>
<path d="M220.506 218.308C220.5 218.308 220.493 218.308 220.487 218.308C218.192 218.297 216.339 216.425 216.35 214.128L216.356 212.676C216.367 210.386 218.224 208.536 220.513 208.536H220.53C222.827 208.546 224.678 210.416 224.67 212.713L224.663 214.165C224.652 216.457 222.793 218.308 220.506 218.308Z" fill="#0C4777"/>
<path d="M220.461 233.083C220.452 233.083 220.448 233.083 220.439 233.083C218.144 233.072 216.293 231.2 216.302 228.901L216.311 227.449C216.321 225.159 218.181 223.311 220.467 223.311H220.487C222.784 223.322 224.635 225.194 224.624 227.49L224.616 228.942C224.605 231.232 222.747 233.083 220.461 233.083Z" fill="#0C4777"/>
<path d="M228.593 224.994C228.586 224.994 228.582 224.994 228.573 224.994L227.123 224.988C224.828 224.977 222.975 223.107 222.985 220.808C222.996 218.518 224.856 216.667 227.142 216.667H227.162L228.612 216.674C230.909 216.685 232.761 218.557 232.75 220.854C232.739 223.146 230.879 224.994 228.593 224.994Z" fill="#0C4777"/>
<path d="M213.832 224.949C213.823 224.949 213.819 224.949 213.81 224.949L212.359 224.942C210.064 224.931 208.213 223.059 208.222 220.763C208.235 218.47 210.093 216.622 212.379 216.622H212.401L213.851 216.628C216.146 216.639 217.997 218.511 217.986 220.81C217.976 223.1 216.118 224.949 213.832 224.949Z" fill="#0C4777"/>
</svg>
