<svg width="181" height="120" viewBox="0 0 181 120" fill="none" xmlns="http://www.w3.org/2000/svg">
<path d="M26.0153 97.8148C25.8452 97.8148 25.6714 97.8039 25.4941 97.7785C17.2226 96.5793 9.28782 93.9737 1.91773 90.0309C0.154841 89.0861 -0.514837 86.8839 0.426334 85.1105C1.37112 83.3444 3.55392 82.6722 5.32766 83.6134C11.9521 87.1637 19.0869 89.504 26.5257 90.5796C28.5058 90.8667 29.8777 92.7091 29.5954 94.6969C29.3348 96.5102 27.7854 97.8148 26.0153 97.8148Z" fill="#0C4777"/>
<path d="M154.985 97.8148C153.215 97.8148 151.665 96.5102 151.405 94.7005C151.122 92.7127 152.494 90.8703 154.474 90.5833C161.917 89.5076 169.048 87.1673 175.672 83.617C177.45 82.6758 179.629 83.3481 180.574 85.1142C181.515 86.8839 180.845 89.0897 179.082 90.0345C171.712 93.9773 163.777 96.5829 155.506 97.7821C155.329 97.8039 155.155 97.8148 154.985 97.8148Z" fill="#0C4777"/>
<path d="M117.121 65.1929C116.44 65.1929 115.756 65.0003 115.148 64.6042C113.472 63.5067 112.998 61.2573 114.091 59.5748C119.22 51.6783 127.886 46.9614 137.276 46.9614C139.278 46.9614 140.896 48.5858 140.896 50.5954C140.896 52.6049 139.278 54.2293 137.276 54.2293C130.34 54.2293 123.941 57.7106 120.158 63.5431C119.466 64.6115 118.308 65.1929 117.121 65.1929Z" fill="#0C4777"/>
<path d="M145.301 54.2293C132.469 54.2293 121.631 43.3493 121.631 30.4706C121.631 17.5919 132.469 6.71189 145.301 6.71189C158.13 6.71189 168.968 17.5919 168.968 30.4706C168.968 43.3493 158.13 54.2293 145.301 54.2293ZM145.301 13.9798C136.397 13.9798 128.871 21.5311 128.871 30.4706C128.871 39.4101 136.397 46.9614 145.301 46.9614C154.206 46.9614 161.729 39.4101 161.729 30.4706C161.729 21.5311 154.206 13.9798 145.301 13.9798Z" fill="#0C4777"/>
<path d="M177.377 78.3841C175.376 78.3841 173.757 76.7597 173.757 74.7502C173.757 63.4377 164.588 54.2329 153.32 54.2329C151.318 54.2329 149.7 52.6086 149.7 50.599C149.7 48.5894 151.318 46.9651 153.32 46.9651C168.581 46.9651 180.997 59.4331 180.997 74.7502C180.997 76.7561 179.379 78.3841 177.377 78.3841Z" fill="#0C4777"/>
<path d="M153.32 54.2293H137.28C135.278 54.2293 133.66 52.6049 133.66 50.5954C133.66 48.5858 135.278 46.9614 137.28 46.9614H153.32C155.321 46.9614 156.939 48.5858 156.939 50.5954C156.939 52.6049 155.318 54.2293 153.32 54.2293Z" fill="#0C4777"/>
<path d="M177.377 90.4597C175.376 90.4597 173.757 88.8353 173.757 86.8258V74.7502C173.757 72.7406 175.376 71.1162 177.377 71.1162C179.379 71.1162 180.997 72.7406 180.997 74.7502V86.8258C180.997 88.8353 179.379 90.4597 177.377 90.4597Z" fill="#0C4777"/>
<path d="M47.731 93.1415C45.7292 93.1415 44.1111 91.5172 44.1111 89.5076C44.1111 69.7462 60.1255 53.6733 79.8068 53.6733C81.8086 53.6733 83.4267 55.2977 83.4267 57.3073C83.4267 59.3168 81.8086 60.9412 79.8068 60.9412C64.1146 60.9412 51.3509 73.7545 51.3509 89.5076C51.3509 91.5172 49.7292 93.1415 47.731 93.1415Z" fill="#0C4777"/>
<path d="M101.193 60.9412H79.8068C77.8051 60.9412 76.187 59.3168 76.187 57.3073C76.187 55.2977 77.8051 53.6733 79.8068 53.6733H101.193C103.195 53.6733 104.813 55.2977 104.813 57.3073C104.813 59.3168 103.195 60.9412 101.193 60.9412Z" fill="#0C4777"/>
<path d="M63.8793 65.1929C62.6956 65.1929 61.5373 64.6115 60.8423 63.5431C57.0559 57.7142 50.6595 54.2293 43.7238 54.2293C41.722 54.2293 40.1039 52.6049 40.1039 50.5954C40.1039 48.5858 41.722 46.9614 43.7238 46.9614C53.1174 46.9614 61.7798 51.6783 66.9092 59.5748C68.0024 61.2573 67.5282 63.5067 65.8522 64.6042C65.2404 65.0003 64.5563 65.1929 63.8793 65.1929Z" fill="#0C4777"/>
<path d="M47.731 109.244C45.7292 109.244 44.1111 107.619 44.1111 105.61V89.5076C44.1111 87.498 45.7292 85.8737 47.731 85.8737C49.7328 85.8737 51.3509 87.498 51.3509 89.5076V105.61C51.3509 107.619 49.7292 109.244 47.731 109.244Z" fill="#0C4777"/>
<path d="M90.5 60.9412C74.0476 60.9412 60.1472 46.9869 60.1472 30.4706C60.1472 13.9543 74.0476 0 90.5 0C106.952 0 120.853 13.9543 120.853 30.4706C120.853 46.9869 106.952 60.9412 90.5 60.9412ZM90.5 7.26788C77.9716 7.26788 67.387 17.8935 67.387 30.4706C67.387 43.0477 77.9716 53.6733 90.5 53.6733C103.028 53.6733 113.613 43.0477 113.613 30.4706C113.613 17.8935 103.028 7.26788 90.5 7.26788Z" fill="#0C4777"/>
<path d="M133.269 93.1415C131.267 93.1415 129.649 91.5172 129.649 89.5076C129.649 73.7545 116.885 60.9412 101.193 60.9412C99.1914 60.9412 97.5733 59.3168 97.5733 57.3073C97.5733 55.2977 99.1914 53.6733 101.193 53.6733C120.878 53.6733 136.889 69.7499 136.889 89.5076C136.889 91.5172 135.271 93.1415 133.269 93.1415Z" fill="#0C4777"/>
<path d="M133.269 109.244C131.267 109.244 129.649 107.619 129.649 105.61V89.5076C129.649 87.498 131.267 85.8737 133.269 85.8737C135.271 85.8737 136.889 87.498 136.889 89.5076V105.61C136.889 107.619 135.271 109.244 133.269 109.244Z" fill="#0C4777"/>
<path d="M90.5 120C75.2241 120 59.9518 116.272 46.0261 108.818C44.2632 107.87 43.5935 105.671 44.5347 103.898C45.4795 102.132 47.6586 101.46 49.436 102.401C75.1517 116.17 105.856 116.17 131.568 102.401C133.341 101.46 135.528 102.132 136.469 103.898C137.41 105.668 136.74 107.87 134.978 108.818C121.048 116.268 105.776 120 90.5 120Z" fill="#0C4777"/>
<path d="M35.6985 54.2293C22.8696 54.2293 12.0317 43.3493 12.0317 30.4706C12.0317 17.5919 22.8696 6.71189 35.6985 6.71189C48.5274 6.71189 59.3653 17.5919 59.3653 30.4706C59.3653 43.3493 48.5274 54.2293 35.6985 54.2293ZM35.6985 13.9798C26.7936 13.9798 19.2715 21.5311 19.2715 30.4706C19.2715 39.4101 26.7936 46.9614 35.6985 46.9614C44.6034 46.9614 52.1256 39.4101 52.1256 30.4706C52.1256 21.5311 44.6034 13.9798 35.6985 13.9798Z" fill="#0C4777"/>
<path d="M3.62269 78.3841C1.6209 78.3841 0.00280663 76.7597 0.00280663 74.7502C0.00280663 59.4295 12.4226 46.9651 27.6805 46.9651C29.6823 46.9651 31.3004 48.5894 31.3004 50.599C31.3004 52.6086 29.6823 54.2329 27.6805 54.2329C16.4118 54.2293 7.24258 63.4341 7.24258 74.7502C7.24258 76.7561 5.62449 78.3841 3.62269 78.3841Z" fill="#0C4777"/>
<path d="M43.7202 54.2293H27.6805C25.6787 54.2293 24.0606 52.6049 24.0606 50.5954C24.0606 48.5858 25.6787 46.9614 27.6805 46.9614H43.7202C45.722 46.9614 47.3401 48.5858 47.3401 50.5954C47.3401 52.6049 45.722 54.2293 43.7202 54.2293Z" fill="#0C4777"/>
<path d="M3.62269 90.4597C1.6209 90.4597 0.00280663 88.8353 0.00280663 86.8258V74.7502C0.00280663 72.7406 1.6209 71.1162 3.62269 71.1162C5.62449 71.1162 7.24258 72.7406 7.24258 74.7502V86.8258C7.24258 88.8353 5.62449 90.4597 3.62269 90.4597Z" fill="#0C4777"/>
</svg>
