<svg width="309" height="310" viewBox="0 0 309 310" fill="none" xmlns="http://www.w3.org/2000/svg">
<path d="M281.842 200.41C275.062 200.41 268.859 202.922 264.097 207.058L213.461 178.301C216.306 171.083 217.869 163.221 217.869 155C217.869 138.979 211.928 124.327 202.147 113.135L253.378 52.6663C256.407 53.8418 259.696 54.4922 263.133 54.4922C278.108 54.4922 290.291 42.2693 290.291 27.2461C290.291 12.2229 278.108 0 263.133 0C248.158 0 235.975 12.2229 235.975 27.2461C235.975 32.201 237.307 36.8485 239.622 40.8573L188.401 101.312C178.591 95.0539 166.962 91.4258 154.5 91.4258C144.749 91.4258 135.506 93.649 127.245 97.6129L103.807 62.342C107.214 57.7892 109.236 52.1342 109.236 46.0156C109.236 30.9924 97.0529 18.7695 82.0781 18.7695C67.1034 18.7695 54.9199 30.9924 54.9199 46.0156C54.9199 61.0388 67.1034 73.2617 82.0781 73.2617C84.379 73.2617 86.6139 72.9708 88.7498 72.4268L112.195 107.71C99.2736 119.358 91.1309 136.242 91.1309 155C91.1309 160.672 91.8782 166.173 93.2762 171.409L47.1308 191.054C42.1636 185.642 35.0511 182.246 27.1582 182.246C12.1835 182.246 0 194.469 0 209.492C0 224.515 12.1835 236.738 27.1582 236.738C42.1329 236.738 54.3164 224.515 54.3164 209.492C54.3164 208.908 54.2928 208.329 54.2551 207.751L100.417 188.102C111.547 206.335 131.576 218.536 154.394 218.572L160.035 258.613C151.374 263.173 145.447 272.279 145.447 282.754C145.447 297.777 157.631 310 172.605 310C187.58 310 199.764 297.777 199.764 282.754C199.764 269.568 190.379 258.542 177.957 256.042L172.32 216.01C185.202 212.219 196.395 204.424 204.46 194.062L255.12 222.831C254.839 224.399 254.684 226.01 254.684 227.656C254.684 242.679 266.867 254.902 281.842 254.902C296.817 254.902 309 242.679 309 227.656C309 212.633 296.817 200.41 281.842 200.41ZM73.0254 46.0156C73.0254 41.0087 77.0873 36.9336 82.0781 36.9336C87.0689 36.9336 91.1309 41.0087 91.1309 46.0156C91.1309 51.0226 87.0689 55.0977 82.0781 55.0977C77.0873 55.0977 73.0254 51.0226 73.0254 46.0156ZM27.1582 218.574C22.1674 218.574 18.1055 214.499 18.1055 209.492C18.1055 204.485 22.1674 200.41 27.1582 200.41C32.149 200.41 36.2109 204.485 36.2109 209.492C36.2109 214.499 32.149 218.574 27.1582 218.574ZM263.133 18.1641C268.124 18.1641 272.186 22.2392 272.186 27.2461C272.186 32.253 268.124 36.3281 263.133 36.3281C258.142 36.3281 254.08 32.253 254.08 27.2461C254.08 22.2392 258.142 18.1641 263.133 18.1641ZM172.605 291.836C167.615 291.836 163.553 287.761 163.553 282.754C163.553 277.747 167.615 273.672 172.605 273.672C177.596 273.672 181.658 277.747 181.658 282.754C181.658 287.761 177.596 291.836 172.605 291.836ZM154.5 200.41C129.541 200.41 109.236 180.039 109.236 155C109.236 129.961 129.541 109.59 154.5 109.59C179.459 109.59 199.764 129.961 199.764 155C199.764 180.039 179.459 200.41 154.5 200.41ZM281.842 236.738C276.851 236.738 272.789 232.663 272.789 227.656C272.789 222.649 276.851 218.574 281.842 218.574C286.833 218.574 290.895 222.649 290.895 227.656C290.895 232.663 286.833 236.738 281.842 236.738Z" fill="#0C4777"/>
</svg>
