<svg width="195" height="195" viewBox="0 0 195 195" fill="none" xmlns="http://www.w3.org/2000/svg">
<path d="M195 97.4947C195 92.8591 192.541 88.6349 188.413 86.1852L177.554 79.7971C181.737 77.3134 185.465 75.098 188.421 73.3388C192.542 70.8804 195 66.6562 195 62.0381C195 57.42 192.541 53.1958 188.421 50.7328C174.849 42.6608 128.825 15.3107 106.138 2.30482C100.884 -0.712003 94.4961 -0.832909 88.8177 2.331C88.8177 2.331 27.1185 38.5712 6.58664 50.7291C2.45841 53.1783 0 57.4025 0 62.0381C0 66.6562 2.45841 70.8804 6.57833 73.3434C9.53449 75.1013 13.2614 77.3163 17.4432 79.7988L6.58706 86.1852C2.45841 88.6349 0 92.8591 0 97.4947C0 102.113 2.45841 106.337 6.57833 108.8C9.53449 110.558 13.2614 112.773 17.4432 115.255L6.58706 121.642C2.45841 124.091 0 128.316 0 132.951C0 137.569 2.45841 141.794 6.57833 144.257C24.1412 154.7 67.3081 180.328 88.8613 192.685C91.5013 194.199 94.4965 195 97.5 195C100.504 195 103.499 194.199 106.147 192.68C127.692 180.327 170.859 154.7 188.422 144.252C192.542 141.794 195 137.569 195 132.951C195 128.316 192.542 124.091 188.413 121.642L177.555 115.254C181.738 112.77 185.465 110.555 188.422 108.795C192.542 106.337 195 102.113 195 97.4947ZM11.1142 65.7372C10.439 65.3304 8.86348 64.1616 8.86348 62.0456C8.86348 59.9204 10.4303 58.7608 11.1054 58.3623C31.6111 46.2181 93.2239 10.032 93.2151 10.0361C96.0371 8.44775 99.1183 8.50841 101.733 10.0058C124.359 22.9768 170.339 50.2949 183.885 58.3536C184.561 58.7604 186.136 59.9291 186.136 62.0452C186.136 64.1612 184.561 65.33 183.885 65.7326C166.349 76.1629 123.234 101.763 101.741 114.08C99.0751 115.604 95.9158 115.599 93.2671 114.085C71.7659 101.763 28.6508 76.1633 11.1142 65.7372ZM183.894 129.271C184.569 129.669 186.136 130.829 186.136 132.955C186.136 135.071 184.561 136.239 183.885 136.642C166.349 147.072 123.234 172.672 101.741 184.99C99.0751 186.513 95.9158 186.509 93.2671 184.994C71.7659 172.672 28.6508 147.072 11.1142 136.646C10.439 136.239 8.86348 135.071 8.86348 132.955C8.86348 130.829 10.4303 129.67 11.1054 129.271L26.1455 120.421C46.4742 132.471 73.2903 148.303 88.8613 157.23C91.5013 158.744 94.4965 159.545 97.5 159.545C100.504 159.545 103.499 158.744 106.147 157.225C121.712 148.302 148.525 132.472 168.853 120.421L183.894 129.271ZM183.885 101.187C166.349 111.618 123.234 137.218 101.741 149.535C99.0751 151.059 95.9158 151.054 93.2671 149.539C71.7659 137.217 28.6508 111.618 11.1142 101.192C10.439 100.785 8.86348 99.6161 8.86348 97.5001C8.86348 95.3749 10.4303 94.2153 11.1054 93.8168L26.1455 84.9666C46.4742 97.016 73.2903 112.848 88.8613 121.775C91.5013 123.29 94.4965 124.091 97.5 124.091C100.504 124.091 103.499 123.29 106.147 121.771C121.712 112.847 148.525 97.0173 168.853 84.9662L183.895 93.8168C184.57 94.2148 186.137 95.3749 186.137 97.5001C186.136 99.6161 184.561 100.785 183.885 101.187Z" fill="#0C4777"/>
</svg>
