<svg width="232" height="232" viewBox="0 0 232 232" fill="none" xmlns="http://www.w3.org/2000/svg">
<path d="M198.024 33.9755C176.115 12.0662 146.984 0 116 0C85.0158 0 55.8848 12.0662 33.9755 33.9755C12.0662 55.8848 0 85.0158 0 116C0 146.984 12.0662 176.115 33.9755 198.024C55.8848 219.934 85.0158 232 116 232C146.984 232 176.115 219.934 198.024 198.024C219.934 176.115 232 146.984 232 116C232 85.0158 219.934 55.8848 198.024 33.9755ZM50.3447 194.525C54.175 161.567 82.5112 136.122 116 136.122C133.654 136.122 150.255 143 162.743 155.486C173.292 166.037 179.945 179.813 181.657 194.523C163.868 209.422 140.964 218.406 116 218.406C91.0356 218.406 68.1334 209.423 50.3447 194.525ZM116 122.121C96.574 122.121 80.7678 106.314 80.7678 86.8885C80.7678 67.4608 96.574 51.6562 116 51.6562C135.426 51.6562 151.232 67.4608 151.232 86.8885C151.232 106.314 135.426 122.121 116 122.121ZM193.357 183.032C189.893 169.067 182.67 156.19 172.354 145.874C163.999 137.52 154.116 131.252 143.336 127.325C156.294 118.536 164.826 103.69 164.826 86.8885C164.826 59.9665 142.922 38.0625 116 38.0625C89.078 38.0625 67.174 59.9665 67.174 86.8885C67.174 103.698 75.7126 118.551 88.6815 127.337C78.7641 130.951 69.5865 136.539 61.6905 143.896C50.2562 154.544 42.3159 168.122 38.6342 183.022C23.0421 165.047 13.5938 141.607 13.5938 116C13.5938 59.5328 59.5328 13.5938 116 13.5938C172.467 13.5938 218.406 59.5328 218.406 116C218.406 141.612 208.954 165.058 193.357 183.032Z" fill="#0C4777"/>
</svg>
