<svg width="200" height="176" viewBox="0 0 200 176" fill="none" xmlns="http://www.w3.org/2000/svg">
<path d="M184 32H24C21.8783 32 19.8434 31.1571 18.3431 29.6569C16.8429 28.1566 16 26.1217 16 24C16 21.8783 16.8429 19.8434 18.3431 18.3431C19.8434 16.8429 21.8783 16 24 16H160C162.122 16 164.157 15.1571 165.657 13.6569C167.157 12.1566 168 10.1217 168 8C168 5.87827 167.157 3.84344 165.657 2.34315C164.157 0.842856 162.122 0 160 0H24C17.6348 0 11.5303 2.52856 7.02944 7.02944C2.52856 11.5303 0 17.6348 0 24V152C0 158.365 2.52856 164.47 7.02944 168.971C11.5303 173.471 17.6348 176 24 176H184C188.243 176 192.313 174.314 195.314 171.314C198.314 168.313 200 164.243 200 160V48C200 43.7565 198.314 39.6869 195.314 36.6863C192.313 33.6857 188.243 32 184 32ZM184 160H24C21.8783 160 19.8434 159.157 18.3431 157.657C16.8429 156.157 16 154.122 16 152V46.63C18.5688 47.5406 21.2746 48.004 24 48H184V160ZM136 100C136 97.6266 136.704 95.3066 138.022 93.3332C139.341 91.3598 141.215 89.8217 143.408 88.9135C145.601 88.0052 148.013 87.7676 150.341 88.2306C152.669 88.6936 154.807 89.8365 156.485 91.5147C158.164 93.193 159.306 95.3311 159.769 97.6589C160.232 99.9867 159.995 102.399 159.087 104.592C158.178 106.785 156.64 108.659 154.667 109.978C152.693 111.296 150.373 112 148 112C144.817 112 141.765 110.736 139.515 108.485C137.264 106.235 136 103.183 136 100Z" fill="#0C4777"/>
</svg>
