<svg width="212" height="143" viewBox="0 0 212 143" fill="none" xmlns="http://www.w3.org/2000/svg">
<path d="M19.1638 129.714C21.822 62.7005 55.0487 29.8574 107.215 29.8574C165.029 32.5114 192.607 62.7005 192.053 129.714" stroke="white" stroke-width="15.2" stroke-miterlimit="2.61313"/>
<path d="M196.927 129.713H14.4014C7.00002 129.713 1 132.461 1 135.851C1 139.24 7.00002 141.988 14.4014 141.988H196.927C204.328 141.988 210.328 139.24 210.328 135.851C210.328 132.461 204.328 129.713 196.927 129.713Z" fill="white" stroke="white" stroke-width="1.5985" stroke-miterlimit="2.61313"/>
<path d="M105.664 20.3472C117.347 20.3472 126.818 15.7923 126.818 10.1736C126.818 4.55488 117.347 0 105.664 0C93.9809 0 84.5098 4.55488 84.5098 10.1736C84.5098 15.7923 93.9809 20.3472 105.664 20.3472Z" fill="white"/>
<path d="M108.654 20.126H102.674V26.208H108.654V20.126Z" fill="white" stroke="white" stroke-width="0.66964" stroke-miterlimit="2.61313"/>
</svg>
