<svg width="21" height="23" viewBox="0 0 21 23" fill="none" xmlns="http://www.w3.org/2000/svg">
<path d="M19.5697 6.61131C19.3819 6.71061 19.1633 6.72971 18.9617 6.66441C18.7602 6.5991 18.5923 6.45474 18.4949 6.26305C17.7336 4.72691 16.5813 3.42858 15.159 2.50446C15.0703 2.44736 14.9936 2.37299 14.9331 2.28559C14.8726 2.19819 14.8295 2.09947 14.8064 1.99508C14.7833 1.89069 14.7805 1.78266 14.7982 1.67717C14.8159 1.57167 14.8538 1.47078 14.9097 1.38025C14.9656 1.28972 15.0385 1.21132 15.124 1.14953C15.2096 1.08774 15.3063 1.04377 15.4085 1.02013C15.5107 0.996487 15.6164 0.993641 15.7197 1.01175C15.823 1.02986 15.9218 1.06857 16.0104 1.12567C17.668 2.2097 19.014 3.72395 19.9107 5.51357C20.0079 5.70534 20.0266 5.92869 19.9627 6.13453C19.8987 6.34037 19.7574 6.51186 19.5697 6.61131ZM0.797263 6.70296C0.943385 6.70289 1.08668 6.66183 1.21151 6.58425C1.33635 6.50668 1.43791 6.39556 1.50513 6.26305C2.26644 4.72691 3.41878 3.42858 4.84108 2.50446C4.92972 2.44736 5.00647 2.37299 5.06697 2.28559C5.12747 2.19819 5.17052 2.09947 5.19366 1.99508C5.21681 1.89069 5.21959 1.78266 5.20186 1.67717C5.18413 1.57167 5.14623 1.47078 5.09033 1.38025C5.03442 1.28972 4.9616 1.21132 4.87603 1.14953C4.79046 1.08774 4.69381 1.04377 4.59161 1.02013C4.4894 0.996487 4.38363 0.993641 4.28035 1.01175C4.17706 1.02986 4.07828 1.06857 3.98964 1.12567C2.33204 2.2097 0.986073 3.72395 0.0893957 5.51357C0.0264233 5.63772 -0.00420328 5.77634 0.000463704 5.91608C0.00513069 6.05582 0.044934 6.19198 0.116043 6.31146C0.187152 6.43095 0.287173 6.52972 0.406481 6.59829C0.525788 6.66685 0.660366 6.7029 0.797263 6.70296ZM19.3514 17.2873C19.4927 17.5348 19.5676 17.8159 19.5685 18.1024C19.5695 18.3889 19.4965 18.6706 19.3568 18.9191C19.2172 19.1676 19.0159 19.3741 18.7732 19.5177C18.5305 19.6614 18.255 19.7371 17.9745 19.7373H13.9068C13.7237 20.6581 13.2346 21.4859 12.5223 22.0806C11.8101 22.6752 10.9184 23 9.99854 23C9.07862 23 8.187 22.6752 7.47474 22.0806C6.76247 21.4859 6.27337 20.6581 6.09031 19.7373H2.02257C1.74224 19.7368 1.467 19.6607 1.22458 19.5169C0.982165 19.3731 0.781131 19.1666 0.64173 18.9182C0.50233 18.6698 0.429486 18.3883 0.430536 18.1019C0.431587 17.8156 0.506494 17.5346 0.647713 17.2873C1.54601 15.7038 2.02257 13.4523 2.02257 10.7762C2.02257 8.61561 2.86289 6.54353 4.35868 5.01576C5.85446 3.488 7.88318 2.62971 9.99854 2.62971C12.1139 2.62971 14.1426 3.488 15.6384 5.01576C17.1342 6.54353 17.9745 8.61561 17.9745 10.7762C17.9745 13.4513 18.4511 15.7028 19.3514 17.2873ZM12.2537 19.7373H7.74333C7.90858 20.2133 8.21412 20.6253 8.61796 20.9167C9.0218 21.208 9.5041 21.3645 9.99854 21.3645C10.493 21.3645 10.9753 21.208 11.3791 20.9167C11.7829 20.6253 12.0885 20.2133 12.2537 19.7373ZM17.9745 18.108C16.9137 16.2476 16.3793 13.7812 16.3793 10.7762C16.3793 9.04773 15.7071 7.39006 14.5104 6.16785C13.3138 4.94564 11.6908 4.25901 9.99854 4.25901C8.30625 4.25901 6.68328 4.94564 5.48665 6.16785C4.29002 7.39006 3.61776 9.04773 3.61776 10.7762C3.61776 13.7822 3.08138 16.2486 2.02257 18.108H17.9745Z" fill="white"/>
<circle cx="17" cy="4" r="4" fill="#FFB018"/>
</svg>
