<svg width="44" height="50" viewBox="0 0 44 50" fill="none" xmlns="http://www.w3.org/2000/svg">
<path fill-rule="evenodd" clip-rule="evenodd" d="M35.8 4.70004L35.3 6.40004C41.8 9.70004 45.1 17.4 42.7 24.5L41.7 27.7C40.3 32 40.4 36.6 42 40.8L42.8 43C43.1 43.9 42.9 44.9 42.3 45.5C41.6 46.2 40.7 46.4 39.8 46.2L2.1 33.8C1.2 33.5 0.599989 32.8 0.399989 31.9C0.299989 30.9 0.699995 30 1.5 29.5L3.5 28.2C7.2 25.8 10.1 22.1 11.5 17.8L12.5 14.6C14.8 7.50004 22 3.30004 29.2 4.40004L29.8 2.70004C30.3 1.10004 32.1 0.200037 33.8 0.700037C35.5 1.30004 36.4 3.00004 35.8 4.70004ZM30.1 9.50004C24.6 7.70004 18.8 10.7 17 16.1L16 19.3C14.5 23.8 11.8 27.8 8.1 30.8L36.7 40.1C35.5 35.6 35.7 30.7 37.2 26.2L38.2 23C40 17.6 37 11.8 31.6 10L30.8 9.80004L30.1 9.50004ZM22.9 48.6C21.4 49.4 19.6 49.5 18 49C16.4 48.5 15.1 47.3 14.3 45.8C13.6 44.3 13.4 42.6 14 41L20 42.9L26 44.9C25.5 46.5 24.4 47.9 22.9 48.6Z" fill="#ECF3F5"/>
</svg>
