<svg width="46" height="43" viewBox="0 0 46 43" fill="none" xmlns="http://www.w3.org/2000/svg">
<path fill-rule="evenodd" clip-rule="evenodd" d="M41.1579 0H4.84211C3.5579 0 2.32629 0.517753 1.41822 1.43936C0.510149 2.36097 0 3.61094 0 4.91429V29.4857C0 30.7891 0.510149 32.039 1.41822 32.9606C2.32629 33.8822 3.5579 34.4 4.84211 34.4H41.1579C42.4421 34.4 43.6737 33.8822 44.5818 32.9606C45.4899 32.039 46 30.7891 46 29.4857V4.91429C46 3.61094 45.4899 2.36097 44.5818 1.43936C43.6737 0.517753 42.4421 0 41.1579 0ZM2.42105 4.91429C2.42105 4.26261 2.67613 3.63763 3.13016 3.17682C3.5842 2.71602 4.2 2.45714 4.84211 2.45714H41.1579C41.8 2.45714 42.4158 2.71602 42.8698 3.17682C43.3239 3.63763 43.5789 4.26261 43.5789 4.91429V29.4857C43.5789 30.1374 43.3239 30.7624 42.8698 31.2232C42.4158 31.684 41.8 31.9429 41.1579 31.9429H4.84211C4.2 31.9429 3.5842 31.684 3.13016 31.2232C2.67613 30.7624 2.42105 30.1374 2.42105 29.4857V4.91429Z" fill="white"/>
<path d="M23 30.7143C22.5184 30.7143 22.0566 30.5201 21.716 30.1745C21.3755 29.8289 21.1842 29.3602 21.1842 28.8714C21.1842 28.3827 21.3755 27.9139 21.716 27.5683C22.0566 27.2227 22.5184 27.0286 23 27.0286C23.4816 27.0286 23.9434 27.2227 24.284 27.5683C24.6245 27.9139 24.8158 28.3827 24.8158 28.8714C24.8158 29.3602 24.6245 29.8289 24.284 30.1745C23.9434 30.5201 23.4816 30.7143 23 30.7143Z" fill="white"/>
<path fill-rule="evenodd" clip-rule="evenodd" d="M26.6316 31.9429H19.3684C18.7263 31.9429 18.1105 32.2017 17.6565 32.6625C17.2024 33.1233 16.9474 33.7483 16.9474 34.4V40.5429C16.9474 41.1945 17.2024 41.8195 17.6565 42.2803C18.1105 42.7411 18.7263 43 19.3684 43H26.6316C27.2737 43 27.8895 42.7411 28.3435 42.2803C28.7976 41.8195 29.0526 41.1945 29.0526 40.5429V34.4C29.0526 33.7483 28.7976 33.1233 28.3435 32.6625C27.8895 32.2017 27.2737 31.9429 26.6316 31.9429ZM19.3684 40.5429V34.4H26.6316V40.5429H19.3684Z" fill="white"/>
<path d="M12.1053 43C11.7842 43 11.4763 42.8706 11.2493 42.6402C11.0223 42.4098 10.8947 42.0973 10.8947 41.7714C10.8947 41.4456 11.0223 41.1331 11.2493 40.9027C11.4763 40.6723 11.7842 40.5429 12.1053 40.5429H33.8947C34.2158 40.5429 34.5237 40.6723 34.7507 40.9027C34.9777 41.1331 35.1053 41.4456 35.1053 41.7714C35.1053 42.0973 34.9777 42.4098 34.7507 42.6402C34.5237 42.8706 34.2158 43 33.8947 43H12.1053Z" fill="white"/>
<path fill-rule="evenodd" clip-rule="evenodd" d="M44.7895 25.8H1.21053V23.3429H44.7895V25.8Z" fill="white"/>
</svg>
