<svg width="43" height="43" viewBox="0 0 43 43" fill="none" xmlns="http://www.w3.org/2000/svg">
<path d="M25.3333 13.3333H6.66667C6.31305 13.3333 5.97391 13.1929 5.72386 12.9428C5.47381 12.6928 5.33333 12.3536 5.33333 12V6.66667C5.33333 6.31305 5.47381 5.97391 5.72386 5.72386C5.97391 5.47381 6.31305 5.33333 6.66667 5.33333H25.3333C25.687 5.33333 26.0261 5.47381 26.2761 5.72386C26.5262 5.97391 26.6667 6.31305 26.6667 6.66667V12C26.6667 12.3536 26.5262 12.6928 26.2761 12.9428C26.0261 13.1929 25.687 13.3333 25.3333 13.3333ZM8 10.6667H24V7.92H8V10.6667Z" fill="white"/>
<path d="M25.3333 16.1067H6.66667C6.31305 16.1067 5.97391 16.2471 5.72386 16.4972C5.47381 16.7472 5.33333 17.0864 5.33333 17.44V22.6667C5.33333 23.0203 5.47381 23.3594 5.72386 23.6095C5.97391 23.8595 6.31305 24 6.66667 24H21.8133L26.6667 19.0667V17.44C26.6667 17.0864 26.5262 16.7472 26.2761 16.4972C26.0261 16.2471 25.687 16.1067 25.3333 16.1067ZM24 21.3333H8V18.6667H24V21.3333Z" fill="white"/>
<path d="M12.08 39.3467V39.2667L12.5067 37.4133H2.66667V2.66667H29.3333V16.3333L32 13.8133V1.33333C32 0.979711 31.8595 0.640573 31.6095 0.390524C31.3594 0.140476 31.0203 0 30.6667 0H1.33333C0.979711 0 0.640573 0.140476 0.390524 0.390524C0.140476 0.640573 0 0.979711 0 1.33333V38.6667C0 39.0203 0.140476 39.3594 0.390524 39.6095C0.640573 39.8595 0.979711 40 1.33333 40H12C12.011 39.7806 12.0377 39.5622 12.08 39.3467Z" fill="white"/>
<path d="M26.6667 22.8933L25.6267 23.9467C25.8847 23.8935 26.1212 23.765 26.3063 23.5776C26.4914 23.3901 26.6168 23.152 26.6667 22.8933Z" fill="white"/>
<path d="M5.33333 33.2533C5.33333 33.607 5.47381 33.9461 5.72386 34.1961C5.97391 34.4462 6.31305 34.5867 6.66667 34.5867H13.12L13.52 32.8533L13.6933 32.12V32.0533H8V29.3333H16.4533L19.12 26.6667H6.66667C6.31305 26.6667 5.97391 26.8071 5.72386 27.0572C5.47381 27.3072 5.33333 27.6464 5.33333 28V33.2533Z" fill="white"/>
<path d="M41.9867 19.56L37.4933 15.0667C37.2939 14.8667 37.057 14.7081 36.7962 14.5998C36.5354 14.4916 36.2557 14.4358 35.9733 14.4358C35.6909 14.4358 35.4113 14.4916 35.1505 14.5998C34.8897 14.7081 34.6527 14.8667 34.4533 15.0667L16.1733 33.4533L14.6667 39.8667C14.6103 40.1433 14.609 40.4284 14.6629 40.7056C14.7169 40.9828 14.825 41.2466 14.981 41.4819C15.1371 41.7172 15.3381 41.9195 15.5724 42.077C15.8067 42.2346 16.0698 42.3443 16.3467 42.4C16.4841 42.4138 16.6226 42.4138 16.76 42.4C16.9234 42.4266 17.09 42.4266 17.2533 42.4L23.72 40.9733L41.9867 22.6667C42.1862 22.4684 42.3446 22.2326 42.4527 21.9729C42.5607 21.7132 42.6164 21.4346 42.6164 21.1533C42.6164 20.872 42.5607 20.5935 42.4527 20.3338C42.3446 20.0741 42.1862 19.8383 41.9867 19.64V19.56ZM22.36 38.5467L17.48 39.6267L18.6667 34.7867L32.3733 20.9333L36.1333 24.6933L22.36 38.5467ZM37.64 23.1867L33.88 19.4267L36 17.3333L39.7867 21.12L37.64 23.1867Z" fill="white"/>
</svg>
