<svg width="44" height="44" viewBox="0 0 44 44" fill="none" xmlns="http://www.w3.org/2000/svg">
<path d="M7.33333 18.9444C7.33333 18.2222 7.47559 17.507 7.752 16.8397C8.0284 16.1724 8.43352 15.5661 8.94425 15.0554C9.45497 14.5446 10.0613 14.1395 10.7286 13.8631C11.3959 13.5867 12.1111 13.4444 12.8333 13.4444C13.5556 13.4444 14.2708 13.5867 14.9381 13.8631C15.6054 14.1395 16.2117 14.5446 16.7224 15.0554C17.2331 15.5661 17.6383 16.1724 17.9147 16.8397C18.1911 17.507 18.3333 18.2222 18.3333 18.9444C18.3333 20.4031 17.7539 21.8021 16.7224 22.8335C15.691 23.865 14.292 24.4444 12.8333 24.4444C11.3746 24.4444 9.9757 23.865 8.94425 22.8335C7.9128 21.8021 7.33333 20.4031 7.33333 18.9444ZM12.8333 17.1111C12.3471 17.1111 11.8808 17.3043 11.537 17.6481C11.1932 17.9919 11 18.4582 11 18.9444C11 19.4307 11.1932 19.897 11.537 20.2408C11.8808 20.5846 12.3471 20.7778 12.8333 20.7778C13.3196 20.7778 13.7859 20.5846 14.1297 20.2408C14.4735 19.897 14.6667 19.4307 14.6667 18.9444C14.6667 18.4582 14.4735 17.9919 14.1297 17.6481C13.7859 17.3043 13.3196 17.1111 12.8333 17.1111ZM12.8333 26.8889C11.3746 26.8889 9.9757 27.4684 8.94425 28.4998C7.9128 29.5313 7.33333 30.9302 7.33333 32.3889C7.33333 33.8476 7.9128 35.2465 8.94425 36.278C9.9757 37.3094 11.3746 37.8889 12.8333 37.8889C14.292 37.8889 15.691 37.3094 16.7224 36.278C17.7539 35.2465 18.3333 33.8476 18.3333 32.3889C18.3333 30.9302 17.7539 29.5313 16.7224 28.4998C15.691 27.4684 14.292 26.8889 12.8333 26.8889ZM11 32.3889C11 31.9027 11.1932 31.4363 11.537 31.0925C11.8808 30.7487 12.3471 30.5556 12.8333 30.5556C13.3196 30.5556 13.7859 30.7487 14.1297 31.0925C14.4735 31.4363 14.6667 31.9027 14.6667 32.3889C14.6667 32.8751 14.4735 33.3414 14.1297 33.6853C13.7859 34.0291 13.3196 34.2222 12.8333 34.2222C12.3471 34.2222 11.8808 34.0291 11.537 33.6853C11.1932 33.3414 11 32.8751 11 32.3889ZM22 18.9444C22 18.4582 22.1932 17.9919 22.537 17.6481C22.8808 17.3043 23.3471 17.1111 23.8333 17.1111H34.8333C35.3196 17.1111 35.7859 17.3043 36.1297 17.6481C36.4735 17.9919 36.6667 18.4582 36.6667 18.9444C36.6667 19.4307 36.4735 19.897 36.1297 20.2408C35.7859 20.5846 35.3196 20.7778 34.8333 20.7778H23.8333C23.3471 20.7778 22.8808 20.5846 22.537 20.2408C22.1932 19.897 22 19.4307 22 18.9444ZM23.8333 30.5556C23.3471 30.5556 22.8808 30.7487 22.537 31.0925C22.1932 31.4363 22 31.9027 22 32.3889C22 32.8751 22.1932 33.3414 22.537 33.6853C22.8808 34.0291 23.3471 34.2222 23.8333 34.2222H34.8333C35.3196 34.2222 35.7859 34.0291 36.1297 33.6853C36.4735 33.3414 36.6667 32.8751 36.6667 32.3889C36.6667 31.9027 36.4735 31.4363 36.1297 31.0925C35.7859 30.7487 35.3196 30.5556 34.8333 30.5556H23.8333ZM7.33333 9.16667C7.33333 8.68044 7.52649 8.21412 7.8703 7.8703C8.21412 7.52649 8.68044 7.33333 9.16667 7.33333H34.8333C35.3196 7.33333 35.7859 7.52649 36.1297 7.8703C36.4735 8.21412 36.6667 8.68044 36.6667 9.16667C36.6667 9.6529 36.4735 10.1192 36.1297 10.463C35.7859 10.8068 35.3196 11 34.8333 11H9.16667C8.68044 11 8.21412 10.8068 7.8703 10.463C7.52649 10.1192 7.33333 9.6529 7.33333 9.16667ZM7.94444 0C5.83745 0 3.81675 0.837001 2.32687 2.32687C0.837001 3.81675 0 5.83745 0 7.94444V36.0556C0 38.1626 0.837001 40.1833 2.32687 41.6731C3.81675 43.163 5.83745 44 7.94444 44H36.0556C38.1626 44 40.1833 43.163 41.6731 41.6731C43.163 40.1833 44 38.1626 44 36.0556V7.94444C44 5.83745 43.163 3.81675 41.6731 2.32687C40.1833 0.837001 38.1626 0 36.0556 0H7.94444ZM3.66667 7.94444C3.66667 5.58311 5.58311 3.66667 7.94444 3.66667H36.0556C38.4169 3.66667 40.3333 5.58311 40.3333 7.94444V36.0556C40.3333 37.1901 39.8826 38.2782 39.0804 39.0804C38.2782 39.8826 37.1901 40.3333 36.0556 40.3333H7.94444C6.80991 40.3333 5.72184 39.8826 4.9196 39.0804C4.11736 38.2782 3.66667 37.1901 3.66667 36.0556V7.94444Z" fill="white"/>
</svg>
