<svg width="40" height="40" viewBox="0 0 40 40" fill="none" xmlns="http://www.w3.org/2000/svg">
<path d="M4.0375 40C2.8875 40 1.9275 39.615 1.1575 38.845C0.385833 38.0733 0 37.1125 0 35.9625V4.0375C0 2.8875 0.385833 1.9275 1.1575 1.1575C1.9275 0.385833 2.8875 0 4.0375 0H35.9625C37.1125 0 38.0725 0.385833 38.8425 1.1575C39.6142 1.9275 40 2.8875 40 4.0375V35.9625C40 37.1125 39.615 38.0725 38.845 38.8425C38.0733 39.6142 37.1125 40 35.9625 40H4.0375ZM4.0375 37.5H18.75V2.5H4.0375C3.65417 2.5 3.30167 2.66 2.98 2.98C2.66 3.30167 2.5 3.65417 2.5 4.0375V35.9625C2.5 36.3458 2.66 36.6983 2.98 37.02C3.30167 37.34 3.65417 37.5 4.0375 37.5ZM21.25 37.5H35.9625C36.3458 37.5 36.6983 37.34 37.02 37.02C37.34 36.6983 37.5 36.3458 37.5 35.9625V20H21.25V37.5ZM21.25 17.5H37.5V4.0375C37.5 3.65417 37.34 3.30167 37.02 2.98C36.6983 2.66 36.3458 2.5 35.9625 2.5H21.25V17.5Z" fill="white"/>
</svg>
