<svg width="192" height="216" viewBox="0 0 192 216" fill="none" xmlns="http://www.w3.org/2000/svg">
<path d="M176 72H144V48C144 35.2696 138.943 23.0606 129.941 14.0589C120.939 5.05713 108.73 0 96 0C83.2696 0 71.0606 5.05713 62.0589 14.0589C53.0571 23.0606 48 35.2696 48 48V72H16C11.7565 72 7.68687 73.6857 4.68629 76.6863C1.68571 79.6869 0 83.7565 0 88V200C0 204.243 1.68571 208.313 4.68629 211.314C7.68687 214.314 11.7565 216 16 216H176C180.243 216 184.313 214.314 187.314 211.314C190.314 208.313 192 204.243 192 200V88C192 83.7565 190.314 79.6869 187.314 76.6863C184.313 73.6857 180.243 72 176 72ZM64 48C64 39.5131 67.3714 31.3737 73.3726 25.3726C79.3737 19.3714 87.5131 16 96 16C104.487 16 112.626 19.3714 118.627 25.3726C124.629 31.3737 128 39.5131 128 48V72H64V48ZM176 200H16V88H176V200ZM108 144C108 146.373 107.296 148.693 105.978 150.667C104.659 152.64 102.785 154.178 100.592 155.087C98.3995 155.995 95.9867 156.232 93.6589 155.769C91.3311 155.306 89.1929 154.163 87.5147 152.485C85.8365 150.807 84.6936 148.669 84.2306 146.341C83.7676 144.013 84.0052 141.601 84.9134 139.408C85.8217 137.215 87.3598 135.341 89.3332 134.022C91.3065 132.704 93.6266 132 96 132C99.1826 132 102.235 133.264 104.485 135.515C106.736 137.765 108 140.817 108 144Z" fill="#0C4777"/>
</svg>
