<svg width="175" height="175" viewBox="0 0 175 175" fill="none" xmlns="http://www.w3.org/2000/svg">
<path d="M164.397 140.787C164.397 140.606 164.381 140.457 164.359 140.339C159.885 137.269 134.873 120.791 130.197 117.8C129.705 117.789 128.455 117.956 126.671 118.892C124.769 119.888 119.226 122.99 111.472 127.402L105.439 130.835L99.7539 126.854C95.5268 123.885 86.3366 116.823 72.3447 102.871C58.2926 88.8597 51.2338 79.7267 48.2734 75.5273L44.2816 69.857L47.729 63.8403C51.0698 58.0089 55.0725 50.9636 56.2789 48.6713C57.2502 46.8322 57.327 45.5742 57.327 45.2331C57.327 45.1786 57.327 45.132 57.3214 45.094C54.6948 40.9162 37.726 15.4302 34.6343 10.9308C34.1965 10.8571 33.2444 10.9253 32.0543 11.7521C22.4345 18.6775 12.3961 28.5063 10.957 32.3537C11.9201 52.8244 29.9585 81.5493 61.841 113.341C93.7264 145.131 122.498 163.118 142.955 164.068C146.824 162.687 156.742 152.673 163.631 143.172C164.115 142.468 164.397 141.597 164.397 140.787ZM175 140.787C175 143.676 174.124 146.741 172.269 149.399C172.089 149.655 153.758 175.338 143.142 174.997C113.314 174.05 78.2579 145.142 54.1018 121.059C29.9511 96.9753 0.955034 62.0126 0 32.147V31.9014C0 21.4451 25.4229 3.06461 25.6746 2.88725C32.583 -1.93725 40.1892 -0.177073 43.2782 4.21339C45.1605 6.88478 64.649 36.1145 66.8433 39.6971C67.8009 41.258 68.2688 43.1626 68.2688 45.2337C68.2688 47.9051 67.4863 50.863 65.9649 53.7497C64.4794 56.563 59.6175 65.0847 57.2292 69.2542C59.8147 72.9272 66.4413 81.5551 80.0857 95.1495C93.626 108.659 102.348 115.328 106.05 117.923C110.228 115.546 118.773 110.703 121.585 109.23C126.887 106.438 132.182 106.121 135.752 108.386C139.117 110.512 168.209 129.869 170.978 131.867C173.591 133.752 175 137.127 175 140.787Z" fill="#F8F9FA"/>
</svg>
