<svg width="61" height="61" viewBox="0 0 61 61" fill="none" xmlns="http://www.w3.org/2000/svg">
<path d="M16.25 30.5L27.6805 40.0255C28.1108 40.384 28.7517 40.3193 29.1016 39.8819L44.75 20.3214M30.5 59C26.7573 59 23.0513 58.2628 19.5935 56.8306C16.1357 55.3983 12.9939 53.299 10.3475 50.6525C7.70099 48.0061 5.60169 44.8643 4.16943 41.4065C2.73717 37.9487 2 34.2427 2 30.5C2 26.7573 2.73717 23.0513 4.16943 19.5935C5.60169 16.1357 7.70099 12.9939 10.3475 10.3475C12.9939 7.70099 16.1357 5.60169 19.5935 4.16943C23.0513 2.73717 26.7573 2 30.5 2C38.0587 2 45.3078 5.00267 50.6525 10.3475C55.9973 15.6922 59 22.9413 59 30.5C59 38.0587 55.9973 45.3078 50.6525 50.6525C45.3078 55.9973 38.0587 59 30.5 59Z" stroke="#187C4A" stroke-width="4"/>
</svg>
