<svg width="155" height="155" viewBox="0 0 155 155" fill="none" xmlns="http://www.w3.org/2000/svg">
<path fill-rule="evenodd" clip-rule="evenodd" d="M77.5 14C60.6588 14 44.5073 20.6902 32.5987 32.5987C20.6902 44.5073 14 60.6588 14 77.5V104.615C14 108.481 10.866 111.615 7 111.615C3.13401 111.615 0 108.481 0 104.615V77.5C0 56.9457 8.16516 37.2333 22.6992 22.6992C37.2333 8.16516 56.9457 0 77.5 0C98.0543 0 117.767 8.16516 132.301 22.6992C146.835 37.2333 155 56.9457 155 77.5V104.615C155 108.481 151.866 111.615 148 111.615C144.134 111.615 141 108.481 141 104.615V77.5C141 60.6588 134.31 44.5073 122.401 32.5987C110.493 20.6902 94.3412 14 77.5 14ZM39.5385 89.9231C37.4143 89.9231 35.6923 91.6451 35.6923 93.7692V137.154C35.6923 139.278 37.4143 141 39.5385 141H50.3846C52.5088 141 54.2308 139.278 54.2308 137.154V93.7692C54.2308 91.6451 52.5088 89.9231 50.3846 89.9231H39.5385ZM21.6923 93.7692C21.6923 83.9131 29.6823 75.9231 39.5385 75.9231H50.3846C60.2408 75.9231 68.2308 83.9131 68.2308 93.7692V137.154C68.2308 147.01 60.2408 155 50.3846 155H39.5385C29.6823 155 21.6923 147.01 21.6923 137.154V93.7692ZM104.615 89.9231C102.491 89.9231 100.769 91.6451 100.769 93.7692V137.154C100.769 139.278 102.491 141 104.615 141H115.462C117.586 141 119.308 139.278 119.308 137.154V93.7692C119.308 91.6451 117.586 89.9231 115.462 89.9231H104.615ZM86.7692 93.7692C86.7692 83.9131 94.7592 75.9231 104.615 75.9231H115.462C125.318 75.9231 133.308 83.9131 133.308 93.7692V137.154C133.308 147.01 125.318 155 115.462 155H104.615C94.7592 155 86.7692 147.01 86.7692 137.154V93.7692Z" fill="#0C4777"/>
</svg>
