<svg width="20" height="20" viewBox="0 0 20 20" fill="none" xmlns="http://www.w3.org/2000/svg">
<path d="M19.5258 12.1855C19.2476 11.9256 18.8846 11.7824 18.5039 11.7824C18.098 11.7824 17.7183 11.9418 17.4345 12.2312L15.5195 14.184H12.7074C12.905 13.9212 13.0072 13.6019 12.9981 13.2669C12.9765 12.4832 12.3097 11.8457 11.5118 11.8457H8.25387C7.97264 11.8457 7.69939 11.9039 7.44153 12.0187L5.06561 13.0785H3.98771V12.8191C3.98771 12.6573 3.85653 12.5261 3.69473 12.5261H2.47827C2.31647 12.5261 2.18529 12.6573 2.18529 12.8191C2.18529 12.9809 2.31647 13.1121 2.47827 13.1121H3.40175V19.4141H0.586002V13.1121H1.11102C1.27283 13.1121 1.40401 12.981 1.40401 12.8191C1.40401 12.6573 1.27283 12.5262 1.11102 12.5262H0.292981C0.131177 12.5262 0 12.6573 0 12.8191V19.707C0 19.8689 0.131177 20 0.292981 20H3.69469C3.85649 20 3.98767 19.8689 3.98767 19.707V19.6172H7.12726C7.49516 19.6172 7.86268 19.5724 8.21957 19.484L13.0741 18.282C13.2312 18.2431 13.3269 18.0843 13.2881 17.9272C13.2492 17.7702 13.0903 17.6744 12.9332 17.7132L8.07874 18.9152C7.76787 18.9922 7.44774 19.0312 7.1273 19.0312H3.98771V13.6645H5.12799C5.16913 13.6645 5.20979 13.6558 5.24733 13.6391L7.68009 12.554C7.86233 12.4729 8.05534 12.4317 8.25387 12.4317H11.5118C11.9954 12.4317 12.3994 12.8136 12.4124 13.283C12.4189 13.5221 12.3308 13.748 12.1645 13.9189C11.9981 14.0899 11.5344 14.1842 11.5334 14.1842H9.30563C9.14383 14.1842 9.01265 14.3153 9.01265 14.4771C9.01265 14.639 9.14383 14.7701 9.30563 14.7701L15.6424 14.77C15.7211 14.77 15.7965 14.7383 15.8516 14.6821L17.8529 12.6415C18.0255 12.4654 18.2567 12.3684 18.5039 12.3684C18.7356 12.3684 18.9564 12.4555 19.1257 12.6136C19.4926 12.9566 19.5124 13.5343 19.1698 13.9013L17.2221 15.988C16.6979 16.5516 16.0251 16.9475 15.2767 17.1329L14.2603 17.3844C14.1032 17.4233 14.0074 17.5821 14.0462 17.7392C14.0793 17.8726 14.1988 17.9618 14.3304 17.9618C14.3537 17.9618 14.3774 17.959 14.401 17.9532L15.4175 17.7016C16.2768 17.4888 17.0491 17.0342 17.6508 16.3874L19.5981 14.3011C20.1611 13.698 20.1286 12.749 19.5258 12.1855Z" fill="#6B6B6B"/>
<path d="M11.9735 11.1609C15.0507 11.1609 17.5542 8.65754 17.5542 5.58051C17.5542 4.29277 17.1033 3.0357 16.2847 2.04082C16.1819 1.91598 15.9972 1.89793 15.8723 2.00078C15.7474 2.10359 15.7294 2.2882 15.8322 2.41316C16.5648 3.30344 16.9683 4.42832 16.9683 5.58055C16.9683 8.33453 14.7276 10.575 11.9735 10.575C9.21942 10.575 6.97878 8.33453 6.97878 5.58055C6.97881 2.82645 9.21942 0.585938 11.9735 0.585938C13.0288 0.585938 14.0383 0.9125 14.893 1.53039C15.0242 1.62516 15.2073 1.59574 15.3021 1.46457C15.3969 1.33348 15.3675 1.15031 15.2363 1.05551C14.2811 0.365 13.1529 0 11.9735 0C8.89632 0 6.39281 2.5034 6.39281 5.58047C6.39285 8.65754 8.89632 11.1609 11.9735 11.1609Z" fill="#6B6B6B"/>
<path d="M14.2236 2.12629L13.2479 2.72668C13.1958 2.70336 13.1433 2.68152 13.0903 2.66117L12.825 1.54703C12.7936 1.41508 12.6757 1.32191 12.54 1.32191H11.4069C11.2712 1.32191 11.1533 1.41508 11.1219 1.54703L10.8566 2.66117C10.8036 2.68152 10.751 2.70336 10.699 2.72668L9.72331 2.12629C9.60779 2.0552 9.45853 2.07273 9.36259 2.16863L8.56138 2.96984C8.46544 3.06578 8.44794 3.215 8.51904 3.33055L9.11941 4.30613C9.09609 4.3582 9.07425 4.41078 9.05394 4.46379L7.93975 4.72906C7.80779 4.76051 7.71463 4.8784 7.71463 5.01406V6.14711C7.71463 6.28277 7.80775 6.4007 7.93975 6.43211L9.05394 6.69738C9.07425 6.75031 9.09613 6.80293 9.11941 6.855L8.51904 7.83063C8.44794 7.94617 8.46548 8.09539 8.56138 8.19133L9.36259 8.9925C9.45853 9.0884 9.60779 9.10586 9.72331 9.03484L10.6989 8.43445C10.751 8.45777 10.8035 8.47961 10.8566 8.49996L11.1218 9.6141C11.1532 9.74605 11.2712 9.83922 11.4069 9.83922H12.5399C12.6756 9.83922 12.7936 9.74605 12.825 9.6141L13.0902 8.49996C13.1433 8.47961 13.1959 8.45777 13.2479 8.43445L14.2235 9.03484C14.3391 9.10598 14.4883 9.0884 14.5842 8.9925L15.3855 8.19133C15.4814 8.09539 15.4989 7.94617 15.4278 7.83063L14.8274 6.855C14.8507 6.80293 14.8726 6.75031 14.8929 6.69738L16.0071 6.43211C16.139 6.4007 16.2322 6.28277 16.2322 6.14711V5.01406C16.2322 4.8784 16.139 4.76051 16.0071 4.72906L14.8929 4.46379C14.8725 4.41078 14.8507 4.3582 14.8274 4.30613L15.4278 3.33055C15.4989 3.215 15.4814 3.06578 15.3854 2.96984L14.5842 2.16863C14.4884 2.07273 14.3391 2.05523 14.2236 2.12629ZM14.2336 4.4225C14.2965 4.54512 14.3495 4.67262 14.391 4.8016C14.4225 4.89906 14.5025 4.97309 14.6021 4.9968L15.6463 5.24543V5.91566L14.6021 6.16426C14.5024 6.18797 14.4224 6.26199 14.391 6.35949C14.3496 6.48836 14.2966 6.6159 14.2336 6.73855C14.1868 6.82969 14.191 6.93867 14.2447 7.0259L14.8075 7.94055L14.3336 8.41445L13.4189 7.8516C13.3316 7.79789 13.2226 7.79371 13.1315 7.84055C13.009 7.90344 12.8815 7.95645 12.7524 7.99801C12.6549 8.02941 12.5809 8.10941 12.5572 8.20898L12.3086 9.25316H11.6383L11.3896 8.20898C11.3659 8.10938 11.2919 8.02938 11.1945 7.99801C11.0654 7.95645 10.9378 7.90344 10.8153 7.84055C10.7241 7.79359 10.6151 7.79789 10.528 7.8516L9.61326 8.41445L9.13934 7.94055L9.70221 7.0259C9.75592 6.93863 9.7601 6.82969 9.71331 6.73855C9.6503 6.6159 9.59732 6.48836 9.55584 6.35949C9.52447 6.26199 9.44443 6.18797 9.34481 6.16426L8.30055 5.91566V5.24543L9.34481 4.9968C9.44443 4.97309 9.52443 4.89906 9.55584 4.8016C9.59736 4.67262 9.65033 4.54512 9.71331 4.4225C9.7601 4.33137 9.75589 4.22238 9.70217 4.13516L9.13941 3.22051L9.61334 2.74656L10.528 3.30941C10.6153 3.36305 10.7242 3.36734 10.8154 3.32051C10.9381 3.25754 11.0657 3.20453 11.1945 3.16305C11.292 3.13168 11.366 3.05164 11.3897 2.95207L11.6383 1.90785H12.3087L12.5573 2.95207C12.581 3.05168 12.655 3.13172 12.7525 3.16305C12.8813 3.20453 13.0089 3.25754 13.1316 3.32051C13.2228 3.36734 13.3317 3.36305 13.419 3.30941L14.3337 2.74656L14.8076 3.22051L14.2448 4.13512C14.191 4.22238 14.1868 4.33137 14.2336 4.4225Z" fill="#6B6B6B"/>
<path d="M11.9734 4.15449C11.1871 4.15449 10.5474 4.79422 10.5474 5.58055C10.5474 6.36684 11.1871 7.00656 11.9734 7.00656C12.7598 7.00656 13.3995 6.36684 13.3995 5.58055C13.3996 4.79422 12.7598 4.15449 11.9734 4.15449ZM11.9734 6.42062C11.5102 6.42062 11.1333 6.04379 11.1333 5.58055C11.1333 5.1173 11.5102 4.74043 11.9734 4.74043C12.4367 4.74043 12.8136 5.11727 12.8136 5.58055C12.8136 6.04379 12.4367 6.42062 11.9734 6.42062Z" fill="#6B6B6B"/>
</svg>
