<svg width="62" height="50" viewBox="0 0 62 50" fill="none" xmlns="http://www.w3.org/2000/svg">
<path d="M42.7002 24.8L27.2002 16.1V33.2L42.7002 24.8Z" fill="#0E365C"/>
<path d="M0 0.900024H61.3V42.1H0V0.900024ZM0 43H61.3V46.6H0V43Z" fill="#0C4777"/>
<path d="M0 42.1H4.39999V43.1H0V42.1Z" fill="white"/>
<path d="M0 42.1H61.3V43.1H0V42.1ZM4.09999 4.30005H7.59999C8.29999 4.30005 8.89999 4.89995 8.89999 5.69995V5.90002C8.89999 6.70002 8.29999 7.30005 7.59999 7.30005H4.09999C3.39999 7.30005 2.79999 6.70002 2.79999 5.90002V5.69995C2.79999 4.89995 3.39999 4.30005 4.09999 4.30005ZM16.5 4.30005H20C20.7 4.30005 21.3 4.89995 21.3 5.69995V5.90002C21.3 6.70002 20.7 7.30005 20 7.30005H16.5C15.8 7.30005 15.2 6.70002 15.2 5.90002V5.69995C15.2 4.89995 15.8 4.30005 16.5 4.30005ZM28.9 4.30005H32.4C33.1 4.30005 33.7 4.89995 33.7 5.69995V5.90002C33.7 6.70002 33.1 7.30005 32.4 7.30005H28.9C28.2 7.30005 27.6 6.70002 27.6 5.90002V5.69995C27.6 4.89995 28.2 4.30005 28.9 4.30005ZM41.3 4.30005H44.8C45.5 4.30005 46.1 4.89995 46.1 5.69995V5.90002C46.1 6.70002 45.5 7.30005 44.8 7.30005H41.3C40.6 7.30005 40 6.70002 40 5.90002V5.69995C40 4.89995 40.6 4.30005 41.3 4.30005ZM53.8 4.30005H57.2C58 4.30005 58.5 4.89995 58.5 5.69995V5.90002C58.5 6.70002 58 7.30005 57.2 7.30005H53.8C53 7.30005 52.4 6.70002 52.4 5.90002V5.69995C52.4 4.89995 53 4.30005 53.8 4.30005ZM10.1 37.9C13.3 37.9 15.8 40.4 15.8 43.5C15.8 46.7 13.3 49.2 10.1 49.2C6.99999 49.2 4.5 46.7 4.5 43.5C4.5 40.4 6.99999 37.9 10.1 37.9Z" fill="#ECF3F5"/>
<path d="M10.1002 38.5C12.9002 38.5 15.1002 40.7 15.1002 43.5C15.1002 46.2 12.9002 48.5 10.1002 48.5C7.40019 48.5 5.2002 46.2 5.2002 43.5C5.2002 40.7 7.40019 38.5 10.1002 38.5Z" fill="#0C4777"/>
<path d="M10.0999 41.3C11.3999 41.3 12.3999 42.3 12.3999 43.5C12.3999 44.7 11.3999 45.7 10.0999 45.7C8.8999 45.7 7.8999 44.7 7.8999 43.5C7.8999 42.3 8.8999 41.3 10.0999 41.3ZM30.6999 11.1C37.8999 11.1 43.6999 16.9 43.6999 24.2C43.6999 31.4 37.8999 37.2 30.6999 37.2C23.3999 37.2 17.5999 31.4 17.5999 24.2C17.5999 16.9 23.3999 11.1 30.6999 11.1Z" fill="#ECF3F5"/>
<path d="M25.8999 15.5L26.5999 16L39.3999 23.7L40.0999 24.2L39.3999 24.6L26.6999 32.3L25.8999 32.8V31.9V16.4V15.5Z" fill="#FF8927"/>
</svg>
