<svg width="220" height="186" viewBox="0 0 220 186" fill="none" xmlns="http://www.w3.org/2000/svg">
<path d="M201.594 6H18.0724C11.405 6 6 12.4096 6 20.3163V156.155C6 164.061 11.405 170.471 18.0724 170.471H201.594C208.262 170.471 213.667 164.061 213.667 156.155V20.3163C213.667 12.4096 208.262 6 201.594 6Z" stroke="white" stroke-width="11.57" stroke-miterlimit="2.61313"/>
<path d="M48.3087 167.918H44.8752C40.9604 167.918 37.7869 169.111 37.7869 170.582V182.79C37.7869 184.261 40.9604 185.453 44.8752 185.453H48.3087C52.2234 185.453 55.397 184.261 55.397 182.79V170.582C55.397 169.111 52.2234 167.918 48.3087 167.918Z" fill="white"/>
<path d="M181.658 167.918H178.225C174.31 167.918 171.137 169.111 171.137 170.582V182.79C171.137 184.261 174.31 185.453 178.225 185.453H181.658C185.573 185.453 188.747 184.261 188.747 182.79V170.582C188.747 169.111 185.573 167.918 181.658 167.918Z" fill="white"/>
<path fill-rule="evenodd" clip-rule="evenodd" d="M170.804 57.3833C180.551 57.3833 188.415 65.0408 188.415 74.3631C188.415 81.3548 184.095 87.3476 177.893 89.9001V112.096C177.893 115.092 175.345 117.534 172.244 117.534H169.365C166.264 117.534 163.716 115.092 163.716 112.096V89.9001C157.514 87.2367 153.194 81.2438 153.194 74.3631C153.194 64.9299 161.058 57.3833 170.804 57.3833Z" fill="white"/>
<path d="M74.7794 128.41C98.1458 128.41 117.088 110.125 117.088 87.5698C117.088 65.0143 98.1458 46.7295 74.7794 46.7295C51.4129 46.7295 32.4707 65.0143 32.4707 87.5698C32.4707 110.125 51.4129 128.41 74.7794 128.41Z" stroke="white" stroke-width="9.6" stroke-miterlimit="2.61313"/>
<path d="M74.7795 96.3369C79.7953 96.3369 83.8614 92.4117 83.8614 87.5696C83.8614 82.7275 79.7953 78.8022 74.7795 78.8022C69.7636 78.8022 65.6975 82.7275 65.6975 87.5696C65.6975 92.4117 69.7636 96.3369 74.7795 96.3369Z" fill="#1B5F8C" stroke="white" stroke-width="9.6" stroke-miterlimit="2.61313"/>
</svg>
