<svg width="40" height="26" viewBox="0 0 40 26" fill="none" xmlns="http://www.w3.org/2000/svg">
<path d="M38.6667 0H1.33333C0.979711 0 0.640573 0.152182 0.390524 0.423068C0.140476 0.693954 0 1.06135 0 1.44444V24.5556C0 24.9386 0.140476 25.306 0.390524 25.5769C0.640573 25.8478 0.979711 26 1.33333 26H38.6667C39.0203 26 39.3594 25.8478 39.6095 25.5769C39.8595 25.306 40 24.9386 40 24.5556V1.44444C40 1.06135 39.8595 0.693954 39.6095 0.423068C39.3594 0.152182 39.0203 0 38.6667 0ZM30.9417 23.1111H9.05833C8.61067 21.4709 7.79135 19.9782 6.67497 18.7688C5.5586 17.5594 4.18066 16.6718 2.66667 16.1868V9.81319C4.18066 9.32823 5.5586 8.44062 6.67497 7.23122C7.79135 6.02182 8.61067 4.52905 9.05833 2.88889H30.9417C31.3893 4.52905 32.2087 6.02182 33.325 7.23122C34.4414 8.44062 35.8193 9.32823 37.3333 9.81319V16.1868C35.8193 16.6718 34.4414 17.5594 33.325 18.7688C32.2087 19.9782 31.3893 21.4709 30.9417 23.1111ZM37.3333 6.74736C35.7341 6.00238 34.4593 4.62143 33.7717 2.88889H37.3333V6.74736ZM6.22833 2.88889C5.54065 4.62143 4.26594 6.00238 2.66667 6.74736V2.88889H6.22833ZM2.66667 19.2526C4.26594 19.9976 5.54065 21.3786 6.22833 23.1111H2.66667V19.2526ZM33.7717 23.1111C34.4593 21.3786 35.7341 19.9976 37.3333 19.2526V23.1111H33.7717Z" fill="white"/>
<path fill-rule="evenodd" clip-rule="evenodd" d="M19.9167 19.8611C22.7382 19.8611 25.3333 16.9852 25.3333 13C25.3333 9.01475 22.7382 6.13889 19.9167 6.13889C17.0951 6.13889 14.5 9.01475 14.5 13C14.5 16.9852 17.0951 19.8611 19.9167 19.8611ZM19.9167 21.4861C23.7366 21.4861 26.8333 17.6867 26.8333 13C26.8333 8.31325 23.7366 4.51389 19.9167 4.51389C16.0967 4.51389 13 8.31325 13 13C13 17.6867 16.0967 21.4861 19.9167 21.4861Z" fill="white"/>
<path d="M20.9372 8.48611V15.7201C20.9372 16.2637 20.9597 16.6115 21.0048 16.7637C21.0499 16.9116 21.1441 17.0334 21.2876 17.129C21.431 17.2247 21.6605 17.2725 21.9761 17.2725H22.1667V17.5139H17.7773V17.2725H17.9986C18.3552 17.2725 18.6093 17.2291 18.7609 17.1421C18.9126 17.0551 19.015 16.9355 19.0683 16.7833C19.1216 16.6311 19.1482 16.2767 19.1482 15.7201V11.1344C19.1482 10.7257 19.1298 10.4713 19.0929 10.3712C19.056 10.2669 18.9863 10.1799 18.8839 10.1103C18.7855 10.0364 18.6708 9.99944 18.5396 9.99944C18.3306 9.99944 18.0765 10.069 17.7773 10.2082L17.6667 9.97335L20.7343 8.48611H20.9372Z" fill="white"/>
</svg>
