<svg width="30" height="42" viewBox="0 0 30 42" fill="none" xmlns="http://www.w3.org/2000/svg">
<path d="M28.6768 8.7173L21.2596 1.23424C20.4707 0.438293 19.4381 0 18.3521 0H4.23077C1.89792 0 0 2.02396 0 4.51172V37.4883C0 39.976 1.89792 42 4.23077 42H25.7692C28.1021 42 30 39.976 30 37.4883V11.9948C30 10.7603 29.5177 9.56566 28.6768 8.7173ZM26.4355 9.84375H20.6923C20.4802 9.84375 20.3077 9.65975 20.3077 9.43359V3.66155L26.4355 9.84375ZM25.7692 39.5391H4.23077C3.17038 39.5391 2.30769 38.6191 2.30769 37.4883V4.51172C2.30769 3.38092 3.17038 2.46094 4.23077 2.46094H18V9.43359C18 11.0167 19.2078 12.3047 20.6923 12.3047H27.6923V37.4883C27.6923 38.6191 26.8296 39.5391 25.7692 39.5391Z" fill="white"/>
<path d="M14.0681 5.33333H5.08085C4.74244 5.33333 4.46808 5.74036 4.46808 6.24242C4.46808 6.74448 4.74244 7.15152 5.08085 7.15152H14.0681C14.4065 7.15152 14.6809 6.74448 14.6809 6.24242C14.6809 5.74036 14.4065 5.33333 14.0681 5.33333Z" fill="white"/>
<path d="M14.0681 10.1818H5.08085C4.74244 10.1818 4.46808 10.5888 4.46808 11.0909C4.46808 11.593 4.74244 12 5.08085 12H14.0681C14.4065 12 14.6809 11.593 14.6809 11.0909C14.6809 10.5888 14.4065 10.1818 14.0681 10.1818Z" fill="white"/>
<path d="M25.5574 35.3333H19.1234C18.785 35.3333 18.5106 35.7404 18.5106 36.2424C18.5106 36.7445 18.785 37.1515 19.1234 37.1515H25.5574C25.8959 37.1515 26.1702 36.7445 26.1702 36.2424C26.1702 35.7404 25.8959 35.3333 25.5574 35.3333Z" fill="white"/>
<path fill-rule="evenodd" clip-rule="evenodd" d="M6.38298 20V25.3333H23.617V20H6.38298ZM5.10638 18C4.75386 18 4.46808 18.2985 4.46808 18.6667V26.6667C4.46808 27.0349 4.75386 27.3333 5.10638 27.3333H24.8936C25.2461 27.3333 25.5319 27.0349 25.5319 26.6667V18.6667C25.5319 18.2985 25.2461 18 24.8936 18H5.10638Z" fill="white"/>
</svg>
